M48
; DRILL file KiCad 10.0.5 date 2026-08-25T08:48:47
; FORMAT={-:-/ absolute / metric / decimal}
; #@! TF.CreationDate,2026-08-25T08:48:47-04:00
; #@! TF.GenerationSoftware,Kicad,Pcbnew,10.0.5
; #@! TF.FileFunction,Plated,1,6,PTH
FMAT,2
METRIC
; #@! TA.AperFunction,Plated,PTH,ViaDrill
T1C0.300
; #@! TA.AperFunction,Plated,PTH,ComponentDrill
T2C0.800
; #@! TA.AperFunction,Plated,PTH,ComponentDrill
T3C1.000
; #@! TA.AperFunction,Plated,PTH,ComponentDrill
T4C1.100
; #@! TA.AperFunction,Plated,PTH,ComponentDrill
T5C1.200
%
G90
G05
T1
X45.5Y-87.55
X54.0Y-88.0
X58.0Y-90.0
X71.5Y-50.6
X72.0Y-58.1
X76.0Y-58.1
X81.0Y-88.25
X83.03Y-88.03
X83.125Y-55.625
X83.85Y-52.0
X85.393Y-43.859
X85.75Y-53.5
X88.0Y-114.4
X89.905Y-46.29
X94.25Y-43.49
X94.635Y-46.29
X100.0Y-41.5
X100.8Y-41.5
X105.857Y-44.205
X109.767Y-48.961
X113.07Y-48.4
X120.0Y-39.25
X142.5Y-47.5
X152.624Y-42.376
X155.0Y-45.0
X155.464Y-52.5
X156.0Y-56.0
X157.0Y-58.5
X158.0Y-52.0
X158.0Y-60.0
X158.0Y-95.0
X163.25Y-55.0
X165.0Y-55.6
X165.42Y-60.429
X167.5Y-55.6
X167.5Y-55.6
X167.5Y-58.7
X167.5Y-110.0
X167.5Y-114.0
X172.5Y-57.5
X175.0Y-55.0
X176.3Y-38.7
X177.251Y-54.751
X187.5Y-55.0
X187.5Y-57.5
X192.529Y-37.471
X202.0Y-42.84
X203.5Y-103.0
X241.024Y-69.476
X245.0Y-86.9
X246.1Y-88.0
X253.0Y-88.0
X264.95Y-83.0
T2
X34.929Y-43.086
X38.464Y-39.55
X89.8Y-104.88
X89.8Y-112.5
X92.34Y-104.88
X92.34Y-112.5
X94.88Y-112.5
X94.88Y-104.88
X97.42Y-104.88
X97.42Y-112.5
X99.96Y-104.88
X99.96Y-112.5
X102.5Y-104.88
X102.5Y-112.5
X105.04Y-104.88
X105.04Y-112.5
X107.58Y-104.88
X107.58Y-112.5
X176.3Y-42.34
X176.3Y-52.5
X180.35Y-42.34
X180.35Y-52.5
X184.4Y-42.34
X184.4Y-52.5
X188.45Y-42.34
X188.45Y-52.5
X192.5Y-42.34
X192.5Y-52.5
X196.55Y-42.34
X196.55Y-52.5
X237.5Y-60.5
X237.5Y-66.8
X247.0Y-50.75
X247.0Y-57.05
X247.0Y-70.0
X247.0Y-76.3
X256.5Y-60.5
X256.5Y-66.8
X257.232Y-40.132
X260.768Y-43.668
T3
X40.204Y-46.296
X42.0Y-44.5
X91.0Y-45.5
X91.0Y-48.04
X93.54Y-45.5
X93.54Y-48.04
X96.08Y-48.04
X96.08Y-45.5
X98.62Y-45.5
X98.62Y-48.04
X101.16Y-45.5
X101.16Y-48.04
X103.7Y-45.5
X103.7Y-48.04
X106.24Y-45.5
X106.24Y-48.04
X108.78Y-45.5
X108.78Y-48.04
X111.32Y-45.5
X111.32Y-48.04
X113.86Y-45.5
X113.86Y-48.04
X116.4Y-45.5
X116.4Y-48.04
X118.94Y-48.04
X118.94Y-45.5
X121.48Y-45.5
X121.48Y-48.04
X124.02Y-45.5
X124.02Y-48.04
X126.56Y-45.5
X126.56Y-48.04
X129.1Y-48.04
X129.1Y-45.5
X131.64Y-45.5
X131.64Y-48.04
X134.18Y-45.5
X134.18Y-48.04
X136.72Y-45.5
X136.72Y-48.04
X139.26Y-45.5
X139.26Y-48.04
X166.0Y-62.46
X166.0Y-65.0
X166.0Y-67.54
X166.0Y-70.08
X166.0Y-72.62
X166.0Y-75.16
X166.0Y-77.7
X166.0Y-80.24
X182.38Y-100.0
X184.92Y-100.0
X187.46Y-100.0
X190.0Y-100.0
X192.54Y-100.0
X195.08Y-100.0
X197.62Y-100.0
X234.5Y-61.4
X234.5Y-65.9
X240.5Y-61.4
X240.5Y-65.9
X244.0Y-51.65
X244.0Y-56.15
X244.0Y-70.9
X244.0Y-75.4
X250.0Y-51.65
X250.0Y-56.15
X250.0Y-70.9
X250.0Y-75.4
X253.5Y-61.4
X253.5Y-65.9
X254.05Y-45.436
X255.846Y-47.232
X259.5Y-61.4
X259.5Y-65.9
T4
X36.5Y-60.0
X36.5Y-64.5
X43.0Y-60.0
X43.0Y-64.5
X46.0Y-50.5
X46.0Y-57.0
X46.0Y-67.5
X46.0Y-74.0
X50.5Y-50.5
X50.5Y-57.0
X50.5Y-67.5
X50.5Y-74.0
X53.5Y-60.0
X53.5Y-64.5
X60.0Y-60.0
X60.0Y-64.5
T5
X32.31Y-42.169
X37.547Y-36.932
X258.149Y-37.514
X263.386Y-42.751
M30
