%TF.GenerationSoftware,KiCad,Pcbnew,10.0.5*%
%TF.CreationDate,2026-08-25T08:47:48-04:00*%
%TF.ProjectId,Project Holocron - K_R & _V_,50726f6a-6563-4742-9048-6f6c6f63726f,rev?*%
%TF.SameCoordinates,Original*%
%TF.FileFunction,Legend,Bot*%
%TF.FilePolarity,Positive*%
%FSLAX46Y46*%
G04 Gerber Fmt 4.6, Leading zero omitted, Abs format (unit mm)*
G04 Created by KiCad (PCBNEW 10.0.5) date 2026-08-25 08:47:48*
%MOMM*%
%LPD*%
G01*
G04 APERTURE LIST*
%ADD10C,0.500000*%
%ADD11C,0.000000*%
G04 APERTURE END LIST*
D10*
X156694862Y-101494952D02*
X156694862Y-93494952D01*
X156694862Y-93494952D02*
X156218672Y-93494952D01*
X156218672Y-93494952D02*
X155932957Y-93875904D01*
X155932957Y-93875904D02*
X155742481Y-94637809D01*
X155742481Y-94637809D02*
X155647243Y-95399714D01*
X155647243Y-95399714D02*
X155552005Y-96923523D01*
X155552005Y-96923523D02*
X155552005Y-98066380D01*
X155552005Y-98066380D02*
X155647243Y-99590190D01*
X155647243Y-99590190D02*
X155742481Y-100352095D01*
X155742481Y-100352095D02*
X155932957Y-101114000D01*
X155932957Y-101114000D02*
X156218672Y-101494952D01*
X156218672Y-101494952D02*
X156694862Y-101494952D01*
X154313910Y-93494952D02*
X153932957Y-93494952D01*
X153932957Y-93494952D02*
X153742481Y-93875904D01*
X153742481Y-93875904D02*
X153552005Y-94637809D01*
X153552005Y-94637809D02*
X153456767Y-96161619D01*
X153456767Y-96161619D02*
X153456767Y-98828285D01*
X153456767Y-98828285D02*
X153552005Y-100352095D01*
X153552005Y-100352095D02*
X153742481Y-101114000D01*
X153742481Y-101114000D02*
X153932957Y-101494952D01*
X153932957Y-101494952D02*
X154313910Y-101494952D01*
X154313910Y-101494952D02*
X154504386Y-101114000D01*
X154504386Y-101114000D02*
X154694862Y-100352095D01*
X154694862Y-100352095D02*
X154790100Y-98828285D01*
X154790100Y-98828285D02*
X154790100Y-96161619D01*
X154790100Y-96161619D02*
X154694862Y-94637809D01*
X154694862Y-94637809D02*
X154504386Y-93875904D01*
X154504386Y-93875904D02*
X154313910Y-93494952D01*
X152599624Y-101494952D02*
X152599624Y-93494952D01*
X152599624Y-93494952D02*
X151456767Y-101494952D01*
X151456767Y-101494952D02*
X151456767Y-93494952D01*
X150409148Y-93494952D02*
X150599624Y-95018761D01*
X149837719Y-93494952D02*
X148694862Y-93494952D01*
X149266291Y-101494952D02*
X149266291Y-93494952D01*
X145837718Y-97304476D02*
X145552004Y-97685428D01*
X145552004Y-97685428D02*
X145456766Y-98066380D01*
X145456766Y-98066380D02*
X145361528Y-98828285D01*
X145361528Y-98828285D02*
X145361528Y-99971142D01*
X145361528Y-99971142D02*
X145456766Y-100733047D01*
X145456766Y-100733047D02*
X145552004Y-101114000D01*
X145552004Y-101114000D02*
X145742480Y-101494952D01*
X145742480Y-101494952D02*
X146504385Y-101494952D01*
X146504385Y-101494952D02*
X146504385Y-93494952D01*
X146504385Y-93494952D02*
X145837718Y-93494952D01*
X145837718Y-93494952D02*
X145647242Y-93875904D01*
X145647242Y-93875904D02*
X145552004Y-94256857D01*
X145552004Y-94256857D02*
X145456766Y-95018761D01*
X145456766Y-95018761D02*
X145456766Y-95780666D01*
X145456766Y-95780666D02*
X145552004Y-96542571D01*
X145552004Y-96542571D02*
X145647242Y-96923523D01*
X145647242Y-96923523D02*
X145837718Y-97304476D01*
X145837718Y-97304476D02*
X146504385Y-97304476D01*
X144504385Y-97304476D02*
X143837718Y-97304476D01*
X143552004Y-101494952D02*
X144504385Y-101494952D01*
X144504385Y-101494952D02*
X144504385Y-93494952D01*
X144504385Y-93494952D02*
X143552004Y-93494952D01*
X141171051Y-97304476D02*
X140504384Y-97304476D01*
X140218670Y-101494952D02*
X141171051Y-101494952D01*
X141171051Y-101494952D02*
X141171051Y-93494952D01*
X141171051Y-93494952D02*
X140218670Y-93494952D01*
X139361527Y-101494952D02*
X139361527Y-93494952D01*
X139361527Y-93494952D02*
X138218670Y-101494952D01*
X138218670Y-101494952D02*
X138218670Y-93494952D01*
X136123432Y-100733047D02*
X136218670Y-101114000D01*
X136218670Y-101114000D02*
X136504384Y-101494952D01*
X136504384Y-101494952D02*
X136694860Y-101494952D01*
X136694860Y-101494952D02*
X136980575Y-101114000D01*
X136980575Y-101114000D02*
X137171051Y-100352095D01*
X137171051Y-100352095D02*
X137266289Y-99590190D01*
X137266289Y-99590190D02*
X137361527Y-98066380D01*
X137361527Y-98066380D02*
X137361527Y-96923523D01*
X137361527Y-96923523D02*
X137266289Y-95399714D01*
X137266289Y-95399714D02*
X137171051Y-94637809D01*
X137171051Y-94637809D02*
X136980575Y-93875904D01*
X136980575Y-93875904D02*
X136694860Y-93494952D01*
X136694860Y-93494952D02*
X136504384Y-93494952D01*
X136504384Y-93494952D02*
X136218670Y-93875904D01*
X136218670Y-93875904D02*
X136123432Y-94256857D01*
X135266289Y-93494952D02*
X135266289Y-99971142D01*
X135266289Y-99971142D02*
X135171051Y-100733047D01*
X135171051Y-100733047D02*
X135075813Y-101114000D01*
X135075813Y-101114000D02*
X134885337Y-101494952D01*
X134885337Y-101494952D02*
X134504384Y-101494952D01*
X134504384Y-101494952D02*
X134313908Y-101114000D01*
X134313908Y-101114000D02*
X134218670Y-100733047D01*
X134218670Y-100733047D02*
X134123432Y-99971142D01*
X134123432Y-99971142D02*
X134123432Y-93494952D01*
X133171051Y-101494952D02*
X133171051Y-93494952D01*
X133171051Y-93494952D02*
X132504384Y-99209238D01*
X132504384Y-99209238D02*
X131837718Y-93494952D01*
X131837718Y-93494952D02*
X131837718Y-101494952D01*
X130218670Y-97304476D02*
X129932956Y-97685428D01*
X129932956Y-97685428D02*
X129837718Y-98066380D01*
X129837718Y-98066380D02*
X129742480Y-98828285D01*
X129742480Y-98828285D02*
X129742480Y-99971142D01*
X129742480Y-99971142D02*
X129837718Y-100733047D01*
X129837718Y-100733047D02*
X129932956Y-101114000D01*
X129932956Y-101114000D02*
X130123432Y-101494952D01*
X130123432Y-101494952D02*
X130885337Y-101494952D01*
X130885337Y-101494952D02*
X130885337Y-93494952D01*
X130885337Y-93494952D02*
X130218670Y-93494952D01*
X130218670Y-93494952D02*
X130028194Y-93875904D01*
X130028194Y-93875904D02*
X129932956Y-94256857D01*
X129932956Y-94256857D02*
X129837718Y-95018761D01*
X129837718Y-95018761D02*
X129837718Y-95780666D01*
X129837718Y-95780666D02*
X129932956Y-96542571D01*
X129932956Y-96542571D02*
X130028194Y-96923523D01*
X130028194Y-96923523D02*
X130218670Y-97304476D01*
X130218670Y-97304476D02*
X130885337Y-97304476D01*
X128885337Y-97304476D02*
X128218670Y-97304476D01*
X127932956Y-101494952D02*
X128885337Y-101494952D01*
X128885337Y-101494952D02*
X128885337Y-93494952D01*
X128885337Y-93494952D02*
X127932956Y-93494952D01*
X125932956Y-101494952D02*
X126599623Y-97685428D01*
X127075813Y-101494952D02*
X127075813Y-93494952D01*
X127075813Y-93494952D02*
X126313908Y-93494952D01*
X126313908Y-93494952D02*
X126123432Y-93875904D01*
X126123432Y-93875904D02*
X126028194Y-94256857D01*
X126028194Y-94256857D02*
X125932956Y-95018761D01*
X125932956Y-95018761D02*
X125932956Y-96161619D01*
X125932956Y-96161619D02*
X126028194Y-96923523D01*
X126028194Y-96923523D02*
X126123432Y-97304476D01*
X126123432Y-97304476D02*
X126313908Y-97685428D01*
X126313908Y-97685428D02*
X127075813Y-97685428D01*
X125075813Y-97304476D02*
X124409146Y-97304476D01*
X124123432Y-101494952D02*
X125075813Y-101494952D01*
X125075813Y-101494952D02*
X125075813Y-93494952D01*
X125075813Y-93494952D02*
X124123432Y-93494952D01*
X123266289Y-101494952D02*
X123266289Y-93494952D01*
X123266289Y-93494952D02*
X122790099Y-93494952D01*
X122790099Y-93494952D02*
X122504384Y-93875904D01*
X122504384Y-93875904D02*
X122313908Y-94637809D01*
X122313908Y-94637809D02*
X122218670Y-95399714D01*
X122218670Y-95399714D02*
X122123432Y-96923523D01*
X122123432Y-96923523D02*
X122123432Y-98066380D01*
X122123432Y-98066380D02*
X122218670Y-99590190D01*
X122218670Y-99590190D02*
X122313908Y-100352095D01*
X122313908Y-100352095D02*
X122504384Y-101114000D01*
X122504384Y-101114000D02*
X122790099Y-101494952D01*
X122790099Y-101494952D02*
X123266289Y-101494952D01*
X119075812Y-97304476D02*
X118790098Y-97685428D01*
X118790098Y-97685428D02*
X118694860Y-98066380D01*
X118694860Y-98066380D02*
X118599622Y-98828285D01*
X118599622Y-98828285D02*
X118599622Y-99971142D01*
X118599622Y-99971142D02*
X118694860Y-100733047D01*
X118694860Y-100733047D02*
X118790098Y-101114000D01*
X118790098Y-101114000D02*
X118980574Y-101494952D01*
X118980574Y-101494952D02*
X119742479Y-101494952D01*
X119742479Y-101494952D02*
X119742479Y-93494952D01*
X119742479Y-93494952D02*
X119075812Y-93494952D01*
X119075812Y-93494952D02*
X118885336Y-93875904D01*
X118885336Y-93875904D02*
X118790098Y-94256857D01*
X118790098Y-94256857D02*
X118694860Y-95018761D01*
X118694860Y-95018761D02*
X118694860Y-95780666D01*
X118694860Y-95780666D02*
X118790098Y-96542571D01*
X118790098Y-96542571D02*
X118885336Y-96923523D01*
X118885336Y-96923523D02*
X119075812Y-97304476D01*
X119075812Y-97304476D02*
X119742479Y-97304476D01*
X117361527Y-97685428D02*
X117361527Y-101494952D01*
X118028193Y-93494952D02*
X117361527Y-97685428D01*
X117361527Y-97685428D02*
X116694860Y-93494952D01*
X114504383Y-101494952D02*
X114504383Y-93494952D01*
X114504383Y-97304476D02*
X113361526Y-97304476D01*
X113361526Y-101494952D02*
X113361526Y-93494952D01*
X112409145Y-101494952D02*
X112409145Y-93494952D01*
X111552002Y-101114000D02*
X111266288Y-101494952D01*
X111266288Y-101494952D02*
X110790097Y-101494952D01*
X110790097Y-101494952D02*
X110599621Y-101114000D01*
X110599621Y-101114000D02*
X110504383Y-100733047D01*
X110504383Y-100733047D02*
X110409145Y-99971142D01*
X110409145Y-99971142D02*
X110409145Y-99209238D01*
X110409145Y-99209238D02*
X110504383Y-98447333D01*
X110504383Y-98447333D02*
X110599621Y-98066380D01*
X110599621Y-98066380D02*
X110790097Y-97685428D01*
X110790097Y-97685428D02*
X111171050Y-97304476D01*
X111171050Y-97304476D02*
X111361526Y-96923523D01*
X111361526Y-96923523D02*
X111456764Y-96542571D01*
X111456764Y-96542571D02*
X111552002Y-95780666D01*
X111552002Y-95780666D02*
X111552002Y-95018761D01*
X111552002Y-95018761D02*
X111456764Y-94256857D01*
X111456764Y-94256857D02*
X111361526Y-93875904D01*
X111361526Y-93875904D02*
X111171050Y-93494952D01*
X111171050Y-93494952D02*
X110694859Y-93494952D01*
X110694859Y-93494952D02*
X110409145Y-93875904D01*
X109837716Y-93494952D02*
X108694859Y-93494952D01*
X109266288Y-101494952D02*
X109266288Y-93494952D01*
X107647240Y-93494952D02*
X107266287Y-93494952D01*
X107266287Y-93494952D02*
X107075811Y-93875904D01*
X107075811Y-93875904D02*
X106885335Y-94637809D01*
X106885335Y-94637809D02*
X106790097Y-96161619D01*
X106790097Y-96161619D02*
X106790097Y-98828285D01*
X106790097Y-98828285D02*
X106885335Y-100352095D01*
X106885335Y-100352095D02*
X107075811Y-101114000D01*
X107075811Y-101114000D02*
X107266287Y-101494952D01*
X107266287Y-101494952D02*
X107647240Y-101494952D01*
X107647240Y-101494952D02*
X107837716Y-101114000D01*
X107837716Y-101114000D02*
X108028192Y-100352095D01*
X108028192Y-100352095D02*
X108123430Y-98828285D01*
X108123430Y-98828285D02*
X108123430Y-96161619D01*
X108123430Y-96161619D02*
X108028192Y-94637809D01*
X108028192Y-94637809D02*
X107837716Y-93875904D01*
X107837716Y-93875904D02*
X107647240Y-93494952D01*
X104790097Y-101494952D02*
X105456764Y-97685428D01*
X105932954Y-101494952D02*
X105932954Y-93494952D01*
X105932954Y-93494952D02*
X105171049Y-93494952D01*
X105171049Y-93494952D02*
X104980573Y-93875904D01*
X104980573Y-93875904D02*
X104885335Y-94256857D01*
X104885335Y-94256857D02*
X104790097Y-95018761D01*
X104790097Y-95018761D02*
X104790097Y-96161619D01*
X104790097Y-96161619D02*
X104885335Y-96923523D01*
X104885335Y-96923523D02*
X104980573Y-97304476D01*
X104980573Y-97304476D02*
X105171049Y-97685428D01*
X105171049Y-97685428D02*
X105932954Y-97685428D01*
X103552002Y-97685428D02*
X103552002Y-101494952D01*
X104218668Y-93494952D02*
X103552002Y-97685428D01*
X103552002Y-97685428D02*
X102885335Y-93494952D01*
X102218668Y-100733047D02*
X102123430Y-101114000D01*
X102123430Y-101114000D02*
X102218668Y-101494952D01*
X102218668Y-101494952D02*
X102313906Y-101114000D01*
X102313906Y-101114000D02*
X102218668Y-100733047D01*
X102218668Y-100733047D02*
X102218668Y-101494952D01*
X98694858Y-93875904D02*
X98885334Y-93494952D01*
X98885334Y-93494952D02*
X99171048Y-93494952D01*
X99171048Y-93494952D02*
X99456763Y-93875904D01*
X99456763Y-93875904D02*
X99647239Y-94637809D01*
X99647239Y-94637809D02*
X99742477Y-95399714D01*
X99742477Y-95399714D02*
X99837715Y-96923523D01*
X99837715Y-96923523D02*
X99837715Y-98066380D01*
X99837715Y-98066380D02*
X99742477Y-99590190D01*
X99742477Y-99590190D02*
X99647239Y-100352095D01*
X99647239Y-100352095D02*
X99456763Y-101114000D01*
X99456763Y-101114000D02*
X99171048Y-101494952D01*
X99171048Y-101494952D02*
X98980572Y-101494952D01*
X98980572Y-101494952D02*
X98694858Y-101114000D01*
X98694858Y-101114000D02*
X98599620Y-100733047D01*
X98599620Y-100733047D02*
X98599620Y-98066380D01*
X98599620Y-98066380D02*
X98980572Y-98066380D01*
X97361525Y-93494952D02*
X96980572Y-93494952D01*
X96980572Y-93494952D02*
X96790096Y-93875904D01*
X96790096Y-93875904D02*
X96599620Y-94637809D01*
X96599620Y-94637809D02*
X96504382Y-96161619D01*
X96504382Y-96161619D02*
X96504382Y-98828285D01*
X96504382Y-98828285D02*
X96599620Y-100352095D01*
X96599620Y-100352095D02*
X96790096Y-101114000D01*
X96790096Y-101114000D02*
X96980572Y-101494952D01*
X96980572Y-101494952D02*
X97361525Y-101494952D01*
X97361525Y-101494952D02*
X97552001Y-101114000D01*
X97552001Y-101114000D02*
X97742477Y-100352095D01*
X97742477Y-100352095D02*
X97837715Y-98828285D01*
X97837715Y-98828285D02*
X97837715Y-96161619D01*
X97837715Y-96161619D02*
X97742477Y-94637809D01*
X97742477Y-94637809D02*
X97552001Y-93875904D01*
X97552001Y-93875904D02*
X97361525Y-93494952D01*
X93742477Y-93494952D02*
X93361524Y-93494952D01*
X93361524Y-93494952D02*
X93171048Y-93875904D01*
X93171048Y-93875904D02*
X92980572Y-94637809D01*
X92980572Y-94637809D02*
X92885334Y-96161619D01*
X92885334Y-96161619D02*
X92885334Y-98828285D01*
X92885334Y-98828285D02*
X92980572Y-100352095D01*
X92980572Y-100352095D02*
X93171048Y-101114000D01*
X93171048Y-101114000D02*
X93361524Y-101494952D01*
X93361524Y-101494952D02*
X93742477Y-101494952D01*
X93742477Y-101494952D02*
X93932953Y-101114000D01*
X93932953Y-101114000D02*
X94123429Y-100352095D01*
X94123429Y-100352095D02*
X94218667Y-98828285D01*
X94218667Y-98828285D02*
X94218667Y-96161619D01*
X94218667Y-96161619D02*
X94123429Y-94637809D01*
X94123429Y-94637809D02*
X93932953Y-93875904D01*
X93932953Y-93875904D02*
X93742477Y-93494952D01*
X91361524Y-97304476D02*
X92028191Y-97304476D01*
X92028191Y-101494952D02*
X92028191Y-93494952D01*
X92028191Y-93494952D02*
X91075810Y-93494952D01*
X89647238Y-97304476D02*
X90313905Y-97304476D01*
X90313905Y-101494952D02*
X90313905Y-93494952D01*
X90313905Y-93494952D02*
X89361524Y-93494952D01*
X87171047Y-99209238D02*
X86218666Y-99209238D01*
X87361523Y-101494952D02*
X86694857Y-93494952D01*
X86694857Y-93494952D02*
X86028190Y-101494952D01*
X85361523Y-101494952D02*
X85361523Y-93494952D01*
X85361523Y-93494952D02*
X84218666Y-101494952D01*
X84218666Y-101494952D02*
X84218666Y-93494952D01*
X83266285Y-101494952D02*
X83266285Y-93494952D01*
X83266285Y-93494952D02*
X82790095Y-93494952D01*
X82790095Y-93494952D02*
X82504380Y-93875904D01*
X82504380Y-93875904D02*
X82313904Y-94637809D01*
X82313904Y-94637809D02*
X82218666Y-95399714D01*
X82218666Y-95399714D02*
X82123428Y-96923523D01*
X82123428Y-96923523D02*
X82123428Y-98066380D01*
X82123428Y-98066380D02*
X82218666Y-99590190D01*
X82218666Y-99590190D02*
X82313904Y-100352095D01*
X82313904Y-100352095D02*
X82504380Y-101114000D01*
X82504380Y-101114000D02*
X82790095Y-101494952D01*
X82790095Y-101494952D02*
X83266285Y-101494952D01*
X79742475Y-101494952D02*
X79742475Y-93494952D01*
X79742475Y-93494952D02*
X79266285Y-93494952D01*
X79266285Y-93494952D02*
X78980570Y-93875904D01*
X78980570Y-93875904D02*
X78790094Y-94637809D01*
X78790094Y-94637809D02*
X78694856Y-95399714D01*
X78694856Y-95399714D02*
X78599618Y-96923523D01*
X78599618Y-96923523D02*
X78599618Y-98066380D01*
X78599618Y-98066380D02*
X78694856Y-99590190D01*
X78694856Y-99590190D02*
X78790094Y-100352095D01*
X78790094Y-100352095D02*
X78980570Y-101114000D01*
X78980570Y-101114000D02*
X79266285Y-101494952D01*
X79266285Y-101494952D02*
X79742475Y-101494952D01*
X77361523Y-93494952D02*
X76980570Y-93494952D01*
X76980570Y-93494952D02*
X76790094Y-93875904D01*
X76790094Y-93875904D02*
X76599618Y-94637809D01*
X76599618Y-94637809D02*
X76504380Y-96161619D01*
X76504380Y-96161619D02*
X76504380Y-98828285D01*
X76504380Y-98828285D02*
X76599618Y-100352095D01*
X76599618Y-100352095D02*
X76790094Y-101114000D01*
X76790094Y-101114000D02*
X76980570Y-101494952D01*
X76980570Y-101494952D02*
X77361523Y-101494952D01*
X77361523Y-101494952D02*
X77551999Y-101114000D01*
X77551999Y-101114000D02*
X77742475Y-100352095D01*
X77742475Y-100352095D02*
X77837713Y-98828285D01*
X77837713Y-98828285D02*
X77837713Y-96161619D01*
X77837713Y-96161619D02*
X77742475Y-94637809D01*
X77742475Y-94637809D02*
X77551999Y-93875904D01*
X77551999Y-93875904D02*
X77361523Y-93494952D01*
X74218665Y-101114000D02*
X73932951Y-101494952D01*
X73932951Y-101494952D02*
X73456760Y-101494952D01*
X73456760Y-101494952D02*
X73266284Y-101114000D01*
X73266284Y-101114000D02*
X73171046Y-100733047D01*
X73171046Y-100733047D02*
X73075808Y-99971142D01*
X73075808Y-99971142D02*
X73075808Y-99209238D01*
X73075808Y-99209238D02*
X73171046Y-98447333D01*
X73171046Y-98447333D02*
X73266284Y-98066380D01*
X73266284Y-98066380D02*
X73456760Y-97685428D01*
X73456760Y-97685428D02*
X73837713Y-97304476D01*
X73837713Y-97304476D02*
X74028189Y-96923523D01*
X74028189Y-96923523D02*
X74123427Y-96542571D01*
X74123427Y-96542571D02*
X74218665Y-95780666D01*
X74218665Y-95780666D02*
X74218665Y-95018761D01*
X74218665Y-95018761D02*
X74123427Y-94256857D01*
X74123427Y-94256857D02*
X74028189Y-93875904D01*
X74028189Y-93875904D02*
X73837713Y-93494952D01*
X73837713Y-93494952D02*
X73361522Y-93494952D01*
X73361522Y-93494952D02*
X73075808Y-93875904D01*
X71837713Y-93494952D02*
X71456760Y-93494952D01*
X71456760Y-93494952D02*
X71266284Y-93875904D01*
X71266284Y-93875904D02*
X71075808Y-94637809D01*
X71075808Y-94637809D02*
X70980570Y-96161619D01*
X70980570Y-96161619D02*
X70980570Y-98828285D01*
X70980570Y-98828285D02*
X71075808Y-100352095D01*
X71075808Y-100352095D02*
X71266284Y-101114000D01*
X71266284Y-101114000D02*
X71456760Y-101494952D01*
X71456760Y-101494952D02*
X71837713Y-101494952D01*
X71837713Y-101494952D02*
X72028189Y-101114000D01*
X72028189Y-101114000D02*
X72218665Y-100352095D01*
X72218665Y-100352095D02*
X72313903Y-98828285D01*
X72313903Y-98828285D02*
X72313903Y-96161619D01*
X72313903Y-96161619D02*
X72218665Y-94637809D01*
X72218665Y-94637809D02*
X72028189Y-93875904D01*
X72028189Y-93875904D02*
X71837713Y-93494952D01*
X70123427Y-101494952D02*
X70123427Y-93494952D01*
X70123427Y-93494952D02*
X69456760Y-99209238D01*
X69456760Y-99209238D02*
X68790094Y-93494952D01*
X68790094Y-93494952D02*
X68790094Y-101494952D01*
X67837713Y-97304476D02*
X67171046Y-97304476D01*
X66885332Y-101494952D02*
X67837713Y-101494952D01*
X67837713Y-101494952D02*
X67837713Y-93494952D01*
X67837713Y-93494952D02*
X66885332Y-93494952D01*
X66313903Y-93494952D02*
X65171046Y-93494952D01*
X65742475Y-101494952D02*
X65742475Y-93494952D01*
X64504379Y-101494952D02*
X64504379Y-93494952D01*
X64504379Y-97304476D02*
X63361522Y-97304476D01*
X63361522Y-101494952D02*
X63361522Y-93494952D01*
X62409141Y-101494952D02*
X62409141Y-93494952D01*
X61456760Y-101494952D02*
X61456760Y-93494952D01*
X61456760Y-93494952D02*
X60313903Y-101494952D01*
X60313903Y-101494952D02*
X60313903Y-93494952D01*
X58313903Y-93875904D02*
X58504379Y-93494952D01*
X58504379Y-93494952D02*
X58790093Y-93494952D01*
X58790093Y-93494952D02*
X59075808Y-93875904D01*
X59075808Y-93875904D02*
X59266284Y-94637809D01*
X59266284Y-94637809D02*
X59361522Y-95399714D01*
X59361522Y-95399714D02*
X59456760Y-96923523D01*
X59456760Y-96923523D02*
X59456760Y-98066380D01*
X59456760Y-98066380D02*
X59361522Y-99590190D01*
X59361522Y-99590190D02*
X59266284Y-100352095D01*
X59266284Y-100352095D02*
X59075808Y-101114000D01*
X59075808Y-101114000D02*
X58790093Y-101494952D01*
X58790093Y-101494952D02*
X58599617Y-101494952D01*
X58599617Y-101494952D02*
X58313903Y-101114000D01*
X58313903Y-101114000D02*
X58218665Y-100733047D01*
X58218665Y-100733047D02*
X58218665Y-98066380D01*
X58218665Y-98066380D02*
X58599617Y-98066380D01*
X56028188Y-93494952D02*
X55551998Y-101494952D01*
X55551998Y-101494952D02*
X55171045Y-95780666D01*
X55171045Y-95780666D02*
X54790093Y-101494952D01*
X54790093Y-101494952D02*
X54313903Y-93494952D01*
X53171046Y-93494952D02*
X52790093Y-93494952D01*
X52790093Y-93494952D02*
X52599617Y-93875904D01*
X52599617Y-93875904D02*
X52409141Y-94637809D01*
X52409141Y-94637809D02*
X52313903Y-96161619D01*
X52313903Y-96161619D02*
X52313903Y-98828285D01*
X52313903Y-98828285D02*
X52409141Y-100352095D01*
X52409141Y-100352095D02*
X52599617Y-101114000D01*
X52599617Y-101114000D02*
X52790093Y-101494952D01*
X52790093Y-101494952D02*
X53171046Y-101494952D01*
X53171046Y-101494952D02*
X53361522Y-101114000D01*
X53361522Y-101114000D02*
X53551998Y-100352095D01*
X53551998Y-100352095D02*
X53647236Y-98828285D01*
X53647236Y-98828285D02*
X53647236Y-96161619D01*
X53647236Y-96161619D02*
X53551998Y-94637809D01*
X53551998Y-94637809D02*
X53361522Y-93875904D01*
X53361522Y-93875904D02*
X53171046Y-93494952D01*
X51456760Y-101494952D02*
X51456760Y-93494952D01*
X51456760Y-93494952D02*
X50313903Y-101494952D01*
X50313903Y-101494952D02*
X50313903Y-93494952D01*
X49361522Y-101494952D02*
X49361522Y-93494952D01*
X49361522Y-93494952D02*
X48885332Y-93494952D01*
X48885332Y-93494952D02*
X48599617Y-93875904D01*
X48599617Y-93875904D02*
X48409141Y-94637809D01*
X48409141Y-94637809D02*
X48313903Y-95399714D01*
X48313903Y-95399714D02*
X48218665Y-96923523D01*
X48218665Y-96923523D02*
X48218665Y-98066380D01*
X48218665Y-98066380D02*
X48313903Y-99590190D01*
X48313903Y-99590190D02*
X48409141Y-100352095D01*
X48409141Y-100352095D02*
X48599617Y-101114000D01*
X48599617Y-101114000D02*
X48885332Y-101494952D01*
X48885332Y-101494952D02*
X49361522Y-101494952D01*
X47361522Y-97304476D02*
X46694855Y-97304476D01*
X46409141Y-101494952D02*
X47361522Y-101494952D01*
X47361522Y-101494952D02*
X47361522Y-93494952D01*
X47361522Y-93494952D02*
X46409141Y-93494952D01*
X44409141Y-101494952D02*
X45075808Y-97685428D01*
X45551998Y-101494952D02*
X45551998Y-93494952D01*
X45551998Y-93494952D02*
X44790093Y-93494952D01*
X44790093Y-93494952D02*
X44599617Y-93875904D01*
X44599617Y-93875904D02*
X44504379Y-94256857D01*
X44504379Y-94256857D02*
X44409141Y-95018761D01*
X44409141Y-95018761D02*
X44409141Y-96161619D01*
X44409141Y-96161619D02*
X44504379Y-96923523D01*
X44504379Y-96923523D02*
X44599617Y-97304476D01*
X44599617Y-97304476D02*
X44790093Y-97685428D01*
X44790093Y-97685428D02*
X45551998Y-97685428D01*
X42885331Y-97304476D02*
X43551998Y-97304476D01*
X43551998Y-101494952D02*
X43551998Y-93494952D01*
X43551998Y-93494952D02*
X42599617Y-93494952D01*
X41837712Y-93494952D02*
X41837712Y-99971142D01*
X41837712Y-99971142D02*
X41742474Y-100733047D01*
X41742474Y-100733047D02*
X41647236Y-101114000D01*
X41647236Y-101114000D02*
X41456760Y-101494952D01*
X41456760Y-101494952D02*
X41075807Y-101494952D01*
X41075807Y-101494952D02*
X40885331Y-101114000D01*
X40885331Y-101114000D02*
X40790093Y-100733047D01*
X40790093Y-100733047D02*
X40694855Y-99971142D01*
X40694855Y-99971142D02*
X40694855Y-93494952D01*
X38790093Y-101494952D02*
X39742474Y-101494952D01*
X39742474Y-101494952D02*
X39742474Y-93494952D01*
X38123426Y-100733047D02*
X38028188Y-101114000D01*
X38028188Y-101114000D02*
X38123426Y-101494952D01*
X38123426Y-101494952D02*
X38218664Y-101114000D01*
X38218664Y-101114000D02*
X38123426Y-100733047D01*
X38123426Y-100733047D02*
X38123426Y-101494952D01*
D11*
%TO.C,*%
G36*
X183622725Y-93882634D02*
G01*
X183535739Y-93969620D01*
X183448753Y-93882634D01*
X183535739Y-93795647D01*
X183622725Y-93882634D01*
G37*
G36*
X185188479Y-66394962D02*
G01*
X185101492Y-66481949D01*
X185014506Y-66394962D01*
X185101492Y-66307976D01*
X185188479Y-66394962D01*
G37*
G36*
X190233684Y-87445647D02*
G01*
X190146698Y-87532634D01*
X190059712Y-87445647D01*
X190146698Y-87358661D01*
X190233684Y-87445647D01*
G37*
G36*
X192843273Y-65177154D02*
G01*
X192756287Y-65264141D01*
X192669301Y-65177154D01*
X192756287Y-65090168D01*
X192843273Y-65177154D01*
G37*
G36*
X199628205Y-50737428D02*
G01*
X199541218Y-50824415D01*
X199454232Y-50737428D01*
X199541218Y-50650442D01*
X199628205Y-50737428D01*
G37*
G36*
X200498068Y-51781264D02*
G01*
X200411081Y-51868250D01*
X200324095Y-51781264D01*
X200411081Y-51694278D01*
X200498068Y-51781264D01*
G37*
G36*
X202759712Y-54564825D02*
G01*
X202672725Y-54651812D01*
X202585739Y-54564825D01*
X202672725Y-54477839D01*
X202759712Y-54564825D01*
G37*
G36*
X203281629Y-55260716D02*
G01*
X203194643Y-55347702D01*
X203107657Y-55260716D01*
X203194643Y-55173730D01*
X203281629Y-55260716D01*
G37*
G36*
X203977520Y-55956606D02*
G01*
X203890533Y-56043593D01*
X203803547Y-55956606D01*
X203890533Y-55869620D01*
X203977520Y-55956606D01*
G37*
G36*
X204151492Y-56304552D02*
G01*
X204064506Y-56391538D01*
X203977520Y-56304552D01*
X204064506Y-56217565D01*
X204151492Y-56304552D01*
G37*
G36*
X205195328Y-57522360D02*
G01*
X205108342Y-57609346D01*
X205021355Y-57522360D01*
X205108342Y-57435373D01*
X205195328Y-57522360D01*
G37*
G36*
X219287109Y-105016880D02*
G01*
X219200123Y-105103867D01*
X219113136Y-105016880D01*
X219200123Y-104929894D01*
X219287109Y-105016880D01*
G37*
G36*
X220504917Y-104494962D02*
G01*
X220417931Y-104581949D01*
X220330944Y-104494962D01*
X220417931Y-104407976D01*
X220504917Y-104494962D01*
G37*
G36*
X221026835Y-48649757D02*
G01*
X220939849Y-48736743D01*
X220852862Y-48649757D01*
X220939849Y-48562771D01*
X221026835Y-48649757D01*
G37*
G36*
X222592588Y-47605921D02*
G01*
X222505602Y-47692908D01*
X222418616Y-47605921D01*
X222505602Y-47518935D01*
X222592588Y-47605921D01*
G37*
G36*
X223462451Y-49693593D02*
G01*
X223375465Y-49780579D01*
X223288479Y-49693593D01*
X223375465Y-49606606D01*
X223462451Y-49693593D01*
G37*
G36*
X223462451Y-69874415D02*
G01*
X223375465Y-69961401D01*
X223288479Y-69874415D01*
X223375465Y-69787428D01*
X223462451Y-69874415D01*
G37*
G36*
X223636424Y-48649757D02*
G01*
X223549438Y-48736743D01*
X223462451Y-48649757D01*
X223549438Y-48562771D01*
X223636424Y-48649757D01*
G37*
G36*
X226246013Y-52825099D02*
G01*
X226159027Y-52912086D01*
X226072040Y-52825099D01*
X226159027Y-52738113D01*
X226246013Y-52825099D01*
G37*
G36*
X226941903Y-46388113D02*
G01*
X226854917Y-46475099D01*
X226767931Y-46388113D01*
X226854917Y-46301127D01*
X226941903Y-46388113D01*
G37*
G36*
X227811766Y-52651127D02*
G01*
X227724780Y-52738113D01*
X227637794Y-52651127D01*
X227724780Y-52564141D01*
X227811766Y-52651127D01*
G37*
G36*
X228333684Y-47779894D02*
G01*
X228246698Y-47866880D01*
X228159712Y-47779894D01*
X228246698Y-47692908D01*
X228333684Y-47779894D01*
G37*
G36*
X228681629Y-48127839D02*
G01*
X228594643Y-48214825D01*
X228507657Y-48127839D01*
X228594643Y-48040853D01*
X228681629Y-48127839D01*
G37*
G36*
X230943273Y-86053867D02*
G01*
X230856287Y-86140853D01*
X230769301Y-86053867D01*
X230856287Y-85966880D01*
X230943273Y-86053867D01*
G37*
G36*
X235118616Y-48301812D02*
G01*
X235031629Y-48388798D01*
X234944643Y-48301812D01*
X235031629Y-48214825D01*
X235118616Y-48301812D01*
G37*
G36*
X238250123Y-51607291D02*
G01*
X238163136Y-51694278D01*
X238076150Y-51607291D01*
X238163136Y-51520305D01*
X238250123Y-51607291D01*
G37*
G36*
X238598068Y-85184004D02*
G01*
X238511081Y-85270990D01*
X238424095Y-85184004D01*
X238511081Y-85097017D01*
X238598068Y-85184004D01*
G37*
G36*
X239293958Y-83270305D02*
G01*
X239206972Y-83357291D01*
X239119986Y-83270305D01*
X239206972Y-83183319D01*
X239293958Y-83270305D01*
G37*
G36*
X240163821Y-52129209D02*
G01*
X240076835Y-52216195D01*
X239989849Y-52129209D01*
X240076835Y-52042223D01*
X240163821Y-52129209D01*
G37*
G36*
X192089392Y-103074186D02*
G01*
X192065511Y-103177613D01*
X191973410Y-103190168D01*
X191830211Y-103126514D01*
X191857428Y-103074186D01*
X192063893Y-103053365D01*
X192089392Y-103074186D01*
G37*
G36*
X212444186Y-108467337D02*
G01*
X212420305Y-108570763D01*
X212328205Y-108583319D01*
X212185006Y-108519665D01*
X212212223Y-108467337D01*
X212418688Y-108446516D01*
X212444186Y-108467337D01*
G37*
G36*
X214012801Y-107854808D02*
G01*
X214033541Y-108126707D01*
X213999067Y-108188256D01*
X213919994Y-108136371D01*
X213907693Y-107959917D01*
X213950180Y-107774282D01*
X214012801Y-107854808D01*
G37*
G36*
X214357885Y-106901583D02*
G01*
X214334004Y-107005010D01*
X214241903Y-107017565D01*
X214098704Y-106953911D01*
X214125922Y-106901583D01*
X214332386Y-106880762D01*
X214357885Y-106901583D01*
G37*
G36*
X220446926Y-48446789D02*
G01*
X220423045Y-48550215D01*
X220330944Y-48562771D01*
X220187745Y-48499117D01*
X220214963Y-48446789D01*
X220421427Y-48425968D01*
X220446926Y-48446789D01*
G37*
G36*
X221490762Y-48794734D02*
G01*
X221466881Y-48898161D01*
X221374780Y-48910716D01*
X221231581Y-48847062D01*
X221258798Y-48794734D01*
X221465263Y-48773913D01*
X221490762Y-48794734D01*
G37*
G36*
X240282664Y-79671247D02*
G01*
X240303404Y-79943145D01*
X240268930Y-80004694D01*
X240189857Y-79952809D01*
X240177556Y-79776355D01*
X240220043Y-79590721D01*
X240282664Y-79671247D01*
G37*
G36*
X199775297Y-51068761D02*
G01*
X199962064Y-51243932D01*
X199923752Y-51344639D01*
X199899431Y-51346332D01*
X199752282Y-51222763D01*
X199698578Y-51145479D01*
X199678073Y-51026431D01*
X199775297Y-51068761D01*
G37*
G36*
X200993105Y-52460541D02*
G01*
X201179873Y-52635713D01*
X201141560Y-52736420D01*
X201117239Y-52738113D01*
X200970090Y-52614544D01*
X200916386Y-52537260D01*
X200895881Y-52418212D01*
X200993105Y-52460541D01*
G37*
G36*
X204472557Y-56635884D02*
G01*
X204659325Y-56811056D01*
X204621012Y-56911762D01*
X204596691Y-56913456D01*
X204449542Y-56789886D01*
X204395838Y-56712603D01*
X204375333Y-56593554D01*
X204472557Y-56635884D01*
G37*
G36*
X222990280Y-49385253D02*
G01*
X223027520Y-49432634D01*
X223088754Y-49589106D01*
X222924157Y-49530174D01*
X222766561Y-49432634D01*
X222632814Y-49292972D01*
X222712800Y-49261325D01*
X222990280Y-49385253D01*
G37*
G36*
X224008436Y-49032465D02*
G01*
X224154852Y-49167471D01*
X224309873Y-49392650D01*
X224206473Y-49391198D01*
X223989407Y-49265456D01*
X223820223Y-49081953D01*
X223834137Y-49002957D01*
X224008436Y-49032465D01*
G37*
G36*
X184717938Y-100359094D02*
G01*
X184753547Y-100406606D01*
X184714108Y-100555544D01*
X184589842Y-100580579D01*
X184351810Y-100489748D01*
X184318616Y-100406606D01*
X184443481Y-100237613D01*
X184482321Y-100232634D01*
X184717938Y-100359094D01*
G37*
G36*
X189311172Y-68856711D02*
G01*
X189277413Y-68916630D01*
X189049304Y-69126264D01*
X188788721Y-69286045D01*
X188406972Y-69482423D01*
X188791136Y-69113008D01*
X189115190Y-68839036D01*
X189307460Y-68745961D01*
X189311172Y-68856711D01*
G37*
G36*
X190222096Y-101368842D02*
G01*
X190353808Y-101496006D01*
X190559977Y-101774035D01*
X190493050Y-101889272D01*
X190277177Y-101847058D01*
X190085688Y-101628998D01*
X190059712Y-101485651D01*
X190086398Y-101300410D01*
X190222096Y-101368842D01*
G37*
G36*
X207456972Y-97710031D02*
G01*
X207622939Y-97866364D01*
X207630944Y-97894271D01*
X207496343Y-97968995D01*
X207456972Y-97970990D01*
X207289685Y-97837248D01*
X207282999Y-97786750D01*
X207389581Y-97682847D01*
X207456972Y-97710031D01*
G37*
G36*
X216708990Y-70090027D02*
G01*
X216760523Y-70132068D01*
X217001804Y-70377263D01*
X216946192Y-70477788D01*
X216870105Y-70483319D01*
X216683267Y-70343880D01*
X216605164Y-70197752D01*
X216560554Y-70009937D01*
X216708990Y-70090027D01*
G37*
G36*
X221094012Y-76249634D02*
G01*
X221174315Y-76459361D01*
X221072846Y-76571918D01*
X221059946Y-76572360D01*
X220858919Y-76432963D01*
X220784371Y-76296864D01*
X220779652Y-76092916D01*
X220885364Y-76090271D01*
X221094012Y-76249634D01*
G37*
G36*
X222065615Y-77748584D02*
G01*
X222070670Y-77790168D01*
X221938282Y-77959085D01*
X221896698Y-77964141D01*
X221727781Y-77831752D01*
X221722725Y-77790168D01*
X221855114Y-77621251D01*
X221896698Y-77616195D01*
X222065615Y-77748584D01*
G37*
G36*
X222477969Y-101406077D02*
G01*
X222481940Y-101412156D01*
X222456757Y-101648983D01*
X222329714Y-101799977D01*
X222122221Y-101911041D01*
X222073334Y-101863182D01*
X222155898Y-101577592D01*
X222324921Y-101387534D01*
X222477969Y-101406077D01*
G37*
G36*
X237995026Y-80232999D02*
G01*
X237974533Y-80288163D01*
X237818069Y-80501941D01*
X237632779Y-80592535D01*
X237554232Y-80508045D01*
X237669646Y-80358115D01*
X237819174Y-80222479D01*
X238007785Y-80095546D01*
X237995026Y-80232999D01*
G37*
G36*
X218971222Y-73037726D02*
G01*
X219113136Y-73179894D01*
X219236714Y-73386322D01*
X219085641Y-73440706D01*
X219066065Y-73440853D01*
X218778280Y-73300151D01*
X218702278Y-73179894D01*
X218688537Y-72955370D01*
X218749349Y-72918935D01*
X218971222Y-73037726D01*
G37*
G36*
X222516969Y-102417377D02*
G01*
X222549517Y-102591588D01*
X222274437Y-102902245D01*
X221943242Y-103151210D01*
X221738540Y-103143548D01*
X221645442Y-103031895D01*
X221608516Y-102711054D01*
X221830761Y-102452652D01*
X222167925Y-102363798D01*
X222516969Y-102417377D01*
G37*
G36*
X234714366Y-55139587D02*
G01*
X234770670Y-55173730D01*
X234909785Y-55301496D01*
X234737894Y-55343308D01*
X234650458Y-55345038D01*
X234299636Y-55276090D01*
X234161766Y-55173730D01*
X234174464Y-55030293D01*
X234396267Y-55018912D01*
X234714366Y-55139587D01*
G37*
G36*
X238410540Y-85748848D02*
G01*
X238409203Y-85792908D01*
X238334321Y-86165872D01*
X238250123Y-86401812D01*
X238100605Y-86749757D01*
X238091042Y-86401812D01*
X238165550Y-85974716D01*
X238250123Y-85792908D01*
X238384285Y-85619738D01*
X238410540Y-85748848D01*
G37*
G36*
X239986675Y-80599312D02*
G01*
X239987185Y-80675214D01*
X239893815Y-81101178D01*
X239807927Y-81269620D01*
X239704162Y-81367826D01*
X239715363Y-81165942D01*
X239748079Y-81008661D01*
X239867728Y-80558011D01*
X239950906Y-80416476D01*
X239986675Y-80599312D01*
G37*
G36*
X189477587Y-62869189D02*
G01*
X189521746Y-63052698D01*
X189430711Y-63471318D01*
X189428141Y-63480921D01*
X189273900Y-63815690D01*
X189119875Y-63825939D01*
X189024556Y-63530182D01*
X189015876Y-63350442D01*
X189093679Y-62936088D01*
X189276835Y-62828524D01*
X189477587Y-62869189D01*
G37*
G36*
X189186989Y-54591934D02*
G01*
X189479337Y-54877451D01*
X189596599Y-54999757D01*
X189913541Y-55357170D01*
X190007985Y-55513165D01*
X189873568Y-55447642D01*
X189692986Y-55304209D01*
X189434174Y-55050955D01*
X189188173Y-54759840D01*
X189038867Y-54536802D01*
X189038632Y-54477839D01*
X189186989Y-54591934D01*
G37*
G36*
X226385559Y-51283122D02*
G01*
X226683803Y-51550479D01*
X226987039Y-51877037D01*
X227204447Y-52165403D01*
X227248836Y-52315199D01*
X227099792Y-52243310D01*
X226797374Y-51982484D01*
X226591432Y-51778658D01*
X226288709Y-51433109D01*
X226158242Y-51213554D01*
X226183128Y-51172360D01*
X226385559Y-51283122D01*
G37*
G36*
X213793249Y-67596518D02*
G01*
X214070385Y-67721328D01*
X214157913Y-67866650D01*
X214151765Y-67878830D01*
X213920205Y-68042332D01*
X213873423Y-68047702D01*
X213779101Y-67940512D01*
X213806972Y-67873730D01*
X213750217Y-67740062D01*
X213527285Y-67699757D01*
X213268938Y-67660798D01*
X213247957Y-67591877D01*
X213470956Y-67538080D01*
X213793249Y-67596518D01*
G37*
G36*
X236496173Y-81359500D02*
G01*
X236510396Y-81447899D01*
X236366719Y-81636757D01*
X236092365Y-81785113D01*
X235729459Y-81974334D01*
X235560179Y-82128752D01*
X235302496Y-82296955D01*
X235184597Y-82313456D01*
X235122080Y-82218344D01*
X235329053Y-81950796D01*
X235494595Y-81791538D01*
X235965236Y-81424681D01*
X236315383Y-81275158D01*
X236496173Y-81359500D01*
G37*
G36*
X238036161Y-87117778D02*
G01*
X237932534Y-87524144D01*
X237760844Y-88009695D01*
X237560827Y-88456466D01*
X237442491Y-88658672D01*
X237264982Y-88878860D01*
X237206287Y-88891619D01*
X237264697Y-88646267D01*
X237411633Y-88231433D01*
X237604650Y-87749054D01*
X237801306Y-87301063D01*
X237959155Y-86989396D01*
X238031989Y-86908565D01*
X238036161Y-87117778D01*
G37*
G36*
X230524863Y-56949076D02*
G01*
X230829912Y-56970079D01*
X230842138Y-57007669D01*
X230589091Y-57068455D01*
X230508342Y-57084117D01*
X229913577Y-57185258D01*
X229194417Y-57291428D01*
X228855602Y-57336073D01*
X228325494Y-57395555D01*
X228089290Y-57392752D01*
X228096591Y-57315572D01*
X228246698Y-57190006D01*
X228620014Y-57029216D01*
X229240867Y-56949533D01*
X229899438Y-56938050D01*
X230524863Y-56949076D01*
G37*
G36*
X208261015Y-97292666D02*
G01*
X208440210Y-97551612D01*
X208340161Y-97720374D01*
X208028446Y-97736714D01*
X207841149Y-97679378D01*
X207706758Y-97543385D01*
X207760410Y-97449072D01*
X207978890Y-97449072D01*
X208042543Y-97592271D01*
X208094871Y-97565054D01*
X208115692Y-97358589D01*
X208094871Y-97333090D01*
X207991445Y-97356971D01*
X207978890Y-97449072D01*
X207760410Y-97449072D01*
X207820738Y-97343022D01*
X208060729Y-97192118D01*
X208261015Y-97292666D01*
G37*
G36*
X225921066Y-53376875D02*
G01*
X225473995Y-53944322D01*
X224766242Y-54496754D01*
X223883610Y-54987303D01*
X222911900Y-55369100D01*
X221936916Y-55595280D01*
X221835841Y-55608330D01*
X221453603Y-55649444D01*
X221344841Y-55639538D01*
X221528259Y-55560281D01*
X222022561Y-55393347D01*
X222071853Y-55377057D01*
X223243574Y-54927306D01*
X224311428Y-54399042D01*
X225180337Y-53842456D01*
X225528451Y-53552422D01*
X225862383Y-53255847D01*
X225983819Y-53203640D01*
X225921066Y-53376875D01*
G37*
G36*
X190307279Y-55785137D02*
G01*
X190701247Y-56022066D01*
X191227538Y-56359124D01*
X191342781Y-56435031D01*
X191927260Y-56821057D01*
X192432700Y-57153555D01*
X192759608Y-57367091D01*
X192782170Y-57381649D01*
X192974569Y-57543223D01*
X192895094Y-57583943D01*
X192597300Y-57506086D01*
X192234369Y-57358366D01*
X191925120Y-57179289D01*
X191502568Y-56887710D01*
X191038324Y-56540040D01*
X190604000Y-56192689D01*
X190271205Y-55902071D01*
X190111552Y-55724594D01*
X190123641Y-55695647D01*
X190307279Y-55785137D01*
G37*
G36*
X229438737Y-48855108D02*
G01*
X229826906Y-49194070D01*
X230083350Y-49431442D01*
X230397167Y-49720588D01*
X230809567Y-50084064D01*
X230866226Y-50132848D01*
X231270702Y-50504518D01*
X231588270Y-50837339D01*
X231616972Y-50872232D01*
X231756687Y-51100204D01*
X231613618Y-51169253D01*
X231486493Y-51172360D01*
X231192253Y-51114873D01*
X231117246Y-51027785D01*
X230981254Y-50845827D01*
X230724497Y-50673017D01*
X230373443Y-50394098D01*
X229995423Y-49966058D01*
X229913765Y-49852818D01*
X229616776Y-49493568D01*
X229368283Y-49317184D01*
X229306171Y-49315530D01*
X229155294Y-49226063D01*
X229090792Y-48964585D01*
X229090062Y-48676155D01*
X229196732Y-48664126D01*
X229438737Y-48855108D01*
G37*
G36*
X232071026Y-51420738D02*
G01*
X232400172Y-51623777D01*
X232755240Y-51941630D01*
X232969768Y-52200250D01*
X233238544Y-52477854D01*
X233433892Y-52564141D01*
X233681009Y-52696966D01*
X233860433Y-52912086D01*
X233988475Y-53175464D01*
X233887420Y-53257500D01*
X233823940Y-53260031D01*
X233534306Y-53124637D01*
X233392825Y-52955579D01*
X233249987Y-52789365D01*
X233210207Y-52881019D01*
X233153024Y-53007685D01*
X232953674Y-52859625D01*
X232943958Y-52849953D01*
X232731969Y-52586497D01*
X232682999Y-52466037D01*
X232567309Y-52277065D01*
X232283364Y-51973602D01*
X232228708Y-51922058D01*
X231954088Y-51622296D01*
X231860538Y-51424075D01*
X231869512Y-51405938D01*
X232071026Y-51420738D01*
G37*
G36*
X207458466Y-47572870D02*
G01*
X207267882Y-47654348D01*
X207030093Y-47715028D01*
X206637041Y-47784454D01*
X205973795Y-47877699D01*
X205110917Y-47986981D01*
X204118971Y-48104517D01*
X203068521Y-48222526D01*
X202030128Y-48333225D01*
X201074357Y-48428831D01*
X200271770Y-48501562D01*
X199692930Y-48543636D01*
X199454232Y-48550574D01*
X199163527Y-48530264D01*
X199198309Y-48465159D01*
X199367246Y-48386458D01*
X199628933Y-48328688D01*
X200173831Y-48246800D01*
X200938578Y-48147577D01*
X201859816Y-48037807D01*
X202874182Y-47924274D01*
X203918318Y-47813764D01*
X204928864Y-47713061D01*
X205842458Y-47628952D01*
X206595742Y-47568222D01*
X207125355Y-47537655D01*
X207304825Y-47536411D01*
X207458466Y-47572870D01*
G37*
G36*
X229103846Y-45332694D02*
G01*
X229668515Y-45443210D01*
X230118592Y-45608414D01*
X230248367Y-45693113D01*
X230530709Y-45901140D01*
X230666391Y-45953182D01*
X230918414Y-46030519D01*
X231394785Y-46235683D01*
X232015210Y-46528404D01*
X232699389Y-46868412D01*
X233367027Y-47215434D01*
X233937827Y-47529202D01*
X234331493Y-47769444D01*
X234422725Y-47837066D01*
X234688363Y-48070401D01*
X234748589Y-48161577D01*
X234575552Y-48104273D01*
X234141406Y-47892167D01*
X233726835Y-47679081D01*
X232754887Y-47218056D01*
X231656735Y-46763638D01*
X230581605Y-46374283D01*
X229785427Y-46135079D01*
X229219269Y-45928416D01*
X228732892Y-45652930D01*
X228654605Y-45590491D01*
X228246698Y-45232342D01*
X229103846Y-45332694D01*
G37*
G36*
X221128161Y-46162492D02*
G01*
X221191811Y-46212307D01*
X221200807Y-46269591D01*
X221037372Y-46333355D01*
X220587634Y-46414608D01*
X219912444Y-46507379D01*
X219072653Y-46605701D01*
X218129110Y-46703605D01*
X217142667Y-46795120D01*
X216174174Y-46874278D01*
X215284483Y-46935110D01*
X214534443Y-46971647D01*
X213984906Y-46977920D01*
X213980944Y-46977818D01*
X213495774Y-46963083D01*
X213279177Y-46945685D01*
X213350681Y-46917620D01*
X213729814Y-46870882D01*
X214415876Y-46799532D01*
X215175508Y-46720722D01*
X216155387Y-46617221D01*
X217229902Y-46502379D01*
X218273441Y-46389547D01*
X218288704Y-46387885D01*
X219354292Y-46272982D01*
X220122570Y-46194960D01*
X220642001Y-46151850D01*
X220961044Y-46141684D01*
X221128161Y-46162492D01*
G37*
G36*
X203542588Y-53631989D02*
G01*
X203767421Y-53739171D01*
X204226094Y-53959770D01*
X204839271Y-54255592D01*
X205195328Y-54427668D01*
X206718435Y-55040757D01*
X208493412Y-55543292D01*
X210436521Y-55916557D01*
X212464026Y-56141838D01*
X213012331Y-56174731D01*
X213881353Y-56227223D01*
X214481484Y-56285231D01*
X214786710Y-56345315D01*
X214771018Y-56404039D01*
X214763821Y-56406175D01*
X214466210Y-56476326D01*
X214133592Y-56511687D01*
X213691934Y-56511680D01*
X213067206Y-56475723D01*
X212185376Y-56403236D01*
X211971519Y-56384294D01*
X210765568Y-56231415D01*
X209432064Y-55986656D01*
X208062629Y-55673318D01*
X206748883Y-55314706D01*
X205582445Y-54934123D01*
X204654937Y-54554873D01*
X204522669Y-54489691D01*
X204192418Y-54291828D01*
X203855136Y-54047217D01*
X203574946Y-53811976D01*
X203415976Y-53642225D01*
X203442351Y-53594080D01*
X203542588Y-53631989D01*
G37*
G36*
X188118983Y-50913002D02*
G01*
X188055190Y-51246863D01*
X187951797Y-51585946D01*
X187848254Y-51784599D01*
X187816001Y-51792347D01*
X187628301Y-51850405D01*
X187245444Y-52070134D01*
X186750285Y-52403978D01*
X186749854Y-52404287D01*
X186191846Y-52786299D01*
X185686824Y-53102021D01*
X185379921Y-53265831D01*
X185015503Y-53475019D01*
X184518971Y-53823864D01*
X184162113Y-54103498D01*
X183664687Y-54474320D01*
X183101781Y-54837801D01*
X182570007Y-55137664D01*
X182165978Y-55317634D01*
X182030679Y-55345038D01*
X181851322Y-55262990D01*
X181733254Y-55192385D01*
X181747415Y-55075363D01*
X181986859Y-54833918D01*
X182467871Y-54455612D01*
X183206734Y-53928005D01*
X184219734Y-53238660D01*
X184777775Y-52866792D01*
X185720558Y-52244575D01*
X186561377Y-51695167D01*
X187258814Y-51245178D01*
X187771452Y-50921218D01*
X188057872Y-50749894D01*
X188103728Y-50730014D01*
X188118983Y-50913002D01*
G37*
G36*
X233280838Y-46184493D02*
G01*
X233735220Y-46245761D01*
X234378618Y-46355256D01*
X234879800Y-46450366D01*
X235577211Y-46586970D01*
X236535171Y-46773417D01*
X237672520Y-46993973D01*
X238908098Y-47232906D01*
X240160744Y-47474482D01*
X240463862Y-47532829D01*
X241737826Y-47781929D01*
X242703025Y-47981216D01*
X243393624Y-48139742D01*
X243843786Y-48266559D01*
X244087676Y-48370721D01*
X244159458Y-48461280D01*
X244139477Y-48506767D01*
X243989589Y-48642320D01*
X243779079Y-48703327D01*
X243439384Y-48686170D01*
X242901942Y-48587232D01*
X242098188Y-48402896D01*
X242077520Y-48397979D01*
X241459432Y-48260096D01*
X240589176Y-48078480D01*
X239556967Y-47871341D01*
X238453023Y-47656891D01*
X237728205Y-47520056D01*
X236529564Y-47281459D01*
X235444723Y-47036474D01*
X234515602Y-46797190D01*
X233784123Y-46575698D01*
X233292208Y-46384087D01*
X233081778Y-46234447D01*
X233091286Y-46182794D01*
X233280838Y-46184493D01*
G37*
G36*
X214715631Y-47566845D02*
G01*
X216216344Y-47660067D01*
X217592291Y-47807575D01*
X218766234Y-48006319D01*
X219548068Y-48213431D01*
X219877187Y-48327582D01*
X219896218Y-48356580D01*
X219590202Y-48314318D01*
X219461081Y-48294235D01*
X218014834Y-48075145D01*
X216833418Y-47914160D01*
X215839694Y-47805173D01*
X214956524Y-47742083D01*
X214106770Y-47718783D01*
X213213294Y-47729170D01*
X212589164Y-47750425D01*
X210332654Y-47914504D01*
X208358936Y-48212768D01*
X206678153Y-48642480D01*
X205300449Y-49200909D01*
X204235969Y-49885319D01*
X204043564Y-50053696D01*
X203645313Y-50398604D01*
X203369563Y-50589299D01*
X203281629Y-50592170D01*
X203398615Y-50386449D01*
X203699318Y-50038833D01*
X203967484Y-49770157D01*
X204722018Y-49219161D01*
X205759862Y-48708193D01*
X207016700Y-48262409D01*
X208428214Y-47906971D01*
X209009889Y-47797735D01*
X210237281Y-47643351D01*
X211648861Y-47555440D01*
X213167390Y-47530953D01*
X214715631Y-47566845D01*
G37*
G36*
X214399900Y-43041481D02*
G01*
X215531959Y-43069098D01*
X216520462Y-43111449D01*
X217314308Y-43167675D01*
X217862393Y-43236918D01*
X218113267Y-43317970D01*
X218051915Y-43377316D01*
X217723980Y-43422828D01*
X217113008Y-43455085D01*
X216202546Y-43474663D01*
X214976138Y-43482139D01*
X213530305Y-43478699D01*
X210957982Y-43490758D01*
X208658456Y-43560875D01*
X206560174Y-43697242D01*
X204591578Y-43908051D01*
X202681114Y-44201494D01*
X200757225Y-44585763D01*
X198748358Y-45069050D01*
X198062451Y-45249553D01*
X197357021Y-45420870D01*
X196715119Y-45546115D01*
X196265411Y-45600523D01*
X196235739Y-45601115D01*
X195713821Y-45602944D01*
X196235739Y-45257291D01*
X196662790Y-45023105D01*
X197009930Y-44911904D01*
X197036192Y-44910492D01*
X197313596Y-44869761D01*
X197844314Y-44760599D01*
X198544630Y-44601037D01*
X199123863Y-44460857D01*
X201325243Y-43992549D01*
X203821289Y-43602777D01*
X206566273Y-43298000D01*
X208374882Y-43154435D01*
X209458173Y-43095512D01*
X210653423Y-43055613D01*
X211909529Y-43033880D01*
X213175390Y-43029456D01*
X214399900Y-43041481D01*
G37*
G36*
X231963212Y-59907344D02*
G01*
X231775153Y-60174690D01*
X231660283Y-60286809D01*
X231254260Y-60515197D01*
X230544617Y-60761253D01*
X229574749Y-61017225D01*
X228388049Y-61275356D01*
X227027912Y-61527892D01*
X225537733Y-61767078D01*
X223960907Y-61985161D01*
X222340829Y-62174384D01*
X220720892Y-62326994D01*
X219896013Y-62389100D01*
X219139487Y-62443844D01*
X218471221Y-62497703D01*
X218000035Y-62541707D01*
X217895328Y-62553976D01*
X217494905Y-62563669D01*
X216892548Y-62530435D01*
X216329575Y-62474043D01*
X215665595Y-62374106D01*
X215083771Y-62253865D01*
X214763821Y-62158436D01*
X214687541Y-62089985D01*
X214855843Y-62038729D01*
X215293932Y-62002696D01*
X216027013Y-61979915D01*
X217080291Y-61968411D01*
X217199438Y-61967826D01*
X219417172Y-61909380D01*
X221692668Y-61760678D01*
X223899770Y-61532754D01*
X225912319Y-61236642D01*
X226246013Y-61176611D01*
X227130446Y-61001571D01*
X228097894Y-60792312D01*
X229077192Y-60566252D01*
X229997177Y-60340806D01*
X230786684Y-60133391D01*
X231374547Y-59961422D01*
X231682657Y-59846099D01*
X231933478Y-59776191D01*
X231963212Y-59907344D01*
G37*
G36*
X234456076Y-53712515D02*
G01*
X234849698Y-53992450D01*
X235728167Y-54755558D01*
X236401189Y-55386444D01*
X236849744Y-55865112D01*
X237054813Y-56171566D01*
X237026316Y-56280863D01*
X236727127Y-56341824D01*
X236166978Y-56428343D01*
X235430977Y-56529890D01*
X234604232Y-56635930D01*
X233771852Y-56735933D01*
X233018944Y-56819364D01*
X232430617Y-56875693D01*
X232091979Y-56894386D01*
X232074095Y-56893720D01*
X231726150Y-56873093D01*
X232074095Y-56789402D01*
X232442867Y-56646647D01*
X232587314Y-56548624D01*
X232853714Y-56449878D01*
X233316648Y-56395321D01*
X233478924Y-56391538D01*
X234334888Y-56351727D01*
X234917229Y-56237249D01*
X235199607Y-56055534D01*
X235209246Y-55903368D01*
X235223244Y-55607052D01*
X235308984Y-55511541D01*
X235428317Y-55308220D01*
X235290194Y-55103835D01*
X234969429Y-55000595D01*
X234934376Y-54999757D01*
X234657299Y-54924923D01*
X234596698Y-54825784D01*
X234730028Y-54657976D01*
X234777711Y-54651812D01*
X234791606Y-54543301D01*
X234603518Y-54272993D01*
X234515493Y-54173807D01*
X234244898Y-53817692D01*
X234237526Y-53657181D01*
X234456076Y-53712515D01*
G37*
G36*
X190716104Y-49213110D02*
G01*
X191024595Y-49560172D01*
X191446320Y-50068567D01*
X191804884Y-50518272D01*
X192256081Y-51090408D01*
X192873310Y-51869326D01*
X193605075Y-52790242D01*
X194399882Y-53788373D01*
X195206237Y-54798934D01*
X195434872Y-55085053D01*
X196158774Y-55990846D01*
X196815505Y-56812997D01*
X197371971Y-57510040D01*
X197795074Y-58040509D01*
X198051718Y-58362940D01*
X198109256Y-58435716D01*
X198219575Y-58636358D01*
X198124369Y-58653571D01*
X197892720Y-58517603D01*
X197593709Y-58258700D01*
X197513250Y-58174757D01*
X197131496Y-57728210D01*
X196703382Y-57183460D01*
X196567737Y-57000442D01*
X196256152Y-56586269D01*
X195783283Y-55976349D01*
X195191575Y-55223688D01*
X194523476Y-54381294D01*
X193821434Y-53502172D01*
X193127895Y-52639330D01*
X192485306Y-51845775D01*
X191936115Y-51174513D01*
X191522768Y-50678552D01*
X191308608Y-50432976D01*
X190844529Y-50044704D01*
X190457216Y-49988692D01*
X190115363Y-50270642D01*
X189876162Y-50693935D01*
X189532907Y-51433319D01*
X189601535Y-50601903D01*
X189732245Y-49921982D01*
X190012615Y-49476335D01*
X190065529Y-49427588D01*
X190379622Y-49183545D01*
X190570202Y-49084688D01*
X190716104Y-49213110D01*
G37*
G36*
X204115228Y-40561933D02*
G01*
X204454765Y-40649300D01*
X205059144Y-40782971D01*
X205850950Y-40946613D01*
X206752764Y-41123894D01*
X207022040Y-41175189D01*
X208136272Y-41388221D01*
X209351708Y-41624440D01*
X210518795Y-41854581D01*
X211458342Y-42043334D01*
X213459027Y-42450958D01*
X212221471Y-42462344D01*
X211421331Y-42439432D01*
X210599582Y-42368393D01*
X210046813Y-42284896D01*
X208348590Y-41946476D01*
X206958512Y-41679107D01*
X205845031Y-41478516D01*
X204976599Y-41340428D01*
X204321668Y-41260566D01*
X203848689Y-41234658D01*
X203526114Y-41258426D01*
X203322395Y-41327597D01*
X203267931Y-41366318D01*
X202994867Y-41560402D01*
X202878816Y-41603867D01*
X202695997Y-41697014D01*
X202295503Y-41947957D01*
X201743995Y-42313944D01*
X201337033Y-42592637D01*
X200247997Y-43298106D01*
X199363337Y-43759835D01*
X198653665Y-43991808D01*
X198323410Y-44026557D01*
X197975465Y-44028902D01*
X198323410Y-43837265D01*
X198585292Y-43684809D01*
X198980338Y-43440543D01*
X199542681Y-43082622D01*
X200306453Y-42589203D01*
X201305785Y-41938442D01*
X202027557Y-41466708D01*
X202758934Y-40998325D01*
X203271437Y-40702887D01*
X203630112Y-40552203D01*
X203900004Y-40518083D01*
X204115228Y-40561933D01*
G37*
G36*
X234024691Y-58015473D02*
G01*
X234018565Y-58078617D01*
X233934061Y-58173492D01*
X233860181Y-58246450D01*
X233696499Y-58355171D01*
X233409490Y-58459244D01*
X232967065Y-58563680D01*
X232337136Y-58673488D01*
X231487617Y-58793677D01*
X230386417Y-58929258D01*
X229001450Y-59085240D01*
X227376835Y-59258646D01*
X224744587Y-59545786D01*
X221884270Y-59877995D01*
X218910752Y-60241536D01*
X215938905Y-60622674D01*
X215633684Y-60662885D01*
X214053326Y-60866561D01*
X212777410Y-61018396D01*
X211766773Y-61121322D01*
X210982250Y-61178274D01*
X210384677Y-61192183D01*
X209934891Y-61165985D01*
X209631629Y-61112431D01*
X209334021Y-61030507D01*
X209301405Y-60974015D01*
X209563942Y-60913957D01*
X209892588Y-60861526D01*
X210375482Y-60793394D01*
X211103539Y-60698777D01*
X211976198Y-60590438D01*
X212850123Y-60486134D01*
X214250979Y-60321539D01*
X215876127Y-60129050D01*
X217665617Y-59915887D01*
X219559503Y-59689272D01*
X221497835Y-59456427D01*
X223420665Y-59224574D01*
X225268047Y-59000934D01*
X226980030Y-58792730D01*
X228496668Y-58607183D01*
X229758012Y-58451514D01*
X230279504Y-58386478D01*
X231544650Y-58227915D01*
X232502559Y-58110033D01*
X233191374Y-58031339D01*
X233649239Y-57990342D01*
X233914297Y-57985550D01*
X234024691Y-58015473D01*
G37*
G36*
X231662274Y-55272303D02*
G01*
X231639164Y-55318294D01*
X231336836Y-55417873D01*
X230808696Y-55519370D01*
X230247383Y-55591963D01*
X229602914Y-55660611D01*
X228737310Y-55757140D01*
X227774847Y-55867524D01*
X227028890Y-55955165D01*
X226120558Y-56062358D01*
X224981770Y-56195471D01*
X223727786Y-56341102D01*
X222473866Y-56485846D01*
X221809712Y-56562086D01*
X220512551Y-56711254D01*
X219060552Y-56879243D01*
X217600378Y-57049025D01*
X216278689Y-57203572D01*
X215807657Y-57258959D01*
X214586164Y-57402662D01*
X213165653Y-57569401D01*
X211692717Y-57741991D01*
X210313950Y-57903245D01*
X209805602Y-57962595D01*
X208775571Y-58085258D01*
X207845555Y-58200661D01*
X207078894Y-58300579D01*
X206538924Y-58376785D01*
X206301636Y-58417683D01*
X205960987Y-58417949D01*
X205818377Y-58328123D01*
X205792309Y-58258664D01*
X205830964Y-58197179D01*
X205969841Y-58137824D01*
X206244439Y-58074758D01*
X206690256Y-58002136D01*
X207342793Y-57914117D01*
X208237548Y-57804857D01*
X209410021Y-57668513D01*
X210762451Y-57514366D01*
X213496201Y-57203864D01*
X215907191Y-56929548D01*
X218018429Y-56688754D01*
X219852925Y-56478814D01*
X221433686Y-56297064D01*
X222783723Y-56140837D01*
X223926043Y-56007468D01*
X224883656Y-55894290D01*
X225679570Y-55798638D01*
X226336794Y-55717846D01*
X226878337Y-55649248D01*
X227028890Y-55629707D01*
X228214669Y-55483891D01*
X229290632Y-55368818D01*
X230215078Y-55287306D01*
X230946302Y-55242172D01*
X231442602Y-55236232D01*
X231662274Y-55272303D01*
G37*
G36*
X224178275Y-43979331D02*
G01*
X224298957Y-44030191D01*
X224303079Y-44038763D01*
X224480973Y-44304356D01*
X224744707Y-44567550D01*
X225158430Y-44919566D01*
X225550123Y-45252675D01*
X225985054Y-45622447D01*
X225428283Y-45352883D01*
X224976235Y-45169220D01*
X224623295Y-45084049D01*
X224601913Y-45083319D01*
X224364762Y-45001757D01*
X224332314Y-44928206D01*
X224162446Y-44748216D01*
X223659694Y-44625872D01*
X222834337Y-44561332D01*
X221696656Y-44554756D01*
X220256929Y-44606301D01*
X218525437Y-44716128D01*
X217248301Y-44818849D01*
X215446478Y-44977410D01*
X213732720Y-45134598D01*
X212149130Y-45286170D01*
X210737809Y-45427881D01*
X209540860Y-45555488D01*
X208600384Y-45664746D01*
X207958483Y-45751413D01*
X207891903Y-45761981D01*
X207150196Y-45858036D01*
X206362202Y-45924020D01*
X206152177Y-45933897D01*
X205624792Y-45966512D01*
X204861066Y-46032157D01*
X203969930Y-46120791D01*
X203194643Y-46206585D01*
X202217519Y-46316393D01*
X201214072Y-46422621D01*
X200319534Y-46511271D01*
X199802177Y-46557743D01*
X198287720Y-46704981D01*
X196792484Y-46889746D01*
X195448170Y-47094890D01*
X194878375Y-47198843D01*
X194315832Y-47320997D01*
X194020330Y-47439725D01*
X193915402Y-47606992D01*
X193921526Y-47849085D01*
X194111239Y-48271778D01*
X194527199Y-48545386D01*
X194931511Y-48812741D01*
X195165682Y-49132873D01*
X195172434Y-49156043D01*
X195379763Y-49492538D01*
X195759345Y-49814751D01*
X195793646Y-49835661D01*
X196145541Y-50075771D01*
X196318926Y-50257314D01*
X196322725Y-50274706D01*
X196423080Y-50523966D01*
X196684375Y-50956961D01*
X197046955Y-51488346D01*
X197451162Y-52032778D01*
X197837341Y-52504912D01*
X198018958Y-52701351D01*
X198363021Y-53125886D01*
X198563461Y-53522693D01*
X198584369Y-53643796D01*
X198709795Y-53972721D01*
X199042366Y-54423795D01*
X199367246Y-54765693D01*
X199780979Y-55207417D01*
X200064726Y-55596986D01*
X200150123Y-55813680D01*
X200266649Y-56122021D01*
X200548284Y-56512871D01*
X200893112Y-56869884D01*
X201199220Y-57076712D01*
X201270000Y-57092135D01*
X201495425Y-57205160D01*
X201864641Y-57488092D01*
X202096353Y-57693336D01*
X202551521Y-58207122D01*
X202761216Y-58716202D01*
X202792244Y-58939346D01*
X202854660Y-59366706D01*
X203014542Y-59552110D01*
X203377631Y-59601450D01*
X203455602Y-59603648D01*
X203935789Y-59653383D01*
X204279896Y-59754282D01*
X204295762Y-59763502D01*
X204616126Y-59829114D01*
X205193679Y-59826970D01*
X205946736Y-59768250D01*
X206793614Y-59664136D01*
X207652628Y-59525811D01*
X208442096Y-59364456D01*
X208819318Y-59262086D01*
X209544643Y-59262086D01*
X209631629Y-59349072D01*
X209718616Y-59262086D01*
X209631629Y-59175099D01*
X209544643Y-59262086D01*
X208819318Y-59262086D01*
X209080333Y-59191252D01*
X209402447Y-59064444D01*
X209849711Y-58933905D01*
X210462886Y-58864951D01*
X210794228Y-58862347D01*
X211463314Y-58857721D01*
X212098152Y-58809333D01*
X212328205Y-58774211D01*
X212676491Y-58718755D01*
X212702192Y-58756599D01*
X212589164Y-58815369D01*
X212442016Y-58914189D01*
X212570856Y-58966459D01*
X213011039Y-58986070D01*
X213024095Y-58986235D01*
X213442380Y-58967709D01*
X213628243Y-58909840D01*
X213606174Y-58867983D01*
X213655793Y-58796130D01*
X213981644Y-58733128D01*
X214480569Y-58694481D01*
X215205451Y-58634300D01*
X216082362Y-58519921D01*
X216924398Y-58375810D01*
X216943011Y-58372112D01*
X217700116Y-58240137D01*
X218418213Y-58147136D01*
X218956738Y-58110860D01*
X219008595Y-58111290D01*
X219507237Y-58076007D01*
X220203208Y-57968234D01*
X220958955Y-57809924D01*
X221076674Y-57781261D01*
X221906079Y-57608171D01*
X222773131Y-57480024D01*
X223497291Y-57423209D01*
X223529845Y-57422673D01*
X224316753Y-57390581D01*
X225146861Y-57322763D01*
X225544861Y-57274985D01*
X226135343Y-57213096D01*
X226619486Y-57200497D01*
X226806162Y-57220990D01*
X227092974Y-57342200D01*
X227046254Y-57461133D01*
X226680379Y-57570341D01*
X226009725Y-57662376D01*
X225941561Y-57668940D01*
X225208582Y-57740742D01*
X224295546Y-57834572D01*
X223368133Y-57933309D01*
X223114506Y-57961039D01*
X222154238Y-58065647D01*
X221101521Y-58178525D01*
X220154167Y-58278496D01*
X219982999Y-58296295D01*
X219262062Y-58375530D01*
X218306048Y-58487036D01*
X217224854Y-58617681D01*
X216128374Y-58754334D01*
X215807657Y-58795208D01*
X214183102Y-59002090D01*
X212688962Y-59189661D01*
X211370469Y-59352379D01*
X210272855Y-59484705D01*
X209441355Y-59581101D01*
X209022725Y-59626168D01*
X208445893Y-59687958D01*
X207658023Y-59777360D01*
X206742961Y-59884301D01*
X205784557Y-59998710D01*
X204866660Y-60110513D01*
X204073117Y-60209638D01*
X203487777Y-60286011D01*
X203261127Y-60318302D01*
X202797662Y-60344750D01*
X202567393Y-60220930D01*
X202527203Y-60143356D01*
X202489898Y-59749554D01*
X202522826Y-59610031D01*
X202510421Y-59386855D01*
X202420112Y-59349072D01*
X202305933Y-59457462D01*
X202338729Y-59545614D01*
X202352592Y-59684223D01*
X202285810Y-59676094D01*
X202092029Y-59511071D01*
X201711857Y-59107689D01*
X201174898Y-58500374D01*
X200510755Y-57723554D01*
X199749030Y-56811658D01*
X198919326Y-55799111D01*
X198906017Y-55782634D01*
X199454232Y-55782634D01*
X199541218Y-55869620D01*
X199628205Y-55782634D01*
X199541218Y-55695647D01*
X199454232Y-55782634D01*
X198906017Y-55782634D01*
X198410396Y-55169054D01*
X197922640Y-54564825D01*
X198410396Y-54564825D01*
X198497383Y-54651812D01*
X198584369Y-54564825D01*
X198497383Y-54477839D01*
X198410396Y-54564825D01*
X197922640Y-54564825D01*
X197839324Y-54461613D01*
X197292256Y-53789747D01*
X196837163Y-53236609D01*
X196575320Y-52924126D01*
X196215468Y-52488281D01*
X195735915Y-51888362D01*
X195226995Y-51237696D01*
X195109599Y-51085373D01*
X194666387Y-50516209D01*
X194288316Y-50044918D01*
X194036096Y-49746645D01*
X193985118Y-49693593D01*
X193798296Y-49485631D01*
X193480160Y-49098886D01*
X193089388Y-48608545D01*
X192684658Y-48089796D01*
X192324647Y-47617824D01*
X192068033Y-47267817D01*
X191973410Y-47115870D01*
X192143011Y-47063817D01*
X192636810Y-46984995D01*
X193432307Y-46882025D01*
X194506999Y-46757530D01*
X195838382Y-46614132D01*
X197403956Y-46454454D01*
X198932314Y-46304972D01*
X201679695Y-46040084D01*
X204672737Y-45749958D01*
X207810927Y-45444411D01*
X210993752Y-45133262D01*
X214120698Y-44826329D01*
X217091253Y-44533430D01*
X218758494Y-44368334D01*
X220361569Y-44212495D01*
X221647194Y-44095289D01*
X222643524Y-44015043D01*
X223378712Y-43970084D01*
X223880911Y-43958738D01*
X224178275Y-43979331D01*
G37*
G36*
X238685078Y-63785610D02*
G01*
X238862710Y-64057395D01*
X239140391Y-64539492D01*
X239531621Y-65256185D01*
X240049903Y-66231758D01*
X240708735Y-67490497D01*
X240817668Y-67699757D01*
X241336220Y-68688633D01*
X241902462Y-69755715D01*
X242446544Y-70770035D01*
X242883159Y-71572540D01*
X243259719Y-72273608D01*
X243563642Y-72870850D01*
X243760294Y-73294134D01*
X243817246Y-73463977D01*
X243766562Y-73699670D01*
X243629186Y-74190204D01*
X243427130Y-74859893D01*
X243223280Y-75506262D01*
X242882860Y-76569706D01*
X242507065Y-77749997D01*
X242114000Y-78989638D01*
X241721772Y-80231132D01*
X241348486Y-81416982D01*
X241012250Y-82489691D01*
X240731168Y-83391761D01*
X240523347Y-84065696D01*
X240422247Y-84401127D01*
X240304877Y-84786008D01*
X240099056Y-85445405D01*
X239822708Y-86322547D01*
X239493756Y-87360664D01*
X239130124Y-88502985D01*
X238884335Y-89272360D01*
X238488063Y-90514835D01*
X238096931Y-91748178D01*
X237733399Y-92901042D01*
X237419929Y-93902081D01*
X237178983Y-94679949D01*
X237090592Y-94969962D01*
X236848006Y-95701384D01*
X236623814Y-96245935D01*
X236444788Y-96542677D01*
X236383637Y-96579209D01*
X236178697Y-96486380D01*
X236162451Y-96430640D01*
X236053572Y-96219084D01*
X235783033Y-95878084D01*
X235692504Y-95778243D01*
X235341977Y-95367329D01*
X234899229Y-94801238D01*
X234518189Y-94283086D01*
X234260411Y-93924259D01*
X236029880Y-93924259D01*
X236070880Y-94248657D01*
X236134098Y-94411798D01*
X236342429Y-94717650D01*
X236538602Y-94801086D01*
X236682361Y-94614814D01*
X236885601Y-94180469D01*
X237109392Y-93583717D01*
X237157522Y-93439132D01*
X237428165Y-92591329D01*
X237730152Y-91621324D01*
X237994489Y-90751127D01*
X238229013Y-89970683D01*
X238463435Y-89199815D01*
X238651384Y-88590896D01*
X238669546Y-88532976D01*
X238805611Y-88061613D01*
X238868648Y-87762404D01*
X238861871Y-87706606D01*
X238756098Y-87849439D01*
X238541425Y-88225188D01*
X238262890Y-88754729D01*
X238242964Y-88793935D01*
X237873689Y-89475239D01*
X237473683Y-90142286D01*
X237187963Y-90567934D01*
X236891423Y-91020027D01*
X236710458Y-91387965D01*
X236684369Y-91501946D01*
X236630479Y-91785734D01*
X236489645Y-92285306D01*
X236305574Y-92853034D01*
X236104190Y-93494699D01*
X236029880Y-93924259D01*
X234260411Y-93924259D01*
X234235351Y-93889375D01*
X233886423Y-93412520D01*
X233446199Y-92818791D01*
X233024867Y-92255476D01*
X234596698Y-92255476D01*
X234691918Y-92485510D01*
X234923581Y-92825423D01*
X235210691Y-93176592D01*
X235472253Y-93440394D01*
X235627271Y-93518206D01*
X235631156Y-93515070D01*
X235732218Y-93305678D01*
X235878000Y-92888007D01*
X235934474Y-92703709D01*
X236069382Y-92185296D01*
X236061792Y-91945896D01*
X235889979Y-91938212D01*
X235637648Y-92057466D01*
X235208374Y-92184864D01*
X234926857Y-92174835D01*
X234659223Y-92174342D01*
X234596698Y-92255476D01*
X233024867Y-92255476D01*
X232889474Y-92074458D01*
X232191043Y-91145791D01*
X231325700Y-89999060D01*
X230561202Y-88987789D01*
X230554721Y-88745979D01*
X230657843Y-88219777D01*
X230754880Y-87851610D01*
X231236807Y-87851610D01*
X232150344Y-89083903D01*
X232560491Y-89632395D01*
X232883456Y-90055307D01*
X233070600Y-90289352D01*
X233097467Y-90316195D01*
X233105004Y-90152060D01*
X233104031Y-89698759D01*
X233095216Y-89014951D01*
X233079229Y-88159295D01*
X233066196Y-87576127D01*
X233053388Y-86217056D01*
X233505567Y-86217056D01*
X233520319Y-87433487D01*
X233593396Y-88476633D01*
X233699121Y-89143620D01*
X233952186Y-89920228D01*
X234307336Y-90566291D01*
X234714907Y-91011544D01*
X235125234Y-91185720D01*
X235142720Y-91186058D01*
X235536930Y-91107533D01*
X235993406Y-90922551D01*
X236551114Y-90489958D01*
X237157511Y-89767013D01*
X237784941Y-88802829D01*
X238405746Y-87646521D01*
X238992271Y-86347202D01*
X239516858Y-84953986D01*
X239734903Y-84278245D01*
X240241551Y-82424068D01*
X240634009Y-80595644D01*
X241040479Y-80595644D01*
X241090278Y-80744083D01*
X241107179Y-80747702D01*
X241201041Y-80600273D01*
X241333662Y-80239598D01*
X241351337Y-80182291D01*
X241461706Y-79822611D01*
X241653572Y-79203428D01*
X241904389Y-78397266D01*
X242191610Y-77476645D01*
X242352151Y-76963069D01*
X243182302Y-74309257D01*
X242774862Y-73483617D01*
X242458474Y-72881043D01*
X242129520Y-72311920D01*
X242005005Y-72116186D01*
X241642588Y-71574397D01*
X241626503Y-74290844D01*
X241588406Y-75836417D01*
X241497006Y-77222810D01*
X241358275Y-78365899D01*
X241322607Y-78573045D01*
X241153422Y-79542643D01*
X241060453Y-80206004D01*
X241040479Y-80595644D01*
X240634009Y-80595644D01*
X240643543Y-80551225D01*
X240938706Y-78703575D01*
X241124868Y-76924974D01*
X241199857Y-75259282D01*
X241161500Y-73750355D01*
X241007626Y-72442051D01*
X240736062Y-71378229D01*
X240407708Y-70693806D01*
X240012823Y-70270975D01*
X239534125Y-70155703D01*
X239191122Y-70210792D01*
X238741031Y-70448451D01*
X238218056Y-70909848D01*
X237705981Y-71508042D01*
X237288589Y-72156094D01*
X237256054Y-72218773D01*
X237035768Y-72631436D01*
X236876203Y-72891589D01*
X236853324Y-72918935D01*
X236711079Y-73149879D01*
X236484683Y-73617832D01*
X236211882Y-74233907D01*
X235930421Y-74909218D01*
X235678045Y-75554878D01*
X235492499Y-76082002D01*
X235449669Y-76224415D01*
X235286301Y-76739434D01*
X235128930Y-77123849D01*
X235076921Y-77212626D01*
X234947388Y-77505368D01*
X234771088Y-78070487D01*
X234565027Y-78838307D01*
X234346211Y-79739155D01*
X234131646Y-80703355D01*
X233938338Y-81661234D01*
X233797640Y-82453891D01*
X233645592Y-83634675D01*
X233547780Y-84919925D01*
X233505567Y-86217056D01*
X233053388Y-86217056D01*
X233052358Y-86107744D01*
X233091041Y-84884310D01*
X233187215Y-83806091D01*
X233289414Y-83096332D01*
X233460792Y-82052781D01*
X233572717Y-81331279D01*
X233623737Y-80910801D01*
X233612405Y-80770319D01*
X233537270Y-80888809D01*
X233396882Y-81245242D01*
X233199452Y-81791538D01*
X232971694Y-82488746D01*
X232813401Y-83090936D01*
X232747941Y-83503412D01*
X232753806Y-83597519D01*
X232709620Y-83983712D01*
X232585678Y-84175356D01*
X232378599Y-84550700D01*
X232335054Y-84809775D01*
X232235306Y-85264204D01*
X232095846Y-85536732D01*
X231912519Y-85889820D01*
X231692727Y-86437253D01*
X231546722Y-86865752D01*
X231236807Y-87851610D01*
X230754880Y-87851610D01*
X230860349Y-87451451D01*
X231152020Y-86483272D01*
X231213144Y-86291213D01*
X231582311Y-85139929D01*
X231997310Y-83845535D01*
X232407676Y-82565443D01*
X232762944Y-81457067D01*
X232767263Y-81443593D01*
X233727505Y-78449612D01*
X234586992Y-75774495D01*
X235349948Y-73405377D01*
X235453329Y-73085362D01*
X236057969Y-73085362D01*
X236067821Y-73092908D01*
X236174720Y-72951920D01*
X236401340Y-72578421D01*
X236703092Y-72046601D01*
X236773561Y-71918593D01*
X237350432Y-70992551D01*
X237979705Y-70198310D01*
X238612118Y-69584771D01*
X239198409Y-69200836D01*
X239621511Y-69091538D01*
X239996797Y-69050650D01*
X240163332Y-68951623D01*
X240163821Y-68945401D01*
X240083484Y-68740517D01*
X239866974Y-68305525D01*
X239551044Y-67712250D01*
X239306100Y-67269189D01*
X238448380Y-65739113D01*
X238175279Y-66392736D01*
X238003094Y-66830038D01*
X237908460Y-67119380D01*
X237902177Y-67158259D01*
X237850388Y-67356436D01*
X237708678Y-67819448D01*
X237497534Y-68482171D01*
X237237444Y-69279475D01*
X237183738Y-69442150D01*
X236779838Y-70667655D01*
X236476810Y-71598852D01*
X236263880Y-72270981D01*
X236130278Y-72719282D01*
X236065232Y-72978996D01*
X236057969Y-73085362D01*
X235453329Y-73085362D01*
X236020599Y-71329391D01*
X236603169Y-69533672D01*
X237101884Y-68005354D01*
X237520967Y-66731570D01*
X237864645Y-65699455D01*
X238137142Y-64896143D01*
X238342683Y-64308768D01*
X238485492Y-63924464D01*
X238569796Y-63730365D01*
X238593994Y-63699850D01*
X238685078Y-63785610D01*
G37*
G36*
X202535240Y-68533256D02*
G01*
X202841387Y-68867704D01*
X203194643Y-69299555D01*
X203630461Y-69846870D01*
X204192989Y-70539487D01*
X204784214Y-71257067D01*
X204995572Y-71510729D01*
X205624010Y-72262203D01*
X206088946Y-72818925D01*
X206450068Y-73253075D01*
X206767061Y-73636834D01*
X207099610Y-74042384D01*
X207507401Y-74541905D01*
X207886274Y-75006606D01*
X208551379Y-75819676D01*
X209298761Y-76729039D01*
X210003619Y-77582971D01*
X210254514Y-77885656D01*
X211261553Y-79105008D01*
X212263413Y-80330071D01*
X213206313Y-81494405D01*
X214036471Y-82531570D01*
X214700107Y-83375127D01*
X214746227Y-83434626D01*
X215102616Y-83887164D01*
X215632323Y-84549473D01*
X216287732Y-85362522D01*
X217021228Y-86267278D01*
X217785194Y-87204713D01*
X217939594Y-87393543D01*
X218722546Y-88351978D01*
X219308168Y-89077951D01*
X219719480Y-89608284D01*
X219979500Y-89979798D01*
X220111246Y-90229313D01*
X220137735Y-90393652D01*
X220081987Y-90509635D01*
X219967020Y-90614082D01*
X219957627Y-90621688D01*
X219556745Y-90960337D01*
X219293769Y-91196745D01*
X219020087Y-91406033D01*
X218532796Y-91735779D01*
X217917524Y-92128901D01*
X217623682Y-92310074D01*
X216981888Y-92713337D01*
X216433361Y-93080086D01*
X216062318Y-93353081D01*
X215975580Y-93430209D01*
X215456981Y-93876718D01*
X214750716Y-94361574D01*
X214076437Y-94748103D01*
X213617883Y-95014371D01*
X213272135Y-95264750D01*
X213237641Y-95296974D01*
X212890827Y-95498750D01*
X212707216Y-95529841D01*
X212527023Y-95498325D01*
X212622037Y-95371333D01*
X212750436Y-95270679D01*
X212964862Y-95038712D01*
X212972106Y-94903476D01*
X212765356Y-94884618D01*
X212538099Y-95078337D01*
X212390679Y-95370926D01*
X212386809Y-95566713D01*
X212354226Y-95833446D01*
X212197859Y-95883319D01*
X211893733Y-95983391D01*
X211473996Y-96232263D01*
X211355891Y-96318250D01*
X210952900Y-96592731D01*
X210647948Y-96743328D01*
X210594626Y-96753182D01*
X210374737Y-96893039D01*
X210298068Y-97028157D01*
X210064208Y-97226066D01*
X209868770Y-97218462D01*
X209547608Y-97230798D01*
X209430950Y-97318312D01*
X209426929Y-97419729D01*
X209517763Y-97378699D01*
X209699308Y-97314989D01*
X209718616Y-97339128D01*
X209583185Y-97470020D01*
X209210781Y-97760575D01*
X208652239Y-98174922D01*
X207958393Y-98677190D01*
X207180077Y-99231509D01*
X206368125Y-99802008D01*
X205573371Y-100352816D01*
X204846650Y-100848064D01*
X204238795Y-101251880D01*
X203800641Y-101528395D01*
X203696136Y-101588821D01*
X203291090Y-101693659D01*
X202904506Y-101622598D01*
X202658071Y-101416769D01*
X202630964Y-101228769D01*
X202727527Y-101079722D01*
X203194964Y-101079722D01*
X203251454Y-101522749D01*
X203268318Y-101580921D01*
X203349645Y-101647571D01*
X203426872Y-101465509D01*
X203454572Y-101189483D01*
X203803547Y-101189483D01*
X203890533Y-101276469D01*
X203977520Y-101189483D01*
X203890533Y-101102497D01*
X203803547Y-101189483D01*
X203454572Y-101189483D01*
X203455602Y-101179216D01*
X203404734Y-100884554D01*
X203297125Y-100831961D01*
X203194964Y-101079722D01*
X202727527Y-101079722D01*
X202813604Y-100946860D01*
X203204849Y-100595595D01*
X203349024Y-100493593D01*
X204325465Y-100493593D01*
X204412451Y-100580579D01*
X204499438Y-100493593D01*
X204412451Y-100406606D01*
X204325465Y-100493593D01*
X203349024Y-100493593D01*
X203702777Y-100243317D01*
X203721623Y-100232634D01*
X204934369Y-100232634D01*
X204942322Y-100393203D01*
X205000821Y-100406606D01*
X205246762Y-100279649D01*
X205282314Y-100232634D01*
X205274362Y-100072065D01*
X205215863Y-100058661D01*
X204969921Y-100185618D01*
X204934369Y-100232634D01*
X203721623Y-100232634D01*
X204205467Y-99958369D01*
X204610998Y-99809095D01*
X204749970Y-99807870D01*
X204966255Y-99842393D01*
X204886764Y-99752797D01*
X204785299Y-99638623D01*
X204832479Y-99491982D01*
X204877102Y-99449757D01*
X205195328Y-99449757D01*
X205282314Y-99536743D01*
X205369301Y-99449757D01*
X205282314Y-99362771D01*
X205195328Y-99449757D01*
X204877102Y-99449757D01*
X205069743Y-99267467D01*
X205538532Y-98919676D01*
X205721082Y-98791569D01*
X207126666Y-98791569D01*
X207300990Y-98755066D01*
X207333995Y-98742681D01*
X207547032Y-98604861D01*
X207548562Y-98526507D01*
X207364523Y-98546021D01*
X207236607Y-98645292D01*
X207126666Y-98791569D01*
X205721082Y-98791569D01*
X205840681Y-98707639D01*
X206273622Y-98422896D01*
X206497657Y-98340815D01*
X206579087Y-98451154D01*
X206587109Y-98592321D01*
X206614401Y-98773516D01*
X206753720Y-98696085D01*
X206860494Y-98592321D01*
X207264382Y-98375554D01*
X207830778Y-98279161D01*
X208196355Y-98298333D01*
X208322724Y-98187580D01*
X208326835Y-98144962D01*
X208467745Y-97990618D01*
X208587794Y-97970990D01*
X208809082Y-97884150D01*
X208840878Y-97569786D01*
X208833894Y-97512016D01*
X208945427Y-97334665D01*
X209051359Y-97253721D01*
X209140983Y-97140994D01*
X208905754Y-97103916D01*
X208892246Y-97103791D01*
X208602722Y-97021623D01*
X208544301Y-96883661D01*
X208548023Y-96811173D01*
X209080716Y-96811173D01*
X209104597Y-96914599D01*
X209196698Y-96927154D01*
X209339897Y-96863500D01*
X209327761Y-96840168D01*
X209892588Y-96840168D01*
X209979575Y-96927154D01*
X210066561Y-96840168D01*
X209979575Y-96753182D01*
X209892588Y-96840168D01*
X209327761Y-96840168D01*
X209312680Y-96811173D01*
X209106215Y-96790351D01*
X209080716Y-96811173D01*
X208548023Y-96811173D01*
X208550930Y-96754554D01*
X208464574Y-96691926D01*
X208223048Y-96696912D01*
X207764163Y-96770647D01*
X207041655Y-96911098D01*
X205871590Y-97048189D01*
X204526365Y-97052067D01*
X203149444Y-96929328D01*
X201884287Y-96686567D01*
X201826210Y-96671310D01*
X201533059Y-96571983D01*
X203470537Y-96571983D01*
X203535435Y-96741607D01*
X203793686Y-96897825D01*
X204151484Y-96909225D01*
X204400982Y-96771740D01*
X204335315Y-96637200D01*
X205949209Y-96637200D01*
X205973090Y-96740626D01*
X206065191Y-96753182D01*
X206208390Y-96689528D01*
X206181173Y-96637200D01*
X205974708Y-96616379D01*
X205949209Y-96637200D01*
X204335315Y-96637200D01*
X204328641Y-96623527D01*
X204042775Y-96502314D01*
X203830352Y-96475820D01*
X206464745Y-96475820D01*
X206587109Y-96579209D01*
X206864704Y-96735681D01*
X206901688Y-96676749D01*
X206848068Y-96579209D01*
X206772366Y-96529925D01*
X207300639Y-96529925D01*
X207474962Y-96493422D01*
X207507968Y-96481038D01*
X207721005Y-96343217D01*
X207722534Y-96264863D01*
X207538496Y-96284377D01*
X207410579Y-96383649D01*
X207300639Y-96529925D01*
X206772366Y-96529925D01*
X206593995Y-96413801D01*
X206533348Y-96407900D01*
X206464745Y-96475820D01*
X203830352Y-96475820D01*
X203612117Y-96448601D01*
X203470537Y-96571983D01*
X201533059Y-96571983D01*
X200838456Y-96336634D01*
X199717414Y-95843499D01*
X199435912Y-95696179D01*
X200245246Y-95696179D01*
X200297875Y-95864371D01*
X200452445Y-95936957D01*
X200717644Y-96013742D01*
X200773524Y-96037110D01*
X200786364Y-95914855D01*
X200787716Y-95818226D01*
X201019986Y-95818226D01*
X201160111Y-95932936D01*
X201411424Y-96051870D01*
X201762881Y-96188082D01*
X201873004Y-96198963D01*
X201822954Y-96089817D01*
X201815841Y-96078291D01*
X201627502Y-95939757D01*
X201330693Y-95823414D01*
X201081899Y-95780398D01*
X201019986Y-95818226D01*
X200787716Y-95818226D01*
X200788022Y-95796332D01*
X200665374Y-95575322D01*
X200413996Y-95556593D01*
X200245246Y-95696179D01*
X199435912Y-95696179D01*
X198596511Y-95256891D01*
X197609175Y-94641797D01*
X197497040Y-94562737D01*
X197373543Y-94480211D01*
X197757161Y-94480211D01*
X197780958Y-94491538D01*
X197939722Y-94369065D01*
X197975465Y-94317565D01*
X198019797Y-94154920D01*
X197996000Y-94143593D01*
X197837235Y-94266066D01*
X197801492Y-94317565D01*
X197757161Y-94480211D01*
X197373543Y-94480211D01*
X197059535Y-94270378D01*
X196759963Y-94111023D01*
X196670670Y-94110032D01*
X196772987Y-94285827D01*
X197042258Y-94656716D01*
X197421963Y-95151102D01*
X197855581Y-95697386D01*
X198286593Y-96223970D01*
X198658477Y-96659255D01*
X198837594Y-96855033D01*
X198990010Y-97025014D01*
X199239356Y-97322194D01*
X199611200Y-97778087D01*
X200131109Y-98424208D01*
X200824651Y-99292073D01*
X201366070Y-99971675D01*
X201886211Y-100624810D01*
X202344473Y-101199711D01*
X202686712Y-101628485D01*
X202846773Y-101828362D01*
X202989214Y-102070407D01*
X202862844Y-102201660D01*
X202808520Y-102223896D01*
X202524795Y-102268551D01*
X202444857Y-102237414D01*
X202489302Y-102153995D01*
X202567011Y-102146332D01*
X202696969Y-102042798D01*
X202670971Y-101969522D01*
X202462475Y-101869162D01*
X202399745Y-101892803D01*
X202249053Y-101862504D01*
X202237794Y-101798387D01*
X202130554Y-101687835D01*
X202054368Y-101717243D01*
X201993165Y-101940935D01*
X202145365Y-102249428D01*
X202286487Y-102543476D01*
X202244023Y-102668217D01*
X202241804Y-102668250D01*
X202069347Y-102568650D01*
X202063821Y-102535993D01*
X201955438Y-102335837D01*
X201685381Y-101999658D01*
X201585396Y-101889202D01*
X201144894Y-101401158D01*
X201733515Y-101401158D01*
X201907839Y-101364655D01*
X201940845Y-101352270D01*
X202153881Y-101214450D01*
X202155411Y-101136096D01*
X201971373Y-101155610D01*
X201843456Y-101254881D01*
X201733515Y-101401158D01*
X201144894Y-101401158D01*
X200982432Y-101221162D01*
X200801548Y-101009488D01*
X201240207Y-101009488D01*
X201271576Y-101087338D01*
X201410112Y-101260205D01*
X201462205Y-101131362D01*
X201467344Y-100931009D01*
X201409685Y-100711985D01*
X201311015Y-100741878D01*
X201240207Y-101009488D01*
X200801548Y-101009488D01*
X200435027Y-100580579D01*
X200846013Y-100580579D01*
X200909667Y-100723778D01*
X200961995Y-100696561D01*
X200982816Y-100490096D01*
X200961995Y-100464597D01*
X200858568Y-100488478D01*
X200846013Y-100580579D01*
X200435027Y-100580579D01*
X200418548Y-100561295D01*
X199946909Y-99978871D01*
X200225607Y-99978871D01*
X200255604Y-100131110D01*
X200416912Y-100349684D01*
X200589698Y-100399575D01*
X200647058Y-100257564D01*
X200632172Y-100200014D01*
X200419255Y-99953262D01*
X200356597Y-99924518D01*
X200225607Y-99978871D01*
X199946909Y-99978871D01*
X199920658Y-99946454D01*
X199617134Y-99547011D01*
X199976150Y-99547011D01*
X200032057Y-99705082D01*
X200107741Y-99623730D01*
X200498068Y-99623730D01*
X200585054Y-99710716D01*
X200672040Y-99623730D01*
X200585054Y-99536743D01*
X200498068Y-99623730D01*
X200107741Y-99623730D01*
X200160348Y-99567183D01*
X200216503Y-99440721D01*
X200228662Y-99261133D01*
X200148130Y-99277016D01*
X199982333Y-99499758D01*
X199976150Y-99547011D01*
X199617134Y-99547011D01*
X199515675Y-99413490D01*
X199420876Y-99275784D01*
X199628205Y-99275784D01*
X199715191Y-99362771D01*
X199802177Y-99275784D01*
X199715191Y-99188798D01*
X199628205Y-99275784D01*
X199420876Y-99275784D01*
X199230513Y-98999259D01*
X199192289Y-98927839D01*
X199976150Y-98927839D01*
X200063136Y-99014825D01*
X200150123Y-98927839D01*
X200063136Y-98840853D01*
X199976150Y-98927839D01*
X199192289Y-98927839D01*
X199092084Y-98740611D01*
X199127302Y-98674401D01*
X199346929Y-98823991D01*
X199570382Y-98918181D01*
X199698969Y-98733407D01*
X199750276Y-98441809D01*
X199719286Y-98352026D01*
X199634939Y-98394256D01*
X199628205Y-98463912D01*
X199504125Y-98655326D01*
X199442508Y-98666880D01*
X199336023Y-98527865D01*
X199371630Y-98275442D01*
X199486447Y-97884004D01*
X199196860Y-98279233D01*
X198907273Y-98674463D01*
X198244282Y-97872151D01*
X198216636Y-97833359D01*
X198434321Y-97833359D01*
X198475062Y-97919899D01*
X198700712Y-98043339D01*
X198975551Y-97970863D01*
X199106287Y-97757102D01*
X199009617Y-97686542D01*
X198872814Y-97774206D01*
X198605038Y-97877608D01*
X198496977Y-97839001D01*
X198434321Y-97833359D01*
X198216636Y-97833359D01*
X197822391Y-97280164D01*
X197718030Y-97002258D01*
X197754825Y-97002258D01*
X197975465Y-97229181D01*
X198240806Y-97428889D01*
X198381762Y-97422781D01*
X198553905Y-97353088D01*
X198642721Y-97386524D01*
X198751182Y-97417891D01*
X198671355Y-97320176D01*
X198377827Y-97134683D01*
X198062451Y-97012982D01*
X197764518Y-96935776D01*
X197754825Y-97002258D01*
X197718030Y-97002258D01*
X197659984Y-96847685D01*
X197667677Y-96739495D01*
X197811594Y-96519064D01*
X197935138Y-96521060D01*
X198032523Y-96521746D01*
X197990324Y-96429279D01*
X197771306Y-96309539D01*
X197683034Y-96337701D01*
X197445393Y-96316253D01*
X197335714Y-96210059D01*
X197240354Y-96127298D01*
X197279939Y-96357036D01*
X197291131Y-96397122D01*
X197359443Y-96688266D01*
X197277750Y-96681865D01*
X197117462Y-96528936D01*
X196930727Y-96236564D01*
X196933469Y-96054315D01*
X196914932Y-95919617D01*
X196835476Y-95922501D01*
X196630098Y-95820467D01*
X196286629Y-95507018D01*
X196082171Y-95278122D01*
X197043903Y-95278122D01*
X197080358Y-95441915D01*
X197247722Y-95692149D01*
X197431507Y-95868594D01*
X197476323Y-95883319D01*
X197450836Y-95759729D01*
X197331128Y-95543285D01*
X197140013Y-95308391D01*
X197043903Y-95278122D01*
X196082171Y-95278122D01*
X195964008Y-95145835D01*
X196224208Y-95145835D01*
X196395214Y-95173694D01*
X196620859Y-95141708D01*
X196623553Y-95082320D01*
X196390710Y-95040789D01*
X196290105Y-95068585D01*
X196224208Y-95145835D01*
X195964008Y-95145835D01*
X195876852Y-95048261D01*
X195848385Y-95013456D01*
X195695008Y-94828156D01*
X196017435Y-94828156D01*
X196041232Y-94839483D01*
X196199996Y-94717010D01*
X196235739Y-94665510D01*
X196280071Y-94502865D01*
X196256274Y-94491538D01*
X196097509Y-94614011D01*
X196061766Y-94665510D01*
X196017435Y-94828156D01*
X195695008Y-94828156D01*
X195367084Y-94431980D01*
X195163726Y-94193461D01*
X195480906Y-94193461D01*
X195523236Y-94290685D01*
X195698408Y-94477452D01*
X195799114Y-94439140D01*
X195800807Y-94414819D01*
X195677238Y-94267670D01*
X195623862Y-94230579D01*
X195974780Y-94230579D01*
X196061766Y-94317565D01*
X196148753Y-94230579D01*
X196061766Y-94143593D01*
X195974780Y-94230579D01*
X195623862Y-94230579D01*
X195599955Y-94213966D01*
X195480906Y-94193461D01*
X195163726Y-94193461D01*
X194898719Y-93882634D01*
X195278890Y-93882634D01*
X195365876Y-93969620D01*
X195452862Y-93882634D01*
X195365876Y-93795647D01*
X195278890Y-93882634D01*
X194898719Y-93882634D01*
X194890595Y-93873105D01*
X194590920Y-93534688D01*
X194930944Y-93534688D01*
X195017931Y-93621675D01*
X195104917Y-93534688D01*
X195017931Y-93447702D01*
X194930944Y-93534688D01*
X194590920Y-93534688D01*
X194565483Y-93505962D01*
X194216065Y-93012771D01*
X194756972Y-93012771D01*
X194843958Y-93099757D01*
X194930944Y-93012771D01*
X194843958Y-92925784D01*
X194756972Y-93012771D01*
X194216065Y-93012771D01*
X194211065Y-93005714D01*
X194190903Y-92846451D01*
X195858798Y-92846451D01*
X195896749Y-93082829D01*
X195988669Y-93012771D01*
X196322725Y-93012771D01*
X196409712Y-93099757D01*
X196496698Y-93012771D01*
X196409712Y-92925784D01*
X196322725Y-93012771D01*
X195988669Y-93012771D01*
X196022706Y-92986829D01*
X196054337Y-92937806D01*
X196045577Y-92718480D01*
X196006613Y-92684500D01*
X195877110Y-92736026D01*
X195858798Y-92846451D01*
X194190903Y-92846451D01*
X194164273Y-92636099D01*
X194203688Y-92444071D01*
X194108177Y-92538458D01*
X193934146Y-92648936D01*
X193697641Y-92481631D01*
X193652640Y-92433138D01*
X193459737Y-92113912D01*
X193771127Y-92113912D01*
X193795008Y-92217339D01*
X193887109Y-92229894D01*
X194030308Y-92166240D01*
X194018172Y-92142908D01*
X195278890Y-92142908D01*
X195365876Y-92229894D01*
X195452862Y-92142908D01*
X195365876Y-92055921D01*
X195278890Y-92142908D01*
X194018172Y-92142908D01*
X194003091Y-92113912D01*
X193796626Y-92093091D01*
X193771127Y-92113912D01*
X193459737Y-92113912D01*
X193448269Y-92094934D01*
X193419470Y-91863615D01*
X193435804Y-91722572D01*
X193406746Y-91758731D01*
X193251664Y-91816897D01*
X193070890Y-91661859D01*
X192958455Y-91407111D01*
X192970165Y-91231786D01*
X192985941Y-91046524D01*
X192903140Y-91062072D01*
X192683707Y-91007492D01*
X192369612Y-90751127D01*
X194235054Y-90751127D01*
X194322040Y-90838113D01*
X194409027Y-90751127D01*
X194322040Y-90664141D01*
X194235054Y-90751127D01*
X192369612Y-90751127D01*
X192325553Y-90715166D01*
X192116359Y-90490168D01*
X192495328Y-90490168D01*
X192558982Y-90633367D01*
X192611310Y-90606150D01*
X192632131Y-90399685D01*
X192611310Y-90374186D01*
X192507883Y-90398067D01*
X192495328Y-90490168D01*
X192116359Y-90490168D01*
X191881649Y-90237726D01*
X191852332Y-90200214D01*
X193597154Y-90200214D01*
X193621036Y-90303640D01*
X193713136Y-90316195D01*
X193856335Y-90252541D01*
X193829118Y-90200214D01*
X193622653Y-90179392D01*
X193597154Y-90200214D01*
X191852332Y-90200214D01*
X191467094Y-89707291D01*
X193539164Y-89707291D01*
X193626150Y-89794278D01*
X193713136Y-89707291D01*
X193626150Y-89620305D01*
X193539164Y-89707291D01*
X191467094Y-89707291D01*
X191404971Y-89627803D01*
X191338288Y-89533319D01*
X191451492Y-89533319D01*
X191538479Y-89620305D01*
X191625465Y-89533319D01*
X191973410Y-89533319D01*
X192060396Y-89620305D01*
X192147383Y-89533319D01*
X192060396Y-89446332D01*
X191973410Y-89533319D01*
X191625465Y-89533319D01*
X191538479Y-89446332D01*
X191451492Y-89533319D01*
X191338288Y-89533319D01*
X191276896Y-89446332D01*
X191077616Y-89185373D01*
X191625465Y-89185373D01*
X191712451Y-89272360D01*
X191799438Y-89185373D01*
X191712451Y-89098387D01*
X191625465Y-89185373D01*
X191077616Y-89185373D01*
X190944051Y-89010468D01*
X190755368Y-88808433D01*
X191335511Y-88808433D01*
X191359392Y-88911859D01*
X191451492Y-88924415D01*
X191594692Y-88860761D01*
X191567474Y-88808433D01*
X191361009Y-88787612D01*
X191335511Y-88808433D01*
X190755368Y-88808433D01*
X190638222Y-88682998D01*
X190575471Y-88631262D01*
X190314576Y-88387642D01*
X190248352Y-88315510D01*
X190755602Y-88315510D01*
X190842588Y-88402497D01*
X190929575Y-88315510D01*
X190842588Y-88228524D01*
X190755602Y-88315510D01*
X190248352Y-88315510D01*
X189934655Y-87973827D01*
X189781737Y-87793593D01*
X190581629Y-87793593D01*
X190668616Y-87880579D01*
X190755602Y-87793593D01*
X190668616Y-87706606D01*
X190581629Y-87793593D01*
X189781737Y-87793593D01*
X189632887Y-87618153D01*
X189522549Y-87476282D01*
X189964358Y-87476282D01*
X189995962Y-87617441D01*
X190127864Y-87771557D01*
X190317057Y-87655363D01*
X190442666Y-87432382D01*
X190353217Y-87326647D01*
X190072715Y-87274460D01*
X189964358Y-87476282D01*
X189522549Y-87476282D01*
X189267458Y-87148290D01*
X189099384Y-86833633D01*
X189094316Y-86662771D01*
X189363821Y-86662771D01*
X189496210Y-86831688D01*
X189537794Y-86836743D01*
X189706711Y-86704355D01*
X189711766Y-86662771D01*
X189579378Y-86493854D01*
X189537794Y-86488798D01*
X189368877Y-86621187D01*
X189363821Y-86662771D01*
X189094316Y-86662771D01*
X189091631Y-86572239D01*
X189170567Y-86345552D01*
X189293237Y-86041154D01*
X189260644Y-86027188D01*
X189107487Y-86215139D01*
X188883630Y-86442936D01*
X188771794Y-86476098D01*
X188629242Y-86307298D01*
X188348159Y-85959983D01*
X188161092Y-85725492D01*
X187776828Y-85198757D01*
X187636293Y-84884135D01*
X187729732Y-84755388D01*
X187798068Y-84749072D01*
X187951500Y-84890368D01*
X187972040Y-85015637D01*
X188116775Y-85276961D01*
X188363479Y-85430290D01*
X188734017Y-85525969D01*
X188814568Y-85431867D01*
X188599205Y-85159142D01*
X188538382Y-85101065D01*
X188223069Y-84720638D01*
X188060895Y-84407012D01*
X187895835Y-84122496D01*
X187765042Y-84053182D01*
X187674742Y-84133813D01*
X187767128Y-84276861D01*
X187840268Y-84455990D01*
X187634223Y-84500540D01*
X187403578Y-84406483D01*
X187404912Y-84268009D01*
X187359595Y-83989405D01*
X187125819Y-83643427D01*
X187122596Y-83639985D01*
X186886038Y-83345365D01*
X186822259Y-83173805D01*
X186824996Y-83170412D01*
X186735599Y-83106732D01*
X186464994Y-83070393D01*
X186031046Y-83044455D01*
X186436132Y-83321268D01*
X186888704Y-83694891D01*
X187078976Y-84048789D01*
X187096925Y-84227154D01*
X186999602Y-84259955D01*
X186743805Y-84056942D01*
X186496642Y-83792223D01*
X186171820Y-83359879D01*
X185989670Y-83005633D01*
X185975320Y-82869831D01*
X185953102Y-82728201D01*
X185877516Y-82752623D01*
X185656418Y-82711350D01*
X185372134Y-82458964D01*
X185370698Y-82457206D01*
X185155046Y-82158541D01*
X185165458Y-81948790D01*
X185278222Y-81813839D01*
X185911506Y-81813839D01*
X185956301Y-82042367D01*
X186124244Y-82386780D01*
X186331583Y-82700103D01*
X186493602Y-82835373D01*
X186475002Y-82699537D01*
X186343755Y-82392256D01*
X187104638Y-82392256D01*
X187213282Y-82587409D01*
X187515852Y-83007330D01*
X187980128Y-83612358D01*
X188573890Y-84362833D01*
X189264917Y-85219093D01*
X190020988Y-86141477D01*
X190809883Y-87090324D01*
X191599380Y-88025972D01*
X192357260Y-88908761D01*
X192927105Y-89559265D01*
X193128870Y-89706360D01*
X193169518Y-89604801D01*
X193039035Y-89385601D01*
X193029737Y-89359346D01*
X193365191Y-89359346D01*
X193452177Y-89446332D01*
X193539164Y-89359346D01*
X193452177Y-89272360D01*
X193365191Y-89359346D01*
X193029737Y-89359346D01*
X192916801Y-89040462D01*
X192941816Y-88870046D01*
X192941534Y-88510009D01*
X192846850Y-88282584D01*
X192716739Y-88107200D01*
X192704687Y-88218411D01*
X192748620Y-88445990D01*
X192799005Y-88789783D01*
X192776786Y-88924415D01*
X192627767Y-88786552D01*
X192420594Y-88455831D01*
X192218734Y-88056549D01*
X192085655Y-87713004D01*
X192077145Y-87554201D01*
X192228088Y-87580617D01*
X192272684Y-87663113D01*
X192462853Y-87865297D01*
X192536789Y-87880579D01*
X192575436Y-87775227D01*
X192412054Y-87536736D01*
X192141568Y-87308216D01*
X191975990Y-87270080D01*
X191830196Y-87193935D01*
X191686418Y-86825117D01*
X191555080Y-86218796D01*
X191544359Y-86140853D01*
X191973410Y-86140853D01*
X192037064Y-86284052D01*
X192089392Y-86256835D01*
X192110213Y-86050370D01*
X192089392Y-86024871D01*
X191985965Y-86048752D01*
X191973410Y-86140853D01*
X191544359Y-86140853D01*
X191446605Y-85430145D01*
X191423349Y-85146886D01*
X191653509Y-85146886D01*
X191695838Y-85244110D01*
X191871010Y-85430877D01*
X191971717Y-85392564D01*
X191973410Y-85368243D01*
X191849841Y-85221095D01*
X191772557Y-85167391D01*
X191653509Y-85146886D01*
X191423349Y-85146886D01*
X191371417Y-84514333D01*
X191347008Y-83940969D01*
X191341638Y-83705236D01*
X191451492Y-83705236D01*
X191515146Y-83848436D01*
X191567474Y-83821218D01*
X191588295Y-83614753D01*
X191567474Y-83589255D01*
X191464048Y-83613136D01*
X191451492Y-83705236D01*
X191341638Y-83705236D01*
X191327714Y-83094021D01*
X191328853Y-82945031D01*
X192256702Y-82945031D01*
X192310787Y-83936905D01*
X192451152Y-85037021D01*
X192663652Y-86135231D01*
X192934140Y-87121384D01*
X192941593Y-87143859D01*
X193351770Y-88141281D01*
X193932427Y-89241236D01*
X194625840Y-90357011D01*
X195374287Y-91401890D01*
X196120044Y-92289158D01*
X196783031Y-92914662D01*
X197053793Y-93200615D01*
X197116935Y-93427521D01*
X197111150Y-93438726D01*
X197130055Y-93548014D01*
X197246179Y-93523430D01*
X197532119Y-93562158D01*
X197920688Y-93778761D01*
X197994599Y-93835531D01*
X199293184Y-94711396D01*
X200833594Y-95458221D01*
X202520601Y-96033336D01*
X203348892Y-96234693D01*
X203942102Y-96302137D01*
X204725619Y-96315117D01*
X205580718Y-96280102D01*
X206388678Y-96203565D01*
X206729826Y-96144278D01*
X210936424Y-96144278D01*
X211023410Y-96231264D01*
X211110396Y-96144278D01*
X211023410Y-96057291D01*
X210936424Y-96144278D01*
X206729826Y-96144278D01*
X207030776Y-96091977D01*
X207261836Y-96021400D01*
X207695736Y-95834832D01*
X211423358Y-95834832D01*
X211522011Y-95829353D01*
X211854098Y-95727488D01*
X211975628Y-95709346D01*
X212114680Y-95561151D01*
X212236152Y-95232664D01*
X212392066Y-94836665D01*
X212559464Y-94626424D01*
X212647470Y-94513073D01*
X212589164Y-94497338D01*
X212389163Y-94621624D01*
X212061210Y-94940530D01*
X211812234Y-95223585D01*
X211491812Y-95645282D01*
X211423358Y-95834832D01*
X207695736Y-95834832D01*
X208028707Y-95691661D01*
X208703617Y-95361401D01*
X210849438Y-95361401D01*
X210888877Y-95510339D01*
X211013143Y-95535373D01*
X211251175Y-95444542D01*
X211284369Y-95361401D01*
X211159504Y-95192408D01*
X211120664Y-95187428D01*
X210885046Y-95313889D01*
X210849438Y-95361401D01*
X208703617Y-95361401D01*
X208733490Y-95346783D01*
X209282402Y-95035220D01*
X209416778Y-94936737D01*
X211458342Y-94936737D01*
X211542682Y-95116808D01*
X211632314Y-95100442D01*
X211799651Y-94878025D01*
X211806287Y-94829216D01*
X211673591Y-94670196D01*
X211632314Y-94665510D01*
X211479634Y-94807117D01*
X211458342Y-94936737D01*
X209416778Y-94936737D01*
X209549478Y-94839483D01*
X209835321Y-94574503D01*
X210022843Y-94404552D01*
X213719986Y-94404552D01*
X213806972Y-94491538D01*
X213893958Y-94404552D01*
X213806972Y-94317565D01*
X213719986Y-94404552D01*
X210022843Y-94404552D01*
X210261080Y-94188639D01*
X210285885Y-94166425D01*
X212085216Y-94166425D01*
X212236639Y-94257858D01*
X212426645Y-94254947D01*
X212748226Y-94152852D01*
X212850000Y-93992822D01*
X212941655Y-93876981D01*
X213727219Y-93876981D01*
X213835967Y-94027611D01*
X214057457Y-94133497D01*
X214372866Y-94000060D01*
X214388380Y-93990295D01*
X214473697Y-93864657D01*
X214239691Y-93770145D01*
X214170914Y-93756125D01*
X213807229Y-93742772D01*
X213727219Y-93876981D01*
X212941655Y-93876981D01*
X212980826Y-93827473D01*
X213175018Y-93840028D01*
X213436712Y-93819151D01*
X213479470Y-93642853D01*
X213520118Y-93552101D01*
X214829616Y-93552101D01*
X214908842Y-93612349D01*
X215181362Y-93512894D01*
X215280701Y-93454498D01*
X215452734Y-93273632D01*
X215441973Y-93198000D01*
X215250025Y-93216168D01*
X215012080Y-93356981D01*
X214829616Y-93552101D01*
X213520118Y-93552101D01*
X213572856Y-93434359D01*
X213933084Y-93357073D01*
X214021665Y-93354790D01*
X214483606Y-93281903D01*
X214804442Y-93114969D01*
X214804542Y-93114863D01*
X214906790Y-92962370D01*
X214749174Y-92950683D01*
X214546355Y-92993624D01*
X214203319Y-93052199D01*
X214067931Y-93033270D01*
X214162687Y-92925784D01*
X215807657Y-92925784D01*
X215871311Y-93068984D01*
X215923638Y-93041766D01*
X215944460Y-92835301D01*
X215923638Y-92809803D01*
X215820212Y-92833684D01*
X215807657Y-92925784D01*
X214162687Y-92925784D01*
X214215674Y-92865678D01*
X214572796Y-92654584D01*
X216332239Y-92654584D01*
X216412709Y-92663722D01*
X216576309Y-92480885D01*
X216735771Y-92192966D01*
X216740822Y-92061233D01*
X216603107Y-92109251D01*
X216435649Y-92340201D01*
X216335582Y-92613025D01*
X216332239Y-92654584D01*
X214572796Y-92654584D01*
X214584498Y-92647667D01*
X215062793Y-92430717D01*
X215538948Y-92266304D01*
X215861094Y-92206202D01*
X216182636Y-92181149D01*
X216172253Y-92141073D01*
X216014967Y-92105785D01*
X215743520Y-92009720D01*
X215774430Y-91838580D01*
X215818803Y-91781532D01*
X216158838Y-91569352D01*
X216361144Y-91534004D01*
X216598488Y-91477989D01*
X216613932Y-91397890D01*
X216692571Y-91229336D01*
X216836786Y-91099072D01*
X217547383Y-91099072D01*
X217634369Y-91186058D01*
X217721355Y-91099072D01*
X217634369Y-91012086D01*
X217547383Y-91099072D01*
X216836786Y-91099072D01*
X216988828Y-90961738D01*
X217169076Y-90832549D01*
X217736889Y-90419629D01*
X217832652Y-90316195D01*
X219461081Y-90316195D01*
X219524735Y-90459395D01*
X219577063Y-90432177D01*
X219597884Y-90225712D01*
X219577063Y-90200214D01*
X219473637Y-90224095D01*
X219461081Y-90316195D01*
X217832652Y-90316195D01*
X218031136Y-90101813D01*
X218040498Y-90055236D01*
X218939164Y-90055236D01*
X219026150Y-90142223D01*
X219113136Y-90055236D01*
X219026150Y-89968250D01*
X218939164Y-90055236D01*
X218040498Y-90055236D01*
X218088462Y-89816624D01*
X217947776Y-89505023D01*
X217799887Y-89143721D01*
X217820226Y-88905185D01*
X217835098Y-88837428D01*
X218417246Y-88837428D01*
X218504232Y-88924415D01*
X218591218Y-88837428D01*
X218504232Y-88750442D01*
X218417246Y-88837428D01*
X217835098Y-88837428D01*
X217848419Y-88776741D01*
X217767948Y-88808632D01*
X217528740Y-88783290D01*
X217349629Y-88633248D01*
X217206622Y-88390330D01*
X217329723Y-88272787D01*
X217329917Y-88272721D01*
X217497295Y-88141538D01*
X217895328Y-88141538D01*
X217982314Y-88228524D01*
X218069301Y-88141538D01*
X217982314Y-88054552D01*
X217895328Y-88141538D01*
X217497295Y-88141538D01*
X217540364Y-88107783D01*
X217479667Y-87948398D01*
X217201541Y-87930437D01*
X216936571Y-87905059D01*
X216609183Y-87669008D01*
X216163145Y-87180505D01*
X216116604Y-87124358D01*
X215725265Y-86655695D01*
X215419751Y-86300883D01*
X215374309Y-86252205D01*
X215858197Y-86252205D01*
X215951353Y-86538554D01*
X216032305Y-86663724D01*
X216249603Y-86897698D01*
X216387692Y-86829712D01*
X216399924Y-86805454D01*
X216456474Y-86762972D01*
X216436959Y-86958881D01*
X216455594Y-87291453D01*
X216706561Y-87464221D01*
X217162804Y-87518899D01*
X217431289Y-87496392D01*
X217399435Y-87361018D01*
X217336776Y-87288815D01*
X217130164Y-87156388D01*
X217054460Y-87201829D01*
X216898964Y-87369080D01*
X216749441Y-87281662D01*
X216727364Y-87013120D01*
X216729415Y-87005029D01*
X216683407Y-86642666D01*
X216396331Y-86372559D01*
X216016449Y-86188934D01*
X215858197Y-86252205D01*
X215374309Y-86252205D01*
X215270360Y-86140853D01*
X214993458Y-85861261D01*
X214865241Y-85705921D01*
X215111766Y-85705921D01*
X215198753Y-85792908D01*
X215285739Y-85705921D01*
X215198753Y-85618935D01*
X215111766Y-85705921D01*
X214865241Y-85705921D01*
X214726575Y-85537921D01*
X215659756Y-85537921D01*
X215671198Y-85711548D01*
X215844737Y-85906484D01*
X215998756Y-85966880D01*
X216044218Y-85866938D01*
X215944995Y-85723468D01*
X215732692Y-85547592D01*
X215659756Y-85537921D01*
X214726575Y-85537921D01*
X214639540Y-85432475D01*
X214332354Y-85022986D01*
X214701233Y-85022986D01*
X214800455Y-85166457D01*
X215028951Y-85342900D01*
X215106679Y-85280963D01*
X215064635Y-85184004D01*
X215285739Y-85184004D01*
X215372725Y-85270990D01*
X215459712Y-85184004D01*
X215372725Y-85097017D01*
X215285739Y-85184004D01*
X215064635Y-85184004D01*
X215031934Y-85108592D01*
X214805985Y-84932443D01*
X214746695Y-84923045D01*
X214701233Y-85022986D01*
X214332354Y-85022986D01*
X214267778Y-84936904D01*
X213958793Y-84488113D01*
X214241903Y-84488113D01*
X214328890Y-84575099D01*
X214415876Y-84488113D01*
X214763821Y-84488113D01*
X214850807Y-84575099D01*
X214937794Y-84488113D01*
X214850807Y-84401127D01*
X214763821Y-84488113D01*
X214415876Y-84488113D01*
X214328890Y-84401127D01*
X214241903Y-84488113D01*
X213958793Y-84488113D01*
X213937343Y-84456958D01*
X213707407Y-84075045D01*
X213657855Y-83932970D01*
X213896622Y-83932970D01*
X213962110Y-84004483D01*
X214061236Y-83884085D01*
X214208220Y-83728728D01*
X214324114Y-83892093D01*
X214341023Y-83935081D01*
X214476242Y-84147994D01*
X214549146Y-84151875D01*
X214529387Y-83964842D01*
X214420955Y-83798342D01*
X214147089Y-83626852D01*
X213939559Y-83735875D01*
X213896622Y-83932970D01*
X213657855Y-83932970D01*
X213637140Y-83873576D01*
X213639229Y-83869129D01*
X213610812Y-83742240D01*
X213515451Y-83744419D01*
X213330922Y-83648978D01*
X213306924Y-83501528D01*
X213234714Y-83289646D01*
X213132951Y-83282125D01*
X212918967Y-83198940D01*
X212628470Y-82903851D01*
X212590703Y-82853013D01*
X213595297Y-82853013D01*
X213631799Y-83027336D01*
X213644184Y-83060342D01*
X213782004Y-83273379D01*
X213860359Y-83274908D01*
X213840845Y-83090870D01*
X213741573Y-82962953D01*
X213595297Y-82853013D01*
X212590703Y-82853013D01*
X212545670Y-82792393D01*
X212306608Y-82487428D01*
X213198068Y-82487428D01*
X213261722Y-82630627D01*
X213314049Y-82603410D01*
X213334871Y-82396945D01*
X213314049Y-82371446D01*
X213210623Y-82395328D01*
X213198068Y-82487428D01*
X212306608Y-82487428D01*
X212284129Y-82458752D01*
X212173766Y-82412679D01*
X212210149Y-82630533D01*
X212388843Y-83088674D01*
X212705417Y-83763461D01*
X212741268Y-83835506D01*
X213153756Y-84732174D01*
X213430362Y-85543527D01*
X213591251Y-86375625D01*
X213656587Y-87334529D01*
X213646537Y-88526299D01*
X213644643Y-88586857D01*
X213501663Y-90299583D01*
X213190742Y-91714567D01*
X212709966Y-92839844D01*
X212582058Y-93048032D01*
X212314338Y-93523537D01*
X212161095Y-93864583D01*
X212085216Y-94166425D01*
X210285885Y-94166425D01*
X210517238Y-93959242D01*
X211001170Y-93412451D01*
X211507237Y-92656527D01*
X211644775Y-92403867D01*
X212328205Y-92403867D01*
X212391859Y-92547066D01*
X212444186Y-92519848D01*
X212465008Y-92313384D01*
X212444186Y-92287885D01*
X212340760Y-92311766D01*
X212328205Y-92403867D01*
X211644775Y-92403867D01*
X211881535Y-91968935D01*
X212502177Y-91968935D01*
X212589164Y-92055921D01*
X212676150Y-91968935D01*
X212589164Y-91881949D01*
X212502177Y-91968935D01*
X211881535Y-91968935D01*
X211963993Y-91817459D01*
X212157025Y-91360031D01*
X212676150Y-91360031D01*
X212739804Y-91503230D01*
X212792132Y-91476013D01*
X212812953Y-91269548D01*
X212792132Y-91244049D01*
X212688705Y-91267930D01*
X212676150Y-91360031D01*
X212157025Y-91360031D01*
X212299993Y-91021239D01*
X212379932Y-90736629D01*
X212515912Y-90736629D01*
X212547898Y-90962274D01*
X212607286Y-90964968D01*
X212648013Y-90736629D01*
X212863857Y-90736629D01*
X212895843Y-90962274D01*
X212955231Y-90964968D01*
X212996761Y-90732125D01*
X212968966Y-90631521D01*
X212891716Y-90565623D01*
X212863857Y-90736629D01*
X212648013Y-90736629D01*
X212648816Y-90732125D01*
X212621020Y-90631521D01*
X212543771Y-90565623D01*
X212515912Y-90736629D01*
X212379932Y-90736629D01*
X212414506Y-90613532D01*
X212533683Y-90300638D01*
X212681250Y-90232361D01*
X212795480Y-90172552D01*
X212847419Y-89914072D01*
X212834396Y-89707291D01*
X213058011Y-89707291D01*
X213076816Y-90004406D01*
X213131277Y-90030565D01*
X213138210Y-90015054D01*
X213172626Y-89669686D01*
X213144657Y-89493136D01*
X213089278Y-89422190D01*
X213059158Y-89653266D01*
X213058011Y-89707291D01*
X212834396Y-89707291D01*
X212827773Y-89602134D01*
X212735212Y-89389413D01*
X212675577Y-89171863D01*
X212621644Y-88699778D01*
X212608073Y-88474985D01*
X213211802Y-88474985D01*
X213243788Y-88700630D01*
X213303176Y-88703324D01*
X213344706Y-88470481D01*
X213316911Y-88369877D01*
X213239661Y-88303979D01*
X213211802Y-88474985D01*
X212608073Y-88474985D01*
X212583414Y-88066538D01*
X212578419Y-87925143D01*
X212507712Y-87365071D01*
X212783481Y-87365071D01*
X212798336Y-87474643D01*
X212907669Y-87684717D01*
X212937109Y-87706606D01*
X213033549Y-87572723D01*
X213075882Y-87474643D01*
X213034081Y-87270370D01*
X212937109Y-87242679D01*
X212783481Y-87365071D01*
X212507712Y-87365071D01*
X212363869Y-86225691D01*
X212058691Y-85101301D01*
X211776909Y-84327848D01*
X211439385Y-83545379D01*
X211232664Y-83127948D01*
X211870644Y-83127948D01*
X211877938Y-83461312D01*
X211910843Y-83705236D01*
X212013763Y-84185940D01*
X212132269Y-84494895D01*
X212180707Y-84546104D01*
X212315574Y-84746081D01*
X212328205Y-84850556D01*
X212415911Y-85072767D01*
X212482424Y-85097017D01*
X212597449Y-85251871D01*
X212711438Y-85643846D01*
X212754042Y-85879894D01*
X212841957Y-86345529D01*
X212929793Y-86625882D01*
X212963060Y-86662771D01*
X212993243Y-86510297D01*
X212961843Y-86126139D01*
X212931622Y-85923387D01*
X212802522Y-85344871D01*
X212604275Y-84668135D01*
X212373847Y-83999628D01*
X212148205Y-83445800D01*
X211964316Y-83113101D01*
X211949870Y-83096332D01*
X211870644Y-83127948D01*
X211232664Y-83127948D01*
X211084590Y-82828941D01*
X210915493Y-82537297D01*
X211486385Y-82537297D01*
X211528715Y-82634521D01*
X211703887Y-82821288D01*
X211804593Y-82782975D01*
X211806287Y-82758654D01*
X211682718Y-82611506D01*
X211605434Y-82557802D01*
X211486385Y-82537297D01*
X210915493Y-82537297D01*
X210750993Y-82253581D01*
X210597658Y-82052497D01*
X211980259Y-82052497D01*
X212067246Y-82139483D01*
X212154232Y-82052497D01*
X212067246Y-81965510D01*
X211980259Y-82052497D01*
X210597658Y-82052497D01*
X210477062Y-81894346D01*
X210455673Y-81878524D01*
X211110396Y-81878524D01*
X211197383Y-81965510D01*
X211284369Y-81878524D01*
X212676150Y-81878524D01*
X212763136Y-81965510D01*
X212850123Y-81878524D01*
X212763136Y-81791538D01*
X212676150Y-81878524D01*
X211284369Y-81878524D01*
X211197383Y-81791538D01*
X211110396Y-81878524D01*
X210455673Y-81878524D01*
X210376788Y-81820172D01*
X210315713Y-81651958D01*
X210341679Y-81594656D01*
X210266093Y-81411769D01*
X209977583Y-81047916D01*
X209525083Y-80551248D01*
X209462106Y-80486743D01*
X210414506Y-80486743D01*
X210501492Y-80573730D01*
X210588479Y-80486743D01*
X210501492Y-80399757D01*
X210414506Y-80486743D01*
X209462106Y-80486743D01*
X208957527Y-79969920D01*
X208684653Y-79703867D01*
X210936424Y-79703867D01*
X211000078Y-79847066D01*
X211052406Y-79819848D01*
X211073227Y-79613384D01*
X211052406Y-79587885D01*
X210948979Y-79611766D01*
X210936424Y-79703867D01*
X208684653Y-79703867D01*
X208323850Y-79352083D01*
X208129016Y-79170622D01*
X208543462Y-79170622D01*
X208567259Y-79181949D01*
X208726024Y-79059476D01*
X208761766Y-79007976D01*
X208806098Y-78845331D01*
X208782301Y-78834004D01*
X208623536Y-78956477D01*
X208587794Y-79007976D01*
X208543462Y-79170622D01*
X208129016Y-79170622D01*
X207674194Y-78747017D01*
X210240533Y-78747017D01*
X210327520Y-78834004D01*
X210414506Y-78747017D01*
X210327520Y-78660031D01*
X210240533Y-78747017D01*
X207674194Y-78747017D01*
X207672985Y-78745891D01*
X207145372Y-78280252D01*
X207911577Y-78280252D01*
X207963104Y-78409756D01*
X208073529Y-78428067D01*
X208300755Y-78401372D01*
X208326835Y-78380344D01*
X208197254Y-78244555D01*
X207974445Y-78232121D01*
X207911577Y-78280252D01*
X207145372Y-78280252D01*
X207053868Y-78199496D01*
X207003704Y-78158648D01*
X207456972Y-78158648D01*
X207564162Y-78252970D01*
X207630944Y-78225099D01*
X207757370Y-78051127D01*
X209718616Y-78051127D01*
X209805602Y-78138113D01*
X209892588Y-78051127D01*
X209805602Y-77964141D01*
X209718616Y-78051127D01*
X207757370Y-78051127D01*
X207798422Y-77994636D01*
X207804917Y-77943606D01*
X207697727Y-77849284D01*
X207630944Y-77877154D01*
X207463467Y-78107618D01*
X207456972Y-78158648D01*
X207003704Y-78158648D01*
X206515431Y-77761052D01*
X206251755Y-77570037D01*
X205811064Y-77239128D01*
X205761665Y-77189522D01*
X206676126Y-77189522D01*
X206892210Y-77407934D01*
X206935054Y-77442223D01*
X207310422Y-77716425D01*
X207436976Y-77759681D01*
X207309900Y-77571993D01*
X207196013Y-77442223D01*
X206896095Y-77183283D01*
X206690625Y-77098146D01*
X206676126Y-77189522D01*
X205761665Y-77189522D01*
X205542332Y-76969268D01*
X205500539Y-76833663D01*
X205504607Y-76772521D01*
X205411152Y-76816709D01*
X205147771Y-76820398D01*
X204671253Y-76707552D01*
X204446875Y-76629367D01*
X205765782Y-76629367D01*
X205845872Y-76777803D01*
X205887913Y-76829336D01*
X206133108Y-77070616D01*
X206233633Y-77015004D01*
X206239164Y-76938918D01*
X206099725Y-76752079D01*
X205953597Y-76673977D01*
X205765782Y-76629367D01*
X204446875Y-76629367D01*
X204106357Y-76510713D01*
X203943038Y-76456378D01*
X204905374Y-76456378D01*
X204929255Y-76559804D01*
X205021355Y-76572360D01*
X205164555Y-76508706D01*
X205137337Y-76456378D01*
X204930872Y-76435557D01*
X204905374Y-76456378D01*
X203943038Y-76456378D01*
X203420114Y-76282405D01*
X204383456Y-76282405D01*
X204407337Y-76385832D01*
X204499438Y-76398387D01*
X204642637Y-76334733D01*
X204615419Y-76282405D01*
X204408955Y-76261584D01*
X204383456Y-76282405D01*
X203420114Y-76282405D01*
X202561095Y-75996616D01*
X201529010Y-75789483D01*
X202759712Y-75789483D01*
X202846698Y-75876469D01*
X202933684Y-75789483D01*
X202846698Y-75702497D01*
X202759712Y-75789483D01*
X201529010Y-75789483D01*
X201082011Y-75699773D01*
X199740139Y-75631849D01*
X199116925Y-75691378D01*
X198118966Y-75869056D01*
X197351978Y-76064436D01*
X196699518Y-76314504D01*
X196045147Y-76656247D01*
X196003613Y-76680282D01*
X195544986Y-76993649D01*
X195021894Y-77420358D01*
X194506217Y-77891979D01*
X194069830Y-78340082D01*
X193784613Y-78696240D01*
X193713136Y-78860875D01*
X193601227Y-79071198D01*
X193393633Y-79305651D01*
X193051652Y-79793374D01*
X192726416Y-80534556D01*
X192453682Y-81435232D01*
X192303043Y-82171548D01*
X192256702Y-82945031D01*
X191328853Y-82945031D01*
X191332008Y-82532106D01*
X191368725Y-82192626D01*
X191446700Y-82012981D01*
X191574768Y-81930572D01*
X191633204Y-81913078D01*
X191890125Y-81762910D01*
X191976827Y-81566295D01*
X191849409Y-81447223D01*
X191799438Y-81443593D01*
X191636271Y-81580105D01*
X191625465Y-81652360D01*
X191566023Y-81769158D01*
X191431411Y-81667072D01*
X191341128Y-81422923D01*
X191465247Y-81020334D01*
X191518397Y-80909659D01*
X191591260Y-80747702D01*
X191973410Y-80747702D01*
X192037064Y-80890901D01*
X192089392Y-80863684D01*
X192110213Y-80657219D01*
X192089392Y-80631720D01*
X191985965Y-80655602D01*
X191973410Y-80747702D01*
X191591260Y-80747702D01*
X191705650Y-80493441D01*
X191792122Y-80225784D01*
X192147383Y-80225784D01*
X192211037Y-80368984D01*
X192263365Y-80341766D01*
X192284186Y-80135301D01*
X192263365Y-80109803D01*
X192159938Y-80133684D01*
X192147383Y-80225784D01*
X191792122Y-80225784D01*
X191797529Y-80209047D01*
X191799438Y-80186629D01*
X191910216Y-79945468D01*
X192060396Y-79766000D01*
X192280101Y-79379139D01*
X192326888Y-79126029D01*
X192436569Y-78674322D01*
X192572409Y-78430426D01*
X192767745Y-78211387D01*
X192898448Y-78275678D01*
X192991760Y-78430426D01*
X193142130Y-78642353D01*
X193285268Y-78581574D01*
X193427905Y-78399346D01*
X193593565Y-78107734D01*
X193602466Y-77969452D01*
X193455254Y-78018943D01*
X193352549Y-78143151D01*
X193195172Y-78300027D01*
X193041969Y-78154841D01*
X193005220Y-78094266D01*
X192891503Y-77967300D01*
X192723884Y-77967351D01*
X192442307Y-78122251D01*
X191986712Y-78459829D01*
X191660115Y-78717582D01*
X190948396Y-79263470D01*
X190172170Y-79826651D01*
X189491556Y-80291170D01*
X189450807Y-80317526D01*
X188749977Y-80801215D01*
X188105057Y-81304560D01*
X187576005Y-81774539D01*
X187222779Y-82158130D01*
X187104638Y-82392256D01*
X186343755Y-82392256D01*
X186330659Y-82361595D01*
X186272126Y-82243196D01*
X186069735Y-81907463D01*
X185931855Y-81792600D01*
X185911506Y-81813839D01*
X185278222Y-81813839D01*
X185369542Y-81704552D01*
X186580259Y-81704552D01*
X186667246Y-81791538D01*
X186754232Y-81704552D01*
X186667246Y-81617565D01*
X186580259Y-81704552D01*
X185369542Y-81704552D01*
X185405885Y-81661058D01*
X185714535Y-81383588D01*
X185939106Y-81269620D01*
X186164765Y-81158059D01*
X186501405Y-80883862D01*
X186561177Y-80826941D01*
X186911057Y-80514026D01*
X187440562Y-80072787D01*
X188051551Y-79584450D01*
X188232999Y-79443276D01*
X188718824Y-79065967D01*
X189943730Y-79065967D01*
X189967611Y-79169394D01*
X190059712Y-79181949D01*
X190202911Y-79118295D01*
X190175693Y-79065967D01*
X189969228Y-79045146D01*
X189943730Y-79065967D01*
X188718824Y-79065967D01*
X188863770Y-78953397D01*
X189458701Y-78487088D01*
X189859640Y-78168931D01*
X190420158Y-78168931D01*
X190546620Y-78289201D01*
X190581629Y-78312086D01*
X190900379Y-78465768D01*
X191052516Y-78440226D01*
X191016561Y-78312086D01*
X190768283Y-78160711D01*
X190614855Y-78140777D01*
X190420158Y-78168931D01*
X189859640Y-78168931D01*
X189912275Y-78127164D01*
X189998247Y-78057806D01*
X190511240Y-77745765D01*
X190868110Y-77734318D01*
X191085608Y-77792670D01*
X191033246Y-77666064D01*
X191479536Y-77666064D01*
X191521866Y-77763288D01*
X191774884Y-77954726D01*
X192027326Y-77839318D01*
X192052967Y-77802189D01*
X192031150Y-77578751D01*
X191976248Y-77530963D01*
X191814162Y-77547801D01*
X191799438Y-77616195D01*
X191690110Y-77721629D01*
X191598585Y-77686569D01*
X191479536Y-77666064D01*
X191033246Y-77666064D01*
X191032117Y-77663333D01*
X190954159Y-77564665D01*
X190917688Y-77500214D01*
X193249209Y-77500214D01*
X193273090Y-77603640D01*
X193365191Y-77616195D01*
X193508390Y-77552541D01*
X193481173Y-77500214D01*
X193274708Y-77479392D01*
X193249209Y-77500214D01*
X190917688Y-77500214D01*
X190824568Y-77335653D01*
X190964319Y-77187663D01*
X191145154Y-77111531D01*
X191541419Y-76891883D01*
X191970245Y-76572360D01*
X194235054Y-76572360D01*
X194298708Y-76715559D01*
X194351036Y-76688341D01*
X194371857Y-76481877D01*
X194351036Y-76456378D01*
X194247609Y-76480259D01*
X194235054Y-76572360D01*
X191970245Y-76572360D01*
X192014063Y-76539711D01*
X192159684Y-76412757D01*
X192556436Y-76089083D01*
X192872312Y-75898204D01*
X192954534Y-75876469D01*
X193192358Y-75756480D01*
X193220214Y-75703364D01*
X193263253Y-75650777D01*
X197127240Y-75650777D01*
X197366561Y-75675027D01*
X197613538Y-75647687D01*
X197584027Y-75587278D01*
X197227844Y-75564300D01*
X197149095Y-75587278D01*
X197127240Y-75650777D01*
X193263253Y-75650777D01*
X193375633Y-75513466D01*
X193451558Y-75441538D01*
X194756972Y-75441538D01*
X194843958Y-75528524D01*
X194895678Y-75476804D01*
X198171076Y-75476804D01*
X198410396Y-75501055D01*
X198657373Y-75473715D01*
X198627862Y-75413305D01*
X198271680Y-75390327D01*
X198192931Y-75413305D01*
X198171076Y-75476804D01*
X194895678Y-75476804D01*
X194930944Y-75441538D01*
X194843958Y-75354552D01*
X194756972Y-75441538D01*
X193451558Y-75441538D01*
X193693878Y-75211975D01*
X201383937Y-75211975D01*
X201508578Y-75332757D01*
X201541903Y-75354552D01*
X201803688Y-75506461D01*
X201884379Y-75461283D01*
X201889849Y-75354552D01*
X201849044Y-75312958D01*
X202661194Y-75312958D01*
X202832200Y-75340817D01*
X203057845Y-75308831D01*
X203060539Y-75249443D01*
X202827696Y-75207913D01*
X202727092Y-75235708D01*
X202661194Y-75312958D01*
X201849044Y-75312958D01*
X201746402Y-75208331D01*
X201585396Y-75183243D01*
X201383937Y-75211975D01*
X193693878Y-75211975D01*
X193729001Y-75178701D01*
X194091011Y-74868024D01*
X196770063Y-74868024D01*
X196867592Y-75047051D01*
X197248727Y-75108275D01*
X197928288Y-75056854D01*
X198921090Y-74897949D01*
X199332316Y-74820414D01*
X199970674Y-74705060D01*
X200326606Y-74667581D01*
X200456539Y-74706837D01*
X200432374Y-74798182D01*
X200548139Y-74864173D01*
X200933096Y-74910651D01*
X201508658Y-74928933D01*
X201613168Y-74928662D01*
X202273682Y-74950149D01*
X202810918Y-75015348D01*
X203115952Y-75110686D01*
X203124404Y-75116997D01*
X203456661Y-75286650D01*
X203935674Y-75433269D01*
X203977520Y-75442402D01*
X204560166Y-75606365D01*
X205057733Y-75818089D01*
X205386884Y-76034162D01*
X205464284Y-76211169D01*
X205461735Y-76215599D01*
X205519916Y-76300145D01*
X205706044Y-76277752D01*
X206071147Y-76336279D01*
X206638178Y-76632833D01*
X207039793Y-76903162D01*
X207543651Y-77240599D01*
X207934379Y-77458883D01*
X208132938Y-77514309D01*
X208138083Y-77510473D01*
X208088826Y-77350410D01*
X207848410Y-77141027D01*
X207598240Y-76910038D01*
X208674780Y-76910038D01*
X208801069Y-77087198D01*
X208848753Y-77094278D01*
X209018202Y-77034921D01*
X209022725Y-77017559D01*
X208900816Y-76869026D01*
X208848753Y-76833319D01*
X208688440Y-76847112D01*
X208674780Y-76910038D01*
X207598240Y-76910038D01*
X207556541Y-76871536D01*
X207456972Y-76659428D01*
X207334872Y-76379257D01*
X207171385Y-76203975D01*
X206965797Y-75988832D01*
X206590056Y-75555320D01*
X206089106Y-74958566D01*
X205507891Y-74253699D01*
X205341978Y-74049757D01*
X206239164Y-74049757D01*
X206326150Y-74136743D01*
X206413136Y-74049757D01*
X206326150Y-73962771D01*
X206239164Y-74049757D01*
X205341978Y-74049757D01*
X204917381Y-73527839D01*
X205891218Y-73527839D01*
X205978205Y-73614825D01*
X206065191Y-73527839D01*
X205978205Y-73440853D01*
X205891218Y-73527839D01*
X204917381Y-73527839D01*
X204891353Y-73495845D01*
X204284435Y-72740131D01*
X203732080Y-72041686D01*
X203507460Y-71750995D01*
X204527481Y-71750995D01*
X204569811Y-71848219D01*
X204744983Y-72034987D01*
X204845689Y-71996674D01*
X204847383Y-71972353D01*
X204723814Y-71825204D01*
X204646530Y-71771500D01*
X204527481Y-71750995D01*
X203507460Y-71750995D01*
X203279232Y-71455635D01*
X203138007Y-71266195D01*
X204151492Y-71266195D01*
X204238479Y-71353182D01*
X204325465Y-71266195D01*
X204238479Y-71179209D01*
X204151492Y-71266195D01*
X203138007Y-71266195D01*
X203054632Y-71154356D01*
X202712674Y-70756728D01*
X202403854Y-70516100D01*
X202296900Y-70483319D01*
X202065689Y-70586123D01*
X201619027Y-70867465D01*
X201011727Y-71286738D01*
X200298600Y-71803336D01*
X199534457Y-72376650D01*
X198774110Y-72966076D01*
X198072371Y-73531005D01*
X197484051Y-74030832D01*
X197366561Y-74135921D01*
X196941326Y-74566034D01*
X196770063Y-74868024D01*
X194091011Y-74868024D01*
X194205287Y-74769952D01*
X194227826Y-74751432D01*
X194784309Y-74327432D01*
X195135068Y-74143006D01*
X195310586Y-74182240D01*
X195312490Y-74185154D01*
X195417461Y-74233817D01*
X195450198Y-74000804D01*
X195571333Y-73642691D01*
X195757314Y-73491701D01*
X195993548Y-73353867D01*
X196496698Y-73353867D01*
X196583684Y-73440853D01*
X196670670Y-73353867D01*
X196583684Y-73266880D01*
X196496698Y-73353867D01*
X195993548Y-73353867D01*
X196042915Y-73325063D01*
X196242207Y-73179894D01*
X196844643Y-73179894D01*
X196931629Y-73266880D01*
X197018616Y-73179894D01*
X196931629Y-73092908D01*
X196844643Y-73179894D01*
X196242207Y-73179894D01*
X196488052Y-73000815D01*
X196950386Y-72627298D01*
X197413450Y-72246680D01*
X197701049Y-72027352D01*
X199151491Y-72027352D01*
X199278935Y-71943970D01*
X199301847Y-71921492D01*
X199439265Y-71693394D01*
X199420633Y-71609537D01*
X199291220Y-71661745D01*
X199204458Y-71824103D01*
X199151491Y-72027352D01*
X197701049Y-72027352D01*
X197768189Y-71976150D01*
X197935949Y-71875099D01*
X198124456Y-71775009D01*
X198439111Y-71536005D01*
X198752058Y-71277225D01*
X199189008Y-70918250D01*
X199628205Y-70918250D01*
X199715191Y-71005236D01*
X199802177Y-70918250D01*
X199715191Y-70831264D01*
X199628205Y-70918250D01*
X199189008Y-70918250D01*
X199249958Y-70868177D01*
X199848058Y-70378425D01*
X200150123Y-70131617D01*
X200251760Y-70048387D01*
X203107657Y-70048387D01*
X203194643Y-70135373D01*
X203281629Y-70048387D01*
X203194643Y-69961401D01*
X203107657Y-70048387D01*
X200251760Y-70048387D01*
X200764406Y-69628583D01*
X201317622Y-69172880D01*
X201725914Y-68833698D01*
X201847679Y-68730986D01*
X202168498Y-68492761D01*
X202369596Y-68402625D01*
X202535240Y-68533256D01*
G37*
G36*
X247757819Y-48375272D02*
G01*
X247775290Y-48811489D01*
X247744662Y-49302154D01*
X247673824Y-50103580D01*
X247585537Y-51168809D01*
X247486162Y-52414516D01*
X247382059Y-53757374D01*
X247279591Y-55114056D01*
X247185117Y-56401238D01*
X247105000Y-57535592D01*
X247045599Y-58433793D01*
X247037462Y-58566195D01*
X246983076Y-59384067D01*
X246906223Y-60430770D01*
X246815913Y-61588618D01*
X246721155Y-62739925D01*
X246691213Y-63089483D01*
X246596020Y-64235130D01*
X246502221Y-65445847D01*
X246419101Y-66596426D01*
X246355948Y-67561657D01*
X246342822Y-67786743D01*
X246290076Y-68640348D01*
X246215651Y-69727614D01*
X246127667Y-70935534D01*
X246034245Y-72151104D01*
X245986519Y-72744962D01*
X245885161Y-74026316D01*
X245777374Y-75459734D01*
X245674035Y-76896209D01*
X245586022Y-78186729D01*
X245561061Y-78573045D01*
X245483726Y-79742379D01*
X245395335Y-80998093D01*
X245305608Y-82206584D01*
X245224267Y-83234247D01*
X245206634Y-83444278D01*
X245131708Y-84385631D01*
X245047218Y-85548268D01*
X244961907Y-86806012D01*
X244884517Y-88032682D01*
X244859781Y-88450966D01*
X244787612Y-89615124D01*
X244710355Y-90501431D01*
X244606673Y-91179598D01*
X244455230Y-91719338D01*
X244234692Y-92190365D01*
X243923723Y-92662393D01*
X243500986Y-93205133D01*
X243346544Y-93395405D01*
X242936528Y-93908647D01*
X242382915Y-94615327D01*
X241751410Y-95430931D01*
X241107718Y-96270944D01*
X240957068Y-96468962D01*
X240322715Y-97302764D01*
X239688311Y-98134319D01*
X239118652Y-98878844D01*
X238678529Y-99451556D01*
X238598068Y-99555710D01*
X237925296Y-100426899D01*
X237105999Y-101490502D01*
X236204815Y-102662395D01*
X235286385Y-103858452D01*
X234415351Y-104994549D01*
X233656353Y-105986559D01*
X233599706Y-106060716D01*
X232256035Y-107819299D01*
X231105953Y-109322762D01*
X230132408Y-110592929D01*
X229318351Y-111651624D01*
X228646731Y-112520670D01*
X228100498Y-113221890D01*
X227662601Y-113777107D01*
X227315990Y-114208146D01*
X227043615Y-114536829D01*
X226828426Y-114784980D01*
X226653372Y-114974422D01*
X226565718Y-115063798D01*
X226184252Y-115317823D01*
X225828466Y-115358599D01*
X225703540Y-115289704D01*
X225518332Y-115221520D01*
X225065759Y-115086146D01*
X224415573Y-114902524D01*
X223637526Y-114689597D01*
X222801370Y-114466305D01*
X221976854Y-114251591D01*
X221233732Y-114064397D01*
X220852862Y-113972443D01*
X220401039Y-113861425D01*
X219681199Y-113679269D01*
X218761736Y-113443679D01*
X217711045Y-113172365D01*
X216597519Y-112883034D01*
X215489552Y-112593391D01*
X214455538Y-112321144D01*
X213719986Y-112125756D01*
X213504033Y-112068231D01*
X222070670Y-112068231D01*
X222211664Y-112217760D01*
X222331629Y-112236743D01*
X222563745Y-112199522D01*
X222592588Y-112168370D01*
X222456549Y-112056192D01*
X222331629Y-111999858D01*
X222107612Y-111996241D01*
X222070670Y-112068231D01*
X213504033Y-112068231D01*
X213048130Y-111946789D01*
X214299894Y-111946789D01*
X214323775Y-112050215D01*
X214415876Y-112062771D01*
X214559075Y-111999117D01*
X214531858Y-111946789D01*
X214325393Y-111925968D01*
X214299894Y-111946789D01*
X213048130Y-111946789D01*
X211802046Y-111614861D01*
X213397157Y-111614861D01*
X213438179Y-111705639D01*
X213535746Y-111714825D01*
X213752292Y-111598844D01*
X220388935Y-111598844D01*
X220412816Y-111702270D01*
X220504917Y-111714825D01*
X220648116Y-111651172D01*
X220620899Y-111598844D01*
X220414434Y-111578023D01*
X220388935Y-111598844D01*
X213752292Y-111598844D01*
X213771656Y-111588473D01*
X213805740Y-111542846D01*
X213777738Y-111443985D01*
X213642035Y-111474472D01*
X213397157Y-111614861D01*
X211802046Y-111614861D01*
X211785990Y-111610584D01*
X211084911Y-111424871D01*
X219867017Y-111424871D01*
X219890899Y-111528298D01*
X219982999Y-111540853D01*
X220126198Y-111477199D01*
X220098981Y-111424871D01*
X219892516Y-111404050D01*
X219867017Y-111424871D01*
X211084911Y-111424871D01*
X210002668Y-111138189D01*
X208691993Y-110793242D01*
X216960117Y-110793242D01*
X217199438Y-110817493D01*
X217446414Y-110790153D01*
X217416903Y-110729744D01*
X217060721Y-110706766D01*
X216981972Y-110729744D01*
X216960117Y-110793242D01*
X208691993Y-110793242D01*
X208400754Y-110716593D01*
X207559569Y-110497017D01*
X215981629Y-110497017D01*
X216128975Y-110631769D01*
X216373068Y-110668326D01*
X216627275Y-110640857D01*
X216564776Y-110538525D01*
X216503547Y-110497017D01*
X216143533Y-110335135D01*
X215987013Y-110438756D01*
X215981629Y-110497017D01*
X207559569Y-110497017D01*
X207010984Y-110353819D01*
X206518099Y-110226640D01*
X214491889Y-110226640D01*
X214760362Y-110321937D01*
X214763821Y-110323045D01*
X215300192Y-110461014D01*
X215555449Y-110445022D01*
X215546698Y-110323045D01*
X215314028Y-110206788D01*
X214900217Y-110165983D01*
X214884033Y-110166414D01*
X214525474Y-110184752D01*
X214491889Y-110226640D01*
X206518099Y-110226640D01*
X205864094Y-110057887D01*
X204990820Y-109836821D01*
X204421897Y-109698643D01*
X204412451Y-109696461D01*
X203759878Y-109540168D01*
X212328205Y-109540168D01*
X212415191Y-109627154D01*
X212502177Y-109540168D01*
X212415191Y-109453182D01*
X212328205Y-109540168D01*
X203759878Y-109540168D01*
X203347974Y-109441516D01*
X202443612Y-109206348D01*
X201741016Y-109003259D01*
X201281833Y-108844553D01*
X201107716Y-108742533D01*
X201119360Y-108723684D01*
X201140827Y-108681275D01*
X201047576Y-108699460D01*
X200764787Y-108690620D01*
X200640918Y-108670305D01*
X210762451Y-108670305D01*
X210846504Y-108901965D01*
X210917811Y-108931264D01*
X211107995Y-108792814D01*
X211173310Y-108670305D01*
X211146579Y-108445863D01*
X211017950Y-108409346D01*
X210792066Y-108548726D01*
X210762451Y-108670305D01*
X200640918Y-108670305D01*
X200263044Y-108608332D01*
X199742782Y-108492300D01*
X199069898Y-108322360D01*
X203803547Y-108322360D01*
X203890533Y-108409346D01*
X203977520Y-108322360D01*
X203890533Y-108235373D01*
X203803547Y-108322360D01*
X199069898Y-108322360D01*
X198900034Y-108279460D01*
X198391197Y-108148387D01*
X210936424Y-108148387D01*
X211023410Y-108235373D01*
X211110396Y-108148387D01*
X211023410Y-108061401D01*
X210936424Y-108148387D01*
X198391197Y-108148387D01*
X197867146Y-108013395D01*
X196722154Y-107714740D01*
X195677445Y-107439518D01*
X205046472Y-107439518D01*
X205087494Y-107530297D01*
X205185061Y-107539483D01*
X205420971Y-107413130D01*
X205455055Y-107367503D01*
X205427053Y-107268642D01*
X205291350Y-107299130D01*
X205046472Y-107439518D01*
X195677445Y-107439518D01*
X195543094Y-107404124D01*
X195070926Y-107278524D01*
X203455602Y-107278524D01*
X203542588Y-107365510D01*
X203629575Y-107278524D01*
X203542588Y-107191538D01*
X203455602Y-107278524D01*
X195070926Y-107278524D01*
X194515959Y-107130899D01*
X210987556Y-107130899D01*
X211116336Y-107349780D01*
X211447815Y-107505368D01*
X211737914Y-107539483D01*
X212132925Y-107584456D01*
X212324739Y-107694610D01*
X212328205Y-107713456D01*
X212183854Y-107858853D01*
X212009255Y-107887428D01*
X211753587Y-108019169D01*
X211689049Y-108331147D01*
X211839509Y-108698492D01*
X211851303Y-108713798D01*
X211954334Y-108830236D01*
X212082586Y-108895038D01*
X212296741Y-108902193D01*
X212657481Y-108845693D01*
X212663851Y-108844278D01*
X214942471Y-108844278D01*
X216114447Y-109077053D01*
X216833276Y-109252420D01*
X217515996Y-109472703D01*
X217938821Y-109653596D01*
X218336105Y-109846778D01*
X218567295Y-109927932D01*
X218591218Y-109919745D01*
X218735578Y-109922708D01*
X219096308Y-110024389D01*
X219243616Y-110074950D01*
X219687870Y-110181783D01*
X220283233Y-110258820D01*
X220939683Y-110303477D01*
X221567195Y-110313170D01*
X222075745Y-110285315D01*
X222375309Y-110217327D01*
X222418616Y-110166091D01*
X222564477Y-110006482D01*
X222899282Y-109845547D01*
X223268862Y-109739752D01*
X223519047Y-109745560D01*
X223534648Y-109757342D01*
X223604964Y-109683315D01*
X223633795Y-109363688D01*
X223633760Y-109351698D01*
X223601077Y-109034266D01*
X223503687Y-109047996D01*
X223481534Y-109080317D01*
X223309352Y-109213041D01*
X223212972Y-109123810D01*
X222956856Y-108961732D01*
X222756294Y-108931264D01*
X222470447Y-108876093D01*
X222471684Y-108686050D01*
X222711976Y-108373543D01*
X222910130Y-107995417D01*
X223036618Y-107460402D01*
X223050423Y-107316008D01*
X223080638Y-106827557D01*
X223101607Y-106494045D01*
X223105008Y-106441887D01*
X223229873Y-106384454D01*
X223331972Y-106426447D01*
X223374539Y-106401076D01*
X223211546Y-106183011D01*
X223132465Y-106093869D01*
X222868619Y-105752775D01*
X222842998Y-105517193D01*
X222934711Y-105371841D01*
X223184343Y-105198244D01*
X223316179Y-105207972D01*
X223408559Y-105138714D01*
X223398310Y-104818011D01*
X223397759Y-104814619D01*
X223334234Y-104412185D01*
X223302785Y-104190510D01*
X223159115Y-104074117D01*
X222909619Y-104080929D01*
X222767070Y-104202311D01*
X222766561Y-104212274D01*
X222628198Y-104390860D01*
X222294744Y-104609207D01*
X222288136Y-104612649D01*
X221468748Y-105065720D01*
X220929472Y-105427345D01*
X220690464Y-105683524D01*
X220679990Y-105729685D01*
X220618050Y-105842892D01*
X220414955Y-106008982D01*
X220043208Y-106243137D01*
X219475310Y-106560542D01*
X218683761Y-106976377D01*
X217641064Y-107505827D01*
X216319720Y-108164075D01*
X215853488Y-108394552D01*
X214942471Y-108844278D01*
X212663851Y-108844278D01*
X213225486Y-108719529D01*
X214061438Y-108517691D01*
X214218242Y-108479405D01*
X214998721Y-108276753D01*
X215668450Y-108080581D01*
X216145121Y-107916323D01*
X216329575Y-107827008D01*
X216628227Y-107639002D01*
X217112219Y-107373499D01*
X217460396Y-107195795D01*
X217954163Y-106943031D01*
X218307435Y-106746747D01*
X218417246Y-106672249D01*
X218603784Y-106529536D01*
X218977855Y-106273321D01*
X219200123Y-106126996D01*
X219728568Y-105739730D01*
X220326986Y-105238659D01*
X220662441Y-104928257D01*
X221075818Y-104513595D01*
X221267636Y-104262398D01*
X221270647Y-104100663D01*
X221117603Y-103954383D01*
X221099379Y-103940971D01*
X220811640Y-103809339D01*
X220709892Y-103880037D01*
X220556629Y-104039340D01*
X220377944Y-104031388D01*
X220336477Y-103929552D01*
X220435543Y-103702652D01*
X220594669Y-103465152D01*
X220799284Y-103239909D01*
X220982517Y-103267517D01*
X221191561Y-103442759D01*
X221525973Y-103647757D01*
X221851084Y-103601118D01*
X222219664Y-103278684D01*
X222580626Y-102806872D01*
X222930210Y-102323847D01*
X223234506Y-101929781D01*
X223346408Y-101798387D01*
X223617798Y-101432765D01*
X223834467Y-101016286D01*
X223970231Y-100630705D01*
X223998903Y-100357781D01*
X223894298Y-100279269D01*
X223822418Y-100312190D01*
X223602364Y-100284866D01*
X223534903Y-100209116D01*
X223368271Y-100137650D01*
X223164180Y-100336758D01*
X222964119Y-100566304D01*
X222812213Y-100513039D01*
X222676273Y-100340057D01*
X222528002Y-100055342D01*
X222578232Y-99751861D01*
X222686036Y-99524248D01*
X222856564Y-99275784D01*
X223462451Y-99275784D01*
X223549438Y-99362771D01*
X223636424Y-99275784D01*
X223549438Y-99188798D01*
X223462451Y-99275784D01*
X222856564Y-99275784D01*
X222988333Y-99083792D01*
X223300262Y-98782592D01*
X223527968Y-98544469D01*
X223467578Y-98409090D01*
X223169188Y-98402269D01*
X222810879Y-98606074D01*
X222509837Y-98931631D01*
X222387784Y-99228006D01*
X222219335Y-99557688D01*
X221862746Y-99677858D01*
X221523770Y-99784107D01*
X221489921Y-99982310D01*
X221450779Y-100191085D01*
X221258131Y-100232634D01*
X220866216Y-100329936D01*
X220550512Y-100498635D01*
X220044043Y-100679180D01*
X219748550Y-100658673D01*
X219356408Y-100663567D01*
X219045775Y-100953300D01*
X218847872Y-101191143D01*
X218765192Y-101201656D01*
X218765191Y-101201229D01*
X218659213Y-101178978D01*
X218460739Y-101316529D01*
X218138763Y-101533050D01*
X217624665Y-101812840D01*
X217193436Y-102019875D01*
X216635154Y-102300379D01*
X216189127Y-102574620D01*
X215997819Y-102735729D01*
X215686845Y-102968163D01*
X215497973Y-103016195D01*
X215238164Y-103115465D01*
X214821776Y-103368923D01*
X214337929Y-103710044D01*
X213875746Y-104072304D01*
X213524349Y-104389177D01*
X213372858Y-104594137D01*
X213372040Y-104603105D01*
X213236228Y-104748240D01*
X213174524Y-104755921D01*
X212930925Y-104873440D01*
X212603489Y-105159506D01*
X212573927Y-105190853D01*
X212231697Y-105488742D01*
X211944701Y-105624915D01*
X211928544Y-105625784D01*
X211596689Y-105760465D01*
X211312905Y-106071995D01*
X211187027Y-106421604D01*
X211205049Y-106539877D01*
X211204158Y-106829302D01*
X211129855Y-106918553D01*
X210987556Y-107130899D01*
X194515959Y-107130899D01*
X194408003Y-107102182D01*
X193394916Y-106829543D01*
X192581870Y-106606841D01*
X192147383Y-106484151D01*
X191877881Y-106408661D01*
X204673410Y-106408661D01*
X204760396Y-106495647D01*
X204847383Y-106408661D01*
X204760396Y-106321675D01*
X204673410Y-106408661D01*
X191877881Y-106408661D01*
X191613445Y-106334590D01*
X190810191Y-106116011D01*
X189805231Y-105846264D01*
X188666176Y-105543201D01*
X187460635Y-105224674D01*
X186256220Y-104908534D01*
X185120540Y-104612632D01*
X184121206Y-104354820D01*
X183325829Y-104152948D01*
X183187794Y-104118527D01*
X182579659Y-103954060D01*
X182077547Y-103794473D01*
X181841867Y-103698744D01*
X181529692Y-103565257D01*
X181381412Y-103555898D01*
X181470118Y-103667490D01*
X181535054Y-103712086D01*
X181688193Y-103844885D01*
X181519174Y-103882600D01*
X181468252Y-103883394D01*
X180919604Y-103810068D01*
X180302334Y-103619468D01*
X179769225Y-103366960D01*
X179524147Y-103178872D01*
X179458572Y-103103182D01*
X179969301Y-103103182D01*
X180056287Y-103190168D01*
X180143273Y-103103182D01*
X180056287Y-103016195D01*
X179969301Y-103103182D01*
X179458572Y-103103182D01*
X179454796Y-103098823D01*
X179395955Y-103005103D01*
X179368111Y-102929209D01*
X181535054Y-102929209D01*
X181622040Y-103016195D01*
X181709027Y-102929209D01*
X181622040Y-102842223D01*
X181535054Y-102929209D01*
X179368111Y-102929209D01*
X179345570Y-102867770D01*
X179301586Y-102656881D01*
X179261949Y-102342495D01*
X179224605Y-101894669D01*
X179213479Y-101711401D01*
X181709027Y-101711401D01*
X181796013Y-101798387D01*
X181882999Y-101711401D01*
X181796013Y-101624415D01*
X181709027Y-101711401D01*
X179213479Y-101711401D01*
X179187499Y-101283460D01*
X179148578Y-100478926D01*
X179105787Y-99451126D01*
X179057072Y-98170115D01*
X179000378Y-96605952D01*
X178933651Y-94728695D01*
X178922164Y-94404552D01*
X178893010Y-93621675D01*
X180665191Y-93621675D01*
X180728845Y-93764874D01*
X180781173Y-93737657D01*
X180801994Y-93531192D01*
X180781173Y-93505693D01*
X180677746Y-93529574D01*
X180665191Y-93621675D01*
X178893010Y-93621675D01*
X178866943Y-92921700D01*
X178863009Y-92824300D01*
X180330980Y-92824300D01*
X180362966Y-93049945D01*
X180422354Y-93052639D01*
X180463885Y-92819796D01*
X180436089Y-92719192D01*
X180358839Y-92653294D01*
X180330980Y-92824300D01*
X178863009Y-92824300D01*
X178855983Y-92650328D01*
X180678926Y-92650328D01*
X180710912Y-92875973D01*
X180770299Y-92878667D01*
X180811830Y-92645824D01*
X180784034Y-92545219D01*
X180706785Y-92479322D01*
X180678926Y-92650328D01*
X178855983Y-92650328D01*
X178807383Y-91447017D01*
X180491218Y-91447017D01*
X180578205Y-91534004D01*
X180665191Y-91447017D01*
X180578205Y-91360031D01*
X180491218Y-91447017D01*
X178807383Y-91447017D01*
X178805506Y-91400551D01*
X178769218Y-90562657D01*
X180504953Y-90562657D01*
X180536939Y-90788302D01*
X180596327Y-90790996D01*
X180637857Y-90558152D01*
X180610062Y-90457548D01*
X180532812Y-90391651D01*
X180504953Y-90562657D01*
X178769218Y-90562657D01*
X178753969Y-90210564D01*
X181205891Y-90210564D01*
X181253637Y-90450140D01*
X181448068Y-90838113D01*
X181623421Y-91116277D01*
X181693405Y-91102625D01*
X181708395Y-90925099D01*
X181734288Y-90684298D01*
X181839034Y-90739509D01*
X181962151Y-90896577D01*
X182125544Y-91372914D01*
X182107261Y-91813425D01*
X182067140Y-92205142D01*
X182143374Y-92333844D01*
X182294601Y-92301760D01*
X182520484Y-92305936D01*
X182578890Y-92559226D01*
X182698783Y-92871020D01*
X182883342Y-92937559D01*
X183049052Y-92973324D01*
X182910051Y-93081214D01*
X182796355Y-93138117D01*
X182602196Y-93261167D01*
X182485401Y-93452736D01*
X182426624Y-93792671D01*
X182406516Y-94360818D01*
X182404917Y-94753562D01*
X182419872Y-95607334D01*
X182459154Y-96494247D01*
X182514393Y-97227334D01*
X182516687Y-97249579D01*
X182597038Y-97851463D01*
X182698510Y-98179345D01*
X182851130Y-98307056D01*
X182951618Y-98318935D01*
X183219813Y-98434752D01*
X183274780Y-98579894D01*
X183199443Y-98811666D01*
X183135741Y-98840853D01*
X183061934Y-98992112D01*
X183059212Y-99364594D01*
X183067789Y-99449757D01*
X183153701Y-99852257D01*
X183272890Y-100053414D01*
X183293814Y-100058661D01*
X183419752Y-100204539D01*
X183448753Y-100406606D01*
X183557533Y-100689971D01*
X183709712Y-100754552D01*
X183940569Y-100884428D01*
X183970670Y-100997237D01*
X184138007Y-101187166D01*
X184623981Y-101306471D01*
X184710054Y-101316330D01*
X185307509Y-101348849D01*
X185674539Y-101309906D01*
X185774008Y-101211852D01*
X185568778Y-101067039D01*
X185520848Y-101046671D01*
X185263183Y-100909226D01*
X185325337Y-100822402D01*
X185376156Y-100808019D01*
X185703399Y-100816218D01*
X186189208Y-100986366D01*
X186892296Y-101339525D01*
X186958533Y-101375681D01*
X187390424Y-101551820D01*
X188003578Y-101732070D01*
X188437300Y-101830718D01*
X188997500Y-101962575D01*
X189407869Y-102098823D01*
X189555210Y-102187046D01*
X189806355Y-102359325D01*
X189903155Y-102385924D01*
X190199971Y-102500864D01*
X190632570Y-102733092D01*
X190748832Y-102803631D01*
X191176554Y-103029219D01*
X191420058Y-103038109D01*
X191495470Y-102967044D01*
X191594725Y-102901456D01*
X191589226Y-103096267D01*
X191654120Y-103366672D01*
X191969600Y-103638098D01*
X192321355Y-103833854D01*
X192854510Y-104076193D01*
X193256323Y-104208971D01*
X193474890Y-104224520D01*
X193458310Y-104115171D01*
X193304277Y-103979087D01*
X193097341Y-103721752D01*
X193097078Y-103549688D01*
X193115378Y-103380188D01*
X193066285Y-103364141D01*
X192855979Y-103257464D01*
X192508317Y-102991145D01*
X192387126Y-102885716D01*
X191919412Y-102469939D01*
X191373106Y-101989020D01*
X191174040Y-101815006D01*
X190665242Y-101366652D01*
X190177227Y-100929125D01*
X190018033Y-100783853D01*
X189673229Y-100529192D01*
X189445448Y-100461049D01*
X189399038Y-100568302D01*
X189598348Y-100839831D01*
X189612353Y-100853964D01*
X189812557Y-101141152D01*
X189746094Y-101251127D01*
X189475416Y-101119577D01*
X189408381Y-101064017D01*
X188981594Y-100788650D01*
X188711424Y-100676419D01*
X188399477Y-100457813D01*
X188319986Y-100235408D01*
X188224252Y-99931513D01*
X188115211Y-99845426D01*
X188004563Y-99671281D01*
X188050146Y-99551112D01*
X188204672Y-99468506D01*
X188446009Y-99655445D01*
X188587272Y-99822338D01*
X188879277Y-100108805D01*
X189100237Y-100189970D01*
X189130761Y-100172170D01*
X189095538Y-99994292D01*
X188861908Y-99706567D01*
X188520979Y-99392143D01*
X188163858Y-99134168D01*
X187881654Y-99015791D01*
X187862630Y-99014825D01*
X187618357Y-99152848D01*
X187575424Y-99232291D01*
X187424533Y-99351958D01*
X187353816Y-99315135D01*
X187346439Y-99106998D01*
X187492287Y-98898101D01*
X187620622Y-98729801D01*
X187617453Y-98543179D01*
X187451051Y-98265121D01*
X187089685Y-97822514D01*
X186960014Y-97671616D01*
X186429017Y-97065259D01*
X185874918Y-96446458D01*
X185492931Y-96030277D01*
X185128690Y-95598657D01*
X184891883Y-95236826D01*
X184840533Y-95086246D01*
X184766210Y-94863464D01*
X184710054Y-94839147D01*
X184540006Y-94698434D01*
X184249544Y-94324235D01*
X183886313Y-93787728D01*
X183497958Y-93160095D01*
X183132123Y-92512516D01*
X183056288Y-92368451D01*
X182781984Y-91893452D01*
X182585299Y-91703880D01*
X182428372Y-91754111D01*
X182299444Y-91823090D01*
X182292175Y-91615168D01*
X182321051Y-91441581D01*
X182312395Y-91058932D01*
X182192390Y-90644030D01*
X182008731Y-90287565D01*
X181809112Y-90080225D01*
X181641230Y-90112701D01*
X181630498Y-90128538D01*
X181422404Y-90245472D01*
X181349060Y-90221780D01*
X181205891Y-90210564D01*
X178753969Y-90210564D01*
X178741320Y-89918489D01*
X178709544Y-89234768D01*
X182760654Y-89234768D01*
X182790267Y-89621218D01*
X183024212Y-90288394D01*
X183460882Y-91237843D01*
X183608880Y-91534004D01*
X183795026Y-91882426D01*
X184124955Y-92479846D01*
X184569307Y-93273453D01*
X184993171Y-94024213D01*
X185714901Y-95212543D01*
X186518884Y-96354816D01*
X187474541Y-97544410D01*
X188365282Y-98560094D01*
X189041637Y-99261723D01*
X189827342Y-100001392D01*
X190655194Y-100723076D01*
X191457987Y-101370751D01*
X192168516Y-101888392D01*
X192719579Y-102219972D01*
X192799780Y-102256919D01*
X193175440Y-102457215D01*
X193360995Y-102633594D01*
X193365191Y-102654298D01*
X193503017Y-102744056D01*
X193697271Y-102722807D01*
X194001687Y-102760353D01*
X194088710Y-102925385D01*
X194261490Y-103114107D01*
X194655301Y-103373354D01*
X195166544Y-103648421D01*
X195691622Y-103884601D01*
X196126937Y-104027189D01*
X196200601Y-104040598D01*
X196136736Y-103935980D01*
X195862814Y-103636150D01*
X195421213Y-103185360D01*
X194854310Y-102627859D01*
X194765327Y-102541855D01*
X194166352Y-101947867D01*
X193672258Y-101426853D01*
X193331417Y-101032089D01*
X193192205Y-100816851D01*
X193191218Y-100808250D01*
X193054043Y-100564750D01*
X192837733Y-100403641D01*
X192570172Y-100175367D01*
X192510401Y-100006082D01*
X192510956Y-99473292D01*
X192346244Y-99232716D01*
X192208924Y-99224665D01*
X191932559Y-99109423D01*
X191746500Y-98753867D01*
X191519067Y-98305040D01*
X191250027Y-98004618D01*
X190992953Y-97720618D01*
X190929575Y-97526193D01*
X190832438Y-97301079D01*
X190755602Y-97275099D01*
X190601257Y-97134189D01*
X190581629Y-97014141D01*
X190441458Y-96786284D01*
X190308947Y-96753182D01*
X190117605Y-96649719D01*
X190142051Y-96419877D01*
X190150609Y-96144278D01*
X190581629Y-96144278D01*
X190668616Y-96231264D01*
X190755602Y-96144278D01*
X190668616Y-96057291D01*
X190581629Y-96144278D01*
X190150609Y-96144278D01*
X190152004Y-96099349D01*
X190068781Y-95975910D01*
X189962112Y-95995610D01*
X189993331Y-96135242D01*
X189990400Y-96364141D01*
X189904352Y-96405236D01*
X189720692Y-96283509D01*
X189711766Y-96231264D01*
X189600715Y-95984311D01*
X189407314Y-95747909D01*
X189292418Y-95622360D01*
X190233684Y-95622360D01*
X190320670Y-95709346D01*
X190407657Y-95622360D01*
X190320670Y-95535373D01*
X190233684Y-95622360D01*
X189292418Y-95622360D01*
X189085743Y-95396521D01*
X188955063Y-95245419D01*
X189943730Y-95245419D01*
X189967611Y-95348846D01*
X190059712Y-95361401D01*
X190202911Y-95297747D01*
X190175693Y-95245419D01*
X189969228Y-95224598D01*
X189943730Y-95245419D01*
X188955063Y-95245419D01*
X188599797Y-94834632D01*
X188506274Y-94723501D01*
X188899894Y-94723501D01*
X188923775Y-94826928D01*
X189015876Y-94839483D01*
X189159075Y-94775829D01*
X189131858Y-94723501D01*
X188925393Y-94702680D01*
X188899894Y-94723501D01*
X188506274Y-94723501D01*
X188001758Y-94124000D01*
X187874430Y-93969620D01*
X188493958Y-93969620D01*
X188557612Y-94112819D01*
X188609940Y-94085602D01*
X188630408Y-93882634D01*
X188841903Y-93882634D01*
X188928890Y-93969620D01*
X189015876Y-93882634D01*
X188928890Y-93795647D01*
X188841903Y-93882634D01*
X188630408Y-93882634D01*
X188630761Y-93879137D01*
X188609940Y-93853638D01*
X188506513Y-93877519D01*
X188493958Y-93969620D01*
X187874430Y-93969620D01*
X187443967Y-93447702D01*
X188146013Y-93447702D01*
X188209667Y-93590901D01*
X188261995Y-93563684D01*
X188282816Y-93357219D01*
X188261995Y-93331720D01*
X188158568Y-93355602D01*
X188146013Y-93447702D01*
X187443967Y-93447702D01*
X187343908Y-93326384D01*
X187018218Y-92925784D01*
X186587031Y-92395168D01*
X187163068Y-92395168D01*
X187167041Y-92491906D01*
X187220777Y-92396012D01*
X187371385Y-92364491D01*
X187565539Y-92565635D01*
X187813837Y-92862778D01*
X187926351Y-92903615D01*
X187853880Y-92696287D01*
X187754575Y-92534346D01*
X187472842Y-92229669D01*
X187253566Y-92211551D01*
X187163068Y-92395168D01*
X186587031Y-92395168D01*
X186563197Y-92365838D01*
X186219308Y-91957260D01*
X185912465Y-91620990D01*
X187102177Y-91620990D01*
X187189164Y-91707976D01*
X187276150Y-91620990D01*
X187189164Y-91534004D01*
X187102177Y-91620990D01*
X185912465Y-91620990D01*
X185905703Y-91613580D01*
X185541534Y-91248327D01*
X185385252Y-91099072D01*
X186406287Y-91099072D01*
X186493273Y-91186058D01*
X186580259Y-91099072D01*
X186493273Y-91012086D01*
X186406287Y-91099072D01*
X185385252Y-91099072D01*
X185045953Y-90775030D01*
X185020623Y-90751127D01*
X186058342Y-90751127D01*
X186145328Y-90838113D01*
X186232314Y-90751127D01*
X186145328Y-90664141D01*
X186058342Y-90751127D01*
X185020623Y-90751127D01*
X184717673Y-90465238D01*
X183913884Y-89744279D01*
X183402548Y-89359346D01*
X185014506Y-89359346D01*
X185101492Y-89446332D01*
X185188479Y-89359346D01*
X185101492Y-89272360D01*
X185014506Y-89359346D01*
X183402548Y-89359346D01*
X183320856Y-89297848D01*
X182936982Y-89127495D01*
X182760654Y-89234768D01*
X178709544Y-89234768D01*
X178677853Y-88552896D01*
X178618573Y-87381156D01*
X178582407Y-86749757D01*
X181709027Y-86749757D01*
X181796013Y-86836743D01*
X181882999Y-86749757D01*
X181796013Y-86662771D01*
X181709027Y-86749757D01*
X178582407Y-86749757D01*
X178567460Y-86488798D01*
X178542703Y-86053867D01*
X181361081Y-86053867D01*
X181448068Y-86140853D01*
X181535054Y-86053867D01*
X181448068Y-85966880D01*
X181361081Y-86053867D01*
X178542703Y-86053867D01*
X178515213Y-85570924D01*
X178456159Y-84385434D01*
X178393815Y-83012503D01*
X178331694Y-81532309D01*
X178320530Y-81244086D01*
X182159739Y-81244086D01*
X182216691Y-81446811D01*
X182483622Y-81759465D01*
X182650361Y-81908019D01*
X182937468Y-82207265D01*
X183195811Y-82576386D01*
X183388779Y-82938743D01*
X183479761Y-83217696D01*
X183432147Y-83336608D01*
X183312174Y-83293416D01*
X183073656Y-83291650D01*
X183020206Y-83346961D01*
X183070876Y-83563625D01*
X183315729Y-83985435D01*
X183714719Y-84560232D01*
X184227803Y-85235859D01*
X184814939Y-85960158D01*
X185436082Y-86680973D01*
X186051190Y-87346144D01*
X186232314Y-87530816D01*
X186824582Y-88111953D01*
X187480015Y-88734182D01*
X188147055Y-89351089D01*
X188774141Y-89916261D01*
X189309713Y-90383284D01*
X189702213Y-90705745D01*
X189900081Y-90837231D01*
X189906319Y-90838113D01*
X190031005Y-90984003D01*
X190059712Y-91186058D01*
X190123260Y-91468898D01*
X190211259Y-91534004D01*
X190394465Y-91665280D01*
X190671705Y-91994257D01*
X190776670Y-92141719D01*
X191063565Y-92517969D01*
X191286184Y-92732014D01*
X191333440Y-92750623D01*
X191631930Y-92903127D01*
X191876448Y-93264632D01*
X191973410Y-93683796D01*
X192111736Y-94104748D01*
X192509333Y-94682979D01*
X192821396Y-95044510D01*
X193876010Y-96195579D01*
X194719511Y-97118240D01*
X195374814Y-97841566D01*
X195864835Y-98394631D01*
X196212489Y-98806510D01*
X196440690Y-99106274D01*
X196572355Y-99322999D01*
X196630398Y-99485757D01*
X196637735Y-99623622D01*
X196617280Y-99765667D01*
X196604292Y-99844048D01*
X196639547Y-100336304D01*
X196942071Y-100691783D01*
X197545396Y-100944330D01*
X197744283Y-100994685D01*
X198205780Y-101270719D01*
X198680374Y-101890207D01*
X198701133Y-101924600D01*
X199058901Y-102429318D01*
X199581415Y-103054544D01*
X200173885Y-103689040D01*
X200369032Y-103881920D01*
X200880801Y-104394857D01*
X201279581Y-104830574D01*
X201509305Y-105125953D01*
X201543347Y-105204020D01*
X201682541Y-105494059D01*
X202032005Y-105836232D01*
X202484140Y-106141158D01*
X202867453Y-106303926D01*
X203384953Y-106380942D01*
X203807107Y-106248413D01*
X204126073Y-105973730D01*
X205369301Y-105973730D01*
X205432954Y-106116929D01*
X205485282Y-106089711D01*
X205506103Y-105883247D01*
X205485282Y-105857748D01*
X205381856Y-105881629D01*
X205369301Y-105973730D01*
X204126073Y-105973730D01*
X204255391Y-105862365D01*
X204340983Y-105770498D01*
X204520250Y-105625784D01*
X205804232Y-105625784D01*
X205812185Y-105786353D01*
X205870684Y-105799757D01*
X206116625Y-105672800D01*
X206152177Y-105625784D01*
X206151616Y-105614457D01*
X208021544Y-105614457D01*
X208045341Y-105625784D01*
X208204106Y-105503311D01*
X208239849Y-105451812D01*
X208284180Y-105289166D01*
X208260383Y-105277839D01*
X208101618Y-105400312D01*
X208065876Y-105451812D01*
X208021544Y-105614457D01*
X206151616Y-105614457D01*
X206144225Y-105465215D01*
X206085726Y-105451812D01*
X205839784Y-105578769D01*
X205804232Y-105625784D01*
X204520250Y-105625784D01*
X204759606Y-105432563D01*
X205175111Y-105277971D01*
X205210846Y-105276330D01*
X205430412Y-105206695D01*
X208500807Y-105206695D01*
X208632506Y-105208422D01*
X208687042Y-105190853D01*
X209196698Y-105190853D01*
X209283684Y-105277839D01*
X209370670Y-105190853D01*
X209283684Y-105103867D01*
X209196698Y-105190853D01*
X208687042Y-105190853D01*
X208761766Y-105166780D01*
X208992256Y-104984259D01*
X209022725Y-104889979D01*
X208919283Y-104832358D01*
X208761766Y-104929894D01*
X208545710Y-105135757D01*
X208500807Y-105206695D01*
X205430412Y-105206695D01*
X205597302Y-105153766D01*
X205848643Y-104987885D01*
X206645100Y-104987885D01*
X206668981Y-105091311D01*
X206761081Y-105103867D01*
X206904281Y-105040213D01*
X206877063Y-104987885D01*
X206670598Y-104967064D01*
X206645100Y-104987885D01*
X205848643Y-104987885D01*
X206075726Y-104838014D01*
X206271043Y-104667426D01*
X206302960Y-104639940D01*
X207167017Y-104639940D01*
X207190899Y-104743366D01*
X207282999Y-104755921D01*
X207426198Y-104692268D01*
X207398981Y-104639940D01*
X209254689Y-104639940D01*
X209278570Y-104743366D01*
X209370670Y-104755921D01*
X209513870Y-104692268D01*
X209486652Y-104639940D01*
X209280187Y-104619119D01*
X209254689Y-104639940D01*
X207398981Y-104639940D01*
X207192516Y-104619119D01*
X207167017Y-104639940D01*
X206302960Y-104639940D01*
X206370300Y-104581949D01*
X210501492Y-104581949D01*
X210515286Y-104742262D01*
X210578211Y-104755921D01*
X210755371Y-104629633D01*
X210762451Y-104581949D01*
X210703094Y-104412499D01*
X210685732Y-104407976D01*
X210537200Y-104529885D01*
X210501492Y-104581949D01*
X206370300Y-104581949D01*
X206677357Y-104317523D01*
X206974016Y-104118022D01*
X207862908Y-104118022D01*
X207886789Y-104221448D01*
X207978890Y-104234004D01*
X208122089Y-104170350D01*
X208094871Y-104118022D01*
X212038250Y-104118022D01*
X212062132Y-104221448D01*
X212154232Y-104234004D01*
X212297431Y-104170350D01*
X212270214Y-104118022D01*
X212063749Y-104097201D01*
X212038250Y-104118022D01*
X208094871Y-104118022D01*
X207888407Y-104097201D01*
X207862908Y-104118022D01*
X206974016Y-104118022D01*
X207003787Y-104098001D01*
X207114050Y-104060031D01*
X207387896Y-103966637D01*
X207492482Y-103904671D01*
X210414506Y-103904671D01*
X210475161Y-104050534D01*
X210673086Y-103901812D01*
X210765757Y-103795089D01*
X210880158Y-103625099D01*
X212850123Y-103625099D01*
X212937109Y-103712086D01*
X213024095Y-103625099D01*
X212937109Y-103538113D01*
X212850123Y-103625099D01*
X210880158Y-103625099D01*
X210892690Y-103606478D01*
X210755236Y-103619237D01*
X210700072Y-103639730D01*
X210454997Y-103809635D01*
X210414506Y-103904671D01*
X207492482Y-103904671D01*
X207768262Y-103741275D01*
X207778061Y-103734397D01*
X207950732Y-103625099D01*
X208848753Y-103625099D01*
X208935739Y-103712086D01*
X209022725Y-103625099D01*
X208935739Y-103538113D01*
X208848753Y-103625099D01*
X207950732Y-103625099D01*
X208246334Y-103437988D01*
X209292561Y-103437988D01*
X209306261Y-103532524D01*
X209308564Y-103532615D01*
X209537481Y-103398563D01*
X209568234Y-103345281D01*
X211359508Y-103345281D01*
X211391387Y-103357976D01*
X211642814Y-103274067D01*
X211980259Y-103103182D01*
X212233799Y-102927625D01*
X212246056Y-102846633D01*
X212241218Y-102846292D01*
X212276765Y-102766834D01*
X212553001Y-102571119D01*
X212604880Y-102540110D01*
X213075126Y-102540110D01*
X213111081Y-102668250D01*
X213359359Y-102819624D01*
X213512787Y-102839559D01*
X213707484Y-102811405D01*
X213581022Y-102691135D01*
X213546013Y-102668250D01*
X213534689Y-102662790D01*
X214241903Y-102662790D01*
X214369427Y-102758512D01*
X214502862Y-102731163D01*
X214731769Y-102607680D01*
X214763821Y-102562651D01*
X214621758Y-102501835D01*
X214502862Y-102494278D01*
X214271301Y-102585323D01*
X214241903Y-102662790D01*
X213534689Y-102662790D01*
X213227264Y-102514568D01*
X213075126Y-102540110D01*
X212604880Y-102540110D01*
X212850123Y-102393523D01*
X213403198Y-102070860D01*
X213901729Y-101765952D01*
X214067931Y-101658566D01*
X214509353Y-101476022D01*
X215103435Y-101361400D01*
X215334827Y-101345488D01*
X215818012Y-101340636D01*
X216002684Y-101377082D01*
X215937821Y-101478388D01*
X215808878Y-101573551D01*
X215413919Y-101739360D01*
X214858152Y-101851334D01*
X214664864Y-101868620D01*
X214030381Y-101978979D01*
X213600511Y-102203902D01*
X213581908Y-102222308D01*
X213393740Y-102439127D01*
X213476957Y-102470637D01*
X213719986Y-102406409D01*
X214115083Y-102253786D01*
X214320191Y-102126779D01*
X214587159Y-101989921D01*
X214864615Y-101977772D01*
X215020201Y-102078025D01*
X214998283Y-102189825D01*
X215032237Y-102251884D01*
X215283307Y-102135526D01*
X215379454Y-102076161D01*
X215956063Y-101701762D01*
X216285120Y-101469533D01*
X216413089Y-101335578D01*
X216386431Y-101255997D01*
X216298285Y-101208049D01*
X216162302Y-101090970D01*
X216266133Y-101015510D01*
X216677520Y-101015510D01*
X216713282Y-101247635D01*
X216743204Y-101276469D01*
X216893307Y-101161181D01*
X217025465Y-101015510D01*
X217146760Y-100809724D01*
X216986933Y-100754795D01*
X216959781Y-100754552D01*
X216715742Y-100884788D01*
X216677520Y-101015510D01*
X216266133Y-101015510D01*
X216286081Y-101001013D01*
X216487147Y-100791584D01*
X216503547Y-100713090D01*
X216398188Y-100674473D01*
X216159538Y-100837976D01*
X215733447Y-101060810D01*
X215223008Y-101053147D01*
X214876701Y-101033950D01*
X214524954Y-101121153D01*
X214079108Y-101350289D01*
X213450501Y-101756891D01*
X213426445Y-101773184D01*
X212530843Y-102391765D01*
X211877379Y-102868105D01*
X211481715Y-103190008D01*
X211359508Y-103345281D01*
X209568234Y-103345281D01*
X209607556Y-103277154D01*
X209834317Y-103045812D01*
X209963847Y-103016195D01*
X210262375Y-102912305D01*
X210327520Y-102842223D01*
X210319243Y-102681668D01*
X210260502Y-102668250D01*
X210044016Y-102756972D01*
X209750894Y-102968986D01*
X209470590Y-103223066D01*
X209292561Y-103437988D01*
X208246334Y-103437988D01*
X208354332Y-103369627D01*
X208990569Y-103030627D01*
X209597365Y-102757751D01*
X210085312Y-102591354D01*
X210359266Y-102569373D01*
X210680604Y-102548342D01*
X210994052Y-102388480D01*
X211243810Y-102192847D01*
X211200888Y-102153667D01*
X210892931Y-102217857D01*
X210547420Y-102245608D01*
X210414506Y-102158501D01*
X210542111Y-101963622D01*
X210850526Y-101670937D01*
X211055272Y-101508433D01*
X211690305Y-101508433D01*
X211714186Y-101611859D01*
X211806287Y-101624415D01*
X211949486Y-101560761D01*
X211922269Y-101508433D01*
X211715804Y-101487612D01*
X211690305Y-101508433D01*
X211055272Y-101508433D01*
X211228154Y-101371219D01*
X211563397Y-101155244D01*
X211712755Y-101102497D01*
X211915315Y-100999713D01*
X212093966Y-100870455D01*
X214937794Y-100870455D01*
X215061904Y-100929245D01*
X215412951Y-100769646D01*
X215912034Y-100439811D01*
X216219723Y-100232634D01*
X216677520Y-100232634D01*
X216819127Y-100385314D01*
X216948746Y-100406606D01*
X217373410Y-100406606D01*
X217437064Y-100549805D01*
X217489392Y-100522588D01*
X217510213Y-100316123D01*
X217489392Y-100290625D01*
X217385965Y-100314506D01*
X217373410Y-100406606D01*
X216948746Y-100406606D01*
X217128818Y-100322266D01*
X217112451Y-100232634D01*
X216890035Y-100065297D01*
X216841225Y-100058661D01*
X216682205Y-100191357D01*
X216677520Y-100232634D01*
X216219723Y-100232634D01*
X216394509Y-100114945D01*
X216815931Y-99868499D01*
X216938479Y-99810652D01*
X217148162Y-99673379D01*
X217062414Y-99586796D01*
X216847087Y-99642270D01*
X216447972Y-99837904D01*
X215961399Y-100115499D01*
X215483694Y-100416853D01*
X215111185Y-100683769D01*
X214940200Y-100858045D01*
X214937794Y-100870455D01*
X212093966Y-100870455D01*
X212275534Y-100739087D01*
X212399945Y-100638570D01*
X212908113Y-100638570D01*
X212931995Y-100741996D01*
X213024095Y-100754552D01*
X213167294Y-100690898D01*
X213140077Y-100638570D01*
X212933612Y-100617749D01*
X212908113Y-100638570D01*
X212399945Y-100638570D01*
X212479210Y-100574528D01*
X212895887Y-100228412D01*
X213032277Y-100116652D01*
X214125922Y-100116652D01*
X214149803Y-100220078D01*
X214241903Y-100232634D01*
X214385102Y-100168980D01*
X214357885Y-100116652D01*
X214151420Y-100095831D01*
X214125922Y-100116652D01*
X213032277Y-100116652D01*
X213215501Y-99966515D01*
X213296012Y-99902171D01*
X214138823Y-99428176D01*
X214948308Y-99268900D01*
X215041787Y-99246789D01*
X217257428Y-99246789D01*
X217281310Y-99350215D01*
X217373410Y-99362771D01*
X217516609Y-99299117D01*
X217489392Y-99246789D01*
X217282927Y-99225968D01*
X217257428Y-99246789D01*
X215041787Y-99246789D01*
X215608150Y-99112824D01*
X215948650Y-98873832D01*
X216299905Y-98601515D01*
X216590533Y-98492908D01*
X216822322Y-98418949D01*
X216834459Y-98392943D01*
X218442363Y-98392943D01*
X218483385Y-98483721D01*
X218580951Y-98492908D01*
X218816861Y-98366555D01*
X218850946Y-98320928D01*
X218822943Y-98222067D01*
X218687240Y-98252555D01*
X218442363Y-98392943D01*
X216834459Y-98392943D01*
X216851492Y-98356445D01*
X216985978Y-98182831D01*
X217280224Y-97970990D01*
X219113136Y-97970990D01*
X219176790Y-98114189D01*
X219229118Y-98086972D01*
X219249939Y-97880507D01*
X219229118Y-97855008D01*
X219125691Y-97878889D01*
X219113136Y-97970990D01*
X217280224Y-97970990D01*
X217312011Y-97948105D01*
X217335350Y-97934160D01*
X217777615Y-97633233D01*
X218285354Y-97234435D01*
X218422679Y-97116552D01*
X218829612Y-96796181D01*
X219155874Y-96605179D01*
X219243616Y-96581988D01*
X219445778Y-96466652D01*
X219461081Y-96400930D01*
X219521346Y-96318250D01*
X221548753Y-96318250D01*
X221635739Y-96405236D01*
X221722725Y-96318250D01*
X221635739Y-96231264D01*
X221548753Y-96318250D01*
X219521346Y-96318250D01*
X219603250Y-96205884D01*
X219710995Y-96144278D01*
X221896698Y-96144278D01*
X221983684Y-96231264D01*
X222070670Y-96144278D01*
X221983684Y-96057291D01*
X221896698Y-96144278D01*
X219710995Y-96144278D01*
X219852520Y-96063357D01*
X220388016Y-95808245D01*
X220876569Y-95513435D01*
X221244898Y-95232130D01*
X221419723Y-95017531D01*
X221398372Y-94941050D01*
X221230055Y-94752497D01*
X221896698Y-94752497D01*
X221983684Y-94839483D01*
X222070670Y-94752497D01*
X221983684Y-94665510D01*
X221896698Y-94752497D01*
X221230055Y-94752497D01*
X221217826Y-94738798D01*
X221325442Y-94500078D01*
X221682378Y-94230579D01*
X222766561Y-94230579D01*
X222853547Y-94317565D01*
X222940533Y-94230579D01*
X224680259Y-94230579D01*
X224767246Y-94317565D01*
X224854232Y-94230579D01*
X224767246Y-94143593D01*
X224680259Y-94230579D01*
X222940533Y-94230579D01*
X222853547Y-94143593D01*
X222766561Y-94230579D01*
X221682378Y-94230579D01*
X221740305Y-94186842D01*
X221793275Y-94153751D01*
X222208497Y-93853638D01*
X223172497Y-93853638D01*
X223196378Y-93957065D01*
X223288479Y-93969620D01*
X223431678Y-93905966D01*
X223404460Y-93853638D01*
X223197996Y-93832817D01*
X223172497Y-93853638D01*
X222208497Y-93853638D01*
X222268857Y-93810011D01*
X222814254Y-93346188D01*
X223077602Y-93095726D01*
X223600805Y-92642062D01*
X224055365Y-92428395D01*
X224355340Y-92390132D01*
X224686892Y-92360710D01*
X224744606Y-92316880D01*
X225550123Y-92316880D01*
X225637109Y-92403867D01*
X225724095Y-92316880D01*
X225637109Y-92229894D01*
X225550123Y-92316880D01*
X224744606Y-92316880D01*
X224759535Y-92305542D01*
X224734373Y-92292188D01*
X224605012Y-92056906D01*
X224606662Y-91530509D01*
X224612284Y-91479553D01*
X224635221Y-91158820D01*
X224598592Y-90873072D01*
X224469918Y-90556785D01*
X224216724Y-90144436D01*
X223938321Y-89754897D01*
X229313893Y-89754897D01*
X229443344Y-90626893D01*
X229864945Y-91387131D01*
X230283200Y-91855493D01*
X230807962Y-92393558D01*
X231313684Y-92875490D01*
X231573622Y-93099757D01*
X231873969Y-93424667D01*
X232190428Y-93886316D01*
X232238305Y-93969620D01*
X232514893Y-94423776D01*
X232765319Y-94766481D01*
X232803716Y-94808416D01*
X232983370Y-95156436D01*
X233030944Y-95465163D01*
X233123775Y-95810989D01*
X233461251Y-95983268D01*
X233509369Y-95994187D01*
X233831310Y-96170302D01*
X234251315Y-96533196D01*
X234686164Y-96991768D01*
X235052637Y-97454912D01*
X235267512Y-97831527D01*
X235292588Y-97946320D01*
X235411758Y-98176049D01*
X235553547Y-98318935D01*
X235752599Y-98648768D01*
X235814506Y-98999105D01*
X235898399Y-99370688D01*
X236145360Y-99487621D01*
X236394362Y-99411426D01*
X236548950Y-99087718D01*
X236595206Y-98878258D01*
X236741416Y-98314573D01*
X236932023Y-97820581D01*
X236940892Y-97803029D01*
X237067248Y-97482348D01*
X237261691Y-96898118D01*
X237501452Y-96122662D01*
X237763763Y-95228307D01*
X237873819Y-94839483D01*
X238185953Y-93762493D01*
X238533171Y-92625894D01*
X238875928Y-91555747D01*
X239174676Y-90678113D01*
X239210965Y-90577154D01*
X239535223Y-89656153D01*
X239867764Y-88667322D01*
X240154979Y-87771613D01*
X240254018Y-87445647D01*
X240813795Y-85575610D01*
X241346348Y-83836034D01*
X241835371Y-82278881D01*
X242264556Y-80956116D01*
X242601685Y-79964825D01*
X242879329Y-79142713D01*
X243139569Y-78315190D01*
X243338474Y-77623743D01*
X243384947Y-77442223D01*
X243551168Y-76811682D01*
X243781902Y-76004387D01*
X244032922Y-75174103D01*
X244085532Y-75006606D01*
X244486235Y-73689651D01*
X244756887Y-72664077D01*
X244899300Y-71899277D01*
X244915290Y-71364643D01*
X244806671Y-71029568D01*
X244575258Y-70863443D01*
X244333043Y-70831264D01*
X244053106Y-70711072D01*
X244013967Y-70390805D01*
X244190641Y-69985298D01*
X244309866Y-69479325D01*
X244101401Y-68880093D01*
X243590637Y-68221675D01*
X243068929Y-67473156D01*
X242795343Y-66760121D01*
X242611204Y-66138395D01*
X242397975Y-65570240D01*
X242316668Y-65395935D01*
X242125329Y-65064773D01*
X241989322Y-65013433D01*
X241818096Y-65204476D01*
X241609549Y-65420206D01*
X241509542Y-65437840D01*
X241407947Y-65261395D01*
X241175430Y-64829975D01*
X240840738Y-64197753D01*
X240432620Y-63418899D01*
X240150636Y-62877110D01*
X239710419Y-62051888D01*
X239318589Y-61359967D01*
X239004516Y-60849891D01*
X238797570Y-60570204D01*
X238733861Y-60535470D01*
X238608285Y-60772332D01*
X238376294Y-61336843D01*
X238039109Y-62225771D01*
X237597951Y-63435887D01*
X237054042Y-64963962D01*
X236978894Y-65177154D01*
X236774076Y-65781115D01*
X236498938Y-66623899D01*
X236183742Y-67611240D01*
X235858754Y-68648872D01*
X235722155Y-69091538D01*
X235351735Y-70283178D01*
X234918843Y-71652426D01*
X234471984Y-73047119D01*
X234059666Y-74315094D01*
X233975192Y-74571675D01*
X233519327Y-75983666D01*
X233176417Y-77125730D01*
X232933237Y-78052195D01*
X232776559Y-78817394D01*
X232693158Y-79475657D01*
X232670772Y-79929895D01*
X232627707Y-80481571D01*
X232536244Y-80933756D01*
X232509027Y-81008661D01*
X232412117Y-81166585D01*
X232357158Y-81041481D01*
X232329040Y-80660716D01*
X232298571Y-79964825D01*
X232069224Y-80660716D01*
X231928714Y-81265430D01*
X231840101Y-81984771D01*
X231826506Y-82280230D01*
X231789901Y-82815734D01*
X231706589Y-83084202D01*
X231641156Y-83097564D01*
X231542627Y-83125711D01*
X231573982Y-83264394D01*
X231592368Y-83585251D01*
X231491776Y-83973204D01*
X231323222Y-84308090D01*
X231137724Y-84469745D01*
X231067491Y-84457363D01*
X230954618Y-84471420D01*
X230982165Y-84599487D01*
X230956899Y-84892464D01*
X230779115Y-85334913D01*
X230664676Y-85541382D01*
X230367011Y-86065167D01*
X230266133Y-86345366D01*
X230354767Y-86420222D01*
X230505385Y-86378873D01*
X230660993Y-86359970D01*
X230665867Y-86530731D01*
X230563451Y-86862758D01*
X230313609Y-87411732D01*
X229976768Y-87957725D01*
X229950485Y-87993190D01*
X229483540Y-88853168D01*
X229313893Y-89754897D01*
X223938321Y-89754897D01*
X223806533Y-89570500D01*
X223388965Y-89011401D01*
X222796368Y-88236881D01*
X222190115Y-87467522D01*
X221647176Y-86799797D01*
X221604520Y-86749757D01*
X223636424Y-86749757D01*
X223723410Y-86836743D01*
X223810396Y-86749757D01*
X223723410Y-86662771D01*
X223636424Y-86749757D01*
X221604520Y-86749757D01*
X221291809Y-86382910D01*
X220858654Y-85879894D01*
X223810396Y-85879894D01*
X223897383Y-85966880D01*
X223984369Y-85879894D01*
X223897383Y-85792908D01*
X223810396Y-85879894D01*
X220858654Y-85879894D01*
X220789041Y-85799053D01*
X220297898Y-85200345D01*
X220000763Y-84817157D01*
X219671535Y-84411679D01*
X219171844Y-83842027D01*
X219126235Y-83792223D01*
X231117246Y-83792223D01*
X231204232Y-83879209D01*
X231291218Y-83792223D01*
X231204232Y-83705236D01*
X231117246Y-83792223D01*
X219126235Y-83792223D01*
X218575972Y-83191344D01*
X218093506Y-82682392D01*
X217762402Y-82313456D01*
X222940533Y-82313456D01*
X223004187Y-82456655D01*
X223056515Y-82429437D01*
X223077336Y-82222973D01*
X223056515Y-82197474D01*
X222953089Y-82221355D01*
X222940533Y-82313456D01*
X217762402Y-82313456D01*
X217418395Y-81930143D01*
X217164035Y-81618887D01*
X218254669Y-81618887D01*
X218297870Y-81708978D01*
X218395055Y-81835031D01*
X218648986Y-82105503D01*
X218762335Y-82104326D01*
X218765191Y-82073799D01*
X218646303Y-81928577D01*
X218554182Y-81849529D01*
X222476607Y-81849529D01*
X222500488Y-81952955D01*
X222592588Y-81965510D01*
X222735787Y-81901857D01*
X222708570Y-81849529D01*
X222502105Y-81828708D01*
X222476607Y-81849529D01*
X218554182Y-81849529D01*
X218460739Y-81769347D01*
X218254669Y-81618887D01*
X217164035Y-81618887D01*
X216878612Y-81269620D01*
X219113136Y-81269620D01*
X219176790Y-81412819D01*
X219229118Y-81385602D01*
X219249939Y-81179137D01*
X219229118Y-81153638D01*
X219125691Y-81177519D01*
X219113136Y-81269620D01*
X216878612Y-81269620D01*
X216665354Y-81008661D01*
X217721355Y-81008661D01*
X217808342Y-81095647D01*
X217895328Y-81008661D01*
X217808342Y-80921675D01*
X217721355Y-81008661D01*
X216665354Y-81008661D01*
X216662806Y-81005543D01*
X216269350Y-80486743D01*
X219287109Y-80486743D01*
X219374095Y-80573730D01*
X219461081Y-80486743D01*
X219374095Y-80399757D01*
X219287109Y-80486743D01*
X216269350Y-80486743D01*
X216115420Y-80283775D01*
X218475237Y-80283775D01*
X218499118Y-80387202D01*
X218591218Y-80399757D01*
X218734418Y-80336103D01*
X218707200Y-80283775D01*
X218500735Y-80262954D01*
X218475237Y-80283775D01*
X216115420Y-80283775D01*
X215955073Y-80072346D01*
X217895328Y-80072346D01*
X218002518Y-80166668D01*
X218069301Y-80138798D01*
X218236778Y-79908334D01*
X218243273Y-79857304D01*
X218136083Y-79762982D01*
X218069301Y-79790853D01*
X217901823Y-80021317D01*
X217895328Y-80072346D01*
X215955073Y-80072346D01*
X215926079Y-80034116D01*
X215387074Y-79262604D01*
X215207357Y-78997709D01*
X217199438Y-78997709D01*
X217325726Y-79174869D01*
X217373410Y-79181949D01*
X217542860Y-79122592D01*
X217547383Y-79105230D01*
X217538956Y-79094962D01*
X217721355Y-79094962D01*
X217808342Y-79181949D01*
X217895328Y-79094962D01*
X217808342Y-79007976D01*
X217721355Y-79094962D01*
X217538956Y-79094962D01*
X217425474Y-78956697D01*
X217373410Y-78920990D01*
X217213097Y-78934783D01*
X217199438Y-78997709D01*
X215207357Y-78997709D01*
X214881617Y-78517583D01*
X214735514Y-78312086D01*
X216851492Y-78312086D01*
X216915146Y-78455285D01*
X216967474Y-78428067D01*
X216988295Y-78221603D01*
X216967474Y-78196104D01*
X216864048Y-78219985D01*
X216851492Y-78312086D01*
X214735514Y-78312086D01*
X214418220Y-77865803D01*
X214221563Y-77605928D01*
X215981629Y-77605928D01*
X216107918Y-77783088D01*
X216155602Y-77790168D01*
X216258721Y-77754046D01*
X216538268Y-77754046D01*
X216590533Y-77784840D01*
X216876436Y-77698218D01*
X217025465Y-77616195D01*
X217164717Y-77478344D01*
X217112451Y-77447551D01*
X216826549Y-77534173D01*
X216677520Y-77616195D01*
X216538268Y-77754046D01*
X216258721Y-77754046D01*
X216325051Y-77730811D01*
X216329575Y-77713449D01*
X216207666Y-77564916D01*
X216155602Y-77529209D01*
X215995289Y-77543003D01*
X215981629Y-77605928D01*
X214221563Y-77605928D01*
X214042665Y-77369522D01*
X213800737Y-77091000D01*
X213772480Y-77066954D01*
X213732119Y-77026887D01*
X215519514Y-77026887D01*
X215546698Y-77094278D01*
X215703031Y-77260245D01*
X215730938Y-77268250D01*
X215805662Y-77133649D01*
X215807657Y-77094278D01*
X215673915Y-76926990D01*
X215623417Y-76920305D01*
X215519514Y-77026887D01*
X213732119Y-77026887D01*
X213488148Y-76784690D01*
X213247693Y-76485373D01*
X215807657Y-76485373D01*
X215894643Y-76572360D01*
X215981629Y-76485373D01*
X215894643Y-76398387D01*
X215807657Y-76485373D01*
X213247693Y-76485373D01*
X213132244Y-76341662D01*
X212977947Y-76124246D01*
X212571047Y-75569967D01*
X212136095Y-75042557D01*
X212011478Y-74906438D01*
X211667963Y-74516693D01*
X211499050Y-74310716D01*
X213980944Y-74310716D01*
X213994738Y-74471029D01*
X214057663Y-74484688D01*
X214234823Y-74358400D01*
X214241903Y-74310716D01*
X214182547Y-74141266D01*
X214165184Y-74136743D01*
X214016652Y-74258652D01*
X213980944Y-74310716D01*
X211499050Y-74310716D01*
X211210395Y-73958724D01*
X210730561Y-73344832D01*
X210671413Y-73266880D01*
X210213275Y-72705171D01*
X212971519Y-72705171D01*
X213083956Y-73004564D01*
X213282006Y-73321101D01*
X213459887Y-73449372D01*
X213540740Y-73337891D01*
X213540480Y-73310373D01*
X213439420Y-73076344D01*
X213228026Y-72783745D01*
X213024522Y-72587923D01*
X212977791Y-72570990D01*
X212971519Y-72705171D01*
X210213275Y-72705171D01*
X209323416Y-71614141D01*
X212328205Y-71614141D01*
X212415191Y-71701127D01*
X212502177Y-71614141D01*
X212415191Y-71527154D01*
X212328205Y-71614141D01*
X209323416Y-71614141D01*
X209231812Y-71501828D01*
X208148246Y-70322533D01*
X207836789Y-70027223D01*
X207422061Y-69663308D01*
X207362861Y-69613456D01*
X207137717Y-69352497D01*
X212154232Y-69352497D01*
X212241218Y-69439483D01*
X212328205Y-69352497D01*
X212241218Y-69265510D01*
X212154232Y-69352497D01*
X207137717Y-69352497D01*
X206971971Y-69160385D01*
X206653177Y-68581103D01*
X206600247Y-68439141D01*
X206429246Y-67994902D01*
X206279212Y-67731203D01*
X206233064Y-67699757D01*
X206114355Y-67550205D01*
X206009482Y-67203748D01*
X205904056Y-66985395D01*
X210957012Y-66985395D01*
X211022319Y-67143619D01*
X211356363Y-67443121D01*
X211501835Y-67548701D01*
X211903038Y-67859875D01*
X212176602Y-68127896D01*
X212206370Y-68169452D01*
X212480120Y-68358248D01*
X212695062Y-68395647D01*
X212929798Y-68464466D01*
X212936349Y-68570849D01*
X212973866Y-68769749D01*
X213100055Y-68850421D01*
X213337880Y-69057195D01*
X213372040Y-69178524D01*
X213510739Y-69436083D01*
X213605595Y-69491880D01*
X213837995Y-69712993D01*
X214095304Y-70135509D01*
X214309851Y-70625430D01*
X214413964Y-71048757D01*
X214415876Y-71096324D01*
X214372593Y-71295027D01*
X214188880Y-71206801D01*
X214150713Y-71175720D01*
X213886794Y-71042741D01*
X213775282Y-71065922D01*
X213569661Y-71067213D01*
X213431541Y-70982425D01*
X213236631Y-70878629D01*
X213198068Y-70917133D01*
X213311265Y-71174064D01*
X213613935Y-71610374D01*
X214050690Y-72158237D01*
X214566147Y-72749824D01*
X215104919Y-73317309D01*
X215362468Y-73567740D01*
X215827298Y-74037027D01*
X216169927Y-74443959D01*
X216326162Y-74710996D01*
X216329575Y-74735934D01*
X216467879Y-75014775D01*
X216682392Y-75183187D01*
X216919951Y-75385806D01*
X216939692Y-75526560D01*
X216975082Y-75737960D01*
X217069476Y-75822284D01*
X217311753Y-76059701D01*
X217598444Y-76447708D01*
X217622438Y-76485373D01*
X217909227Y-76879153D01*
X218166322Y-77135265D01*
X218183673Y-77146415D01*
X218392327Y-77347649D01*
X218417246Y-77424968D01*
X218537209Y-77629237D01*
X218854716Y-78000843D01*
X219306197Y-78477161D01*
X219828079Y-78995563D01*
X220356791Y-79493421D01*
X220828761Y-79908108D01*
X221180418Y-80176998D01*
X221255756Y-80221311D01*
X221684716Y-80594283D01*
X221840689Y-80946081D01*
X222031521Y-81368661D01*
X222337375Y-81559646D01*
X222658132Y-81471721D01*
X223056557Y-81268005D01*
X223445830Y-81221853D01*
X223691824Y-81345531D01*
X223706714Y-81375832D01*
X223701116Y-81587885D01*
X223632667Y-81617565D01*
X223603405Y-81725751D01*
X223756146Y-81956598D01*
X224061970Y-82192741D01*
X224271979Y-82126315D01*
X224332314Y-81857989D01*
X224263824Y-81704552D01*
X224506287Y-81704552D01*
X224593273Y-81791538D01*
X224680259Y-81704552D01*
X224593273Y-81617565D01*
X224506287Y-81704552D01*
X224263824Y-81704552D01*
X224253090Y-81680506D01*
X224175289Y-81694078D01*
X224018749Y-81619179D01*
X223849647Y-81306179D01*
X223837004Y-81271166D01*
X223836216Y-81269620D01*
X224332314Y-81269620D01*
X224395968Y-81412819D01*
X224448296Y-81385602D01*
X224469117Y-81179137D01*
X224448296Y-81153638D01*
X224344870Y-81177519D01*
X224332314Y-81269620D01*
X223836216Y-81269620D01*
X223654065Y-80912274D01*
X223425745Y-80844909D01*
X223354923Y-80866644D01*
X223141081Y-80895088D01*
X223150800Y-80820191D01*
X223998104Y-80820191D01*
X224030090Y-81045836D01*
X224089478Y-81048530D01*
X224131008Y-80815687D01*
X224103212Y-80715082D01*
X224025963Y-80649185D01*
X223998104Y-80820191D01*
X223150800Y-80820191D01*
X223168468Y-80684041D01*
X223216177Y-80486743D01*
X225202177Y-80486743D01*
X225289164Y-80573730D01*
X225898068Y-80573730D01*
X225961722Y-80716929D01*
X226014049Y-80689711D01*
X226034871Y-80483247D01*
X226014049Y-80457748D01*
X225910623Y-80481629D01*
X225898068Y-80573730D01*
X225289164Y-80573730D01*
X225376150Y-80486743D01*
X225289164Y-80399757D01*
X225202177Y-80486743D01*
X223216177Y-80486743D01*
X223219556Y-80472770D01*
X223193640Y-80312771D01*
X223984369Y-80312771D01*
X224071355Y-80399757D01*
X224158342Y-80312771D01*
X224071355Y-80225784D01*
X223984369Y-80312771D01*
X223193640Y-80312771D01*
X223186618Y-80269415D01*
X223508923Y-80269415D01*
X223581656Y-80301861D01*
X223638511Y-80225784D01*
X223789203Y-79822446D01*
X223807732Y-79660373D01*
X223764310Y-79380260D01*
X223662975Y-79381047D01*
X223558587Y-79614475D01*
X223510696Y-79921678D01*
X223508923Y-80269415D01*
X223186618Y-80269415D01*
X223179903Y-80227958D01*
X223021175Y-79852854D01*
X222792249Y-79399415D01*
X222676969Y-79100869D01*
X222761636Y-79018243D01*
X223114506Y-79018243D01*
X223247202Y-79177263D01*
X223288479Y-79181949D01*
X223382268Y-79094962D01*
X226072040Y-79094962D01*
X226159027Y-79181949D01*
X226246013Y-79094962D01*
X226159027Y-79007976D01*
X226072040Y-79094962D01*
X223382268Y-79094962D01*
X223441159Y-79040342D01*
X223462451Y-78910723D01*
X223378111Y-78730651D01*
X223288479Y-78747017D01*
X223121142Y-78969434D01*
X223114506Y-79018243D01*
X222761636Y-79018243D01*
X222771516Y-79008601D01*
X222792050Y-79007976D01*
X222847254Y-78904861D01*
X222683287Y-78664133D01*
X222404154Y-78440731D01*
X222221392Y-78413442D01*
X222087567Y-78393348D01*
X222100252Y-78155783D01*
X222803011Y-78155783D01*
X222858979Y-78435062D01*
X222972875Y-78652992D01*
X223040881Y-78545675D01*
X223069822Y-78428948D01*
X223085839Y-78112734D01*
X223042898Y-78008515D01*
X222877162Y-77967048D01*
X222803011Y-78155783D01*
X222100252Y-78155783D01*
X222101951Y-78123960D01*
X222176270Y-77891383D01*
X222395702Y-77651352D01*
X222530336Y-77616195D01*
X222647432Y-77589983D01*
X222670447Y-77481703D01*
X222578402Y-77246895D01*
X222350317Y-76841098D01*
X221965213Y-76219849D01*
X221604450Y-75653991D01*
X221222176Y-75072120D01*
X220962890Y-74738712D01*
X220769059Y-74604778D01*
X220583149Y-74621330D01*
X220459352Y-74678964D01*
X220069986Y-74883263D01*
X220413207Y-74496958D01*
X220756428Y-74110653D01*
X220306307Y-74223627D01*
X219913957Y-74240827D01*
X219758636Y-74082390D01*
X219767367Y-73902223D01*
X219996015Y-73915766D01*
X220244859Y-73946342D01*
X220297050Y-73837325D01*
X220139155Y-73556443D01*
X219757744Y-73071426D01*
X219534616Y-72807212D01*
X219022994Y-72248002D01*
X218666188Y-71943325D01*
X218479338Y-71901943D01*
X218477590Y-72132616D01*
X218499585Y-72208404D01*
X218511377Y-72537866D01*
X218354475Y-72658864D01*
X218134079Y-72510473D01*
X218092291Y-72444279D01*
X218029103Y-72081116D01*
X218155306Y-71875209D01*
X218301183Y-71622762D01*
X218193983Y-71348224D01*
X218144805Y-71278895D01*
X217917704Y-71063931D01*
X217785348Y-71057226D01*
X217783901Y-71264392D01*
X217878985Y-71420475D01*
X217987084Y-71682309D01*
X217903776Y-71782892D01*
X217605149Y-71810491D01*
X217399200Y-71584681D01*
X217373410Y-71429901D01*
X217251908Y-71201394D01*
X217155944Y-71172577D01*
X216907529Y-71052272D01*
X216517059Y-70751332D01*
X216064278Y-70345923D01*
X215628925Y-69912213D01*
X215606851Y-69887028D01*
X216435794Y-69887028D01*
X216438199Y-70260570D01*
X216521848Y-70418383D01*
X216780119Y-70634490D01*
X217064188Y-70568943D01*
X217157806Y-70512730D01*
X217246465Y-70348730D01*
X217067454Y-70086912D01*
X216962575Y-69984038D01*
X216671216Y-69738165D01*
X216521165Y-69729071D01*
X216435794Y-69887028D01*
X215606851Y-69887028D01*
X215290744Y-69526366D01*
X215129475Y-69264549D01*
X215125501Y-69233175D01*
X215171075Y-69117156D01*
X215220829Y-69203549D01*
X215430284Y-69328168D01*
X215642026Y-69313737D01*
X215922326Y-69330821D01*
X215981629Y-69506179D01*
X216069619Y-69750432D01*
X216155602Y-69787428D01*
X216313248Y-69723352D01*
X216238075Y-69511341D01*
X215914890Y-69121720D01*
X215698865Y-68895235D01*
X215294388Y-68541209D01*
X214957125Y-68350753D01*
X214829002Y-68341102D01*
X214620013Y-68305417D01*
X214589849Y-68208008D01*
X214473573Y-67924913D01*
X214200991Y-67574416D01*
X214141756Y-67519641D01*
X215470739Y-67519641D01*
X215586541Y-67722314D01*
X215806919Y-67987756D01*
X215873005Y-68134688D01*
X215880893Y-68076857D01*
X215913436Y-68116054D01*
X216408784Y-68653842D01*
X217029942Y-69288660D01*
X217442946Y-69694299D01*
X218180514Y-70422030D01*
X218878148Y-71135172D01*
X219473861Y-71768611D01*
X219905670Y-72257232D01*
X220027956Y-72409815D01*
X220414247Y-72915424D01*
X220755753Y-73353759D01*
X220905574Y-73540637D01*
X221222996Y-73939495D01*
X221638447Y-74478897D01*
X222089369Y-75075419D01*
X222513203Y-75645636D01*
X222847393Y-76106126D01*
X223027520Y-76370355D01*
X223216768Y-76655132D01*
X223292020Y-76746332D01*
X223420286Y-76953588D01*
X223597212Y-77321553D01*
X223794573Y-77629807D01*
X223978021Y-77706613D01*
X223985109Y-77702724D01*
X224115992Y-77762197D01*
X224158342Y-78006065D01*
X224242111Y-78417996D01*
X224367109Y-78625236D01*
X224610140Y-78817506D01*
X224674792Y-78713387D01*
X224632032Y-78494400D01*
X224632341Y-78486058D01*
X225403619Y-78486058D01*
X225430959Y-78733035D01*
X225491369Y-78703524D01*
X225514347Y-78347342D01*
X225491369Y-78268593D01*
X225427870Y-78246738D01*
X225403619Y-78486058D01*
X224632341Y-78486058D01*
X224643548Y-78183295D01*
X224742221Y-78072713D01*
X224817538Y-77938316D01*
X224680259Y-77806077D01*
X224543492Y-77653530D01*
X224627101Y-77618859D01*
X224699763Y-77597250D01*
X224754747Y-77505537D01*
X224794926Y-77300218D01*
X224823170Y-76937793D01*
X224842354Y-76374759D01*
X224855347Y-75567617D01*
X224865024Y-74472864D01*
X224868491Y-73962771D01*
X224871854Y-73038858D01*
X224863370Y-72407521D01*
X224836457Y-72013430D01*
X224784532Y-71801257D01*
X224701010Y-71715672D01*
X224599394Y-71701127D01*
X224320163Y-71563190D01*
X224164463Y-71364619D01*
X224004295Y-71010241D01*
X224053088Y-70894711D01*
X224245328Y-70942323D01*
X224468758Y-70934669D01*
X224506287Y-70849877D01*
X224372043Y-70666378D01*
X224313701Y-70657291D01*
X224201599Y-70529187D01*
X224229352Y-70375232D01*
X224178913Y-70040206D01*
X224114387Y-69961401D01*
X227202862Y-69961401D01*
X227242302Y-70110339D01*
X227366567Y-70135373D01*
X227604599Y-70044542D01*
X227637794Y-69961401D01*
X227512929Y-69792408D01*
X227474088Y-69787428D01*
X227238471Y-69913889D01*
X227202862Y-69961401D01*
X224114387Y-69961401D01*
X223856526Y-69646480D01*
X223484924Y-69371708D01*
X223039940Y-69222474D01*
X222389850Y-69156129D01*
X222333951Y-69153518D01*
X221643832Y-69083494D01*
X220994088Y-68953600D01*
X220681211Y-68852933D01*
X220171756Y-68680120D01*
X219491296Y-68498184D01*
X218971270Y-68383957D01*
X218365073Y-68240508D01*
X218083998Y-68112325D01*
X218101407Y-68024178D01*
X218213212Y-67890810D01*
X218156287Y-67858744D01*
X217880830Y-67830875D01*
X217420754Y-67787771D01*
X217309602Y-67777672D01*
X216782891Y-67664997D01*
X216365816Y-67467486D01*
X216322280Y-67432196D01*
X216095319Y-67260265D01*
X215991839Y-67350307D01*
X215940338Y-67641084D01*
X215880893Y-68076857D01*
X215806919Y-67987756D01*
X215677386Y-67699757D01*
X215537352Y-67468642D01*
X215470997Y-67514662D01*
X215470739Y-67519641D01*
X214141756Y-67519641D01*
X213886469Y-67283575D01*
X213662588Y-67177839D01*
X213426954Y-67080117D01*
X213048190Y-66836380D01*
X212921645Y-66742908D01*
X212508353Y-66468324D01*
X212181637Y-66320353D01*
X212122347Y-66311845D01*
X212081409Y-66402231D01*
X212281885Y-66618588D01*
X212328205Y-66655921D01*
X212575447Y-66886731D01*
X212603916Y-67000452D01*
X212589164Y-67002662D01*
X212555386Y-67078208D01*
X212663907Y-67166591D01*
X212908879Y-67462739D01*
X212954018Y-67606030D01*
X212871158Y-67792980D01*
X212547784Y-67755126D01*
X212004296Y-67497858D01*
X211588821Y-67245442D01*
X211149495Y-67006615D01*
X210957012Y-66985395D01*
X205904056Y-66985395D01*
X205825130Y-66821928D01*
X205522369Y-66416827D01*
X209508140Y-66416827D01*
X209667536Y-66650713D01*
X209910669Y-66879100D01*
X210038570Y-66915876D01*
X210008183Y-66739365D01*
X209896077Y-66573139D01*
X209644919Y-66352172D01*
X209525044Y-66307976D01*
X209508140Y-66416827D01*
X205522369Y-66416827D01*
X205426402Y-66288421D01*
X205212292Y-66047017D01*
X223462451Y-66047017D01*
X223549438Y-66134004D01*
X223636424Y-66047017D01*
X223549438Y-65960031D01*
X223462451Y-66047017D01*
X205212292Y-66047017D01*
X204873589Y-65665138D01*
X204226981Y-65013992D01*
X203546870Y-64396894D01*
X202893544Y-63875757D01*
X202525859Y-63626441D01*
X201940169Y-63417109D01*
X201415895Y-63506952D01*
X201030270Y-63878728D01*
X200983081Y-63970867D01*
X200741507Y-64285900D01*
X200527021Y-64309095D01*
X200240194Y-64342569D01*
X199811147Y-64540960D01*
X199601160Y-64673979D01*
X199140706Y-65032898D01*
X198930303Y-65327383D01*
X198906150Y-65638893D01*
X198802431Y-65830744D01*
X198665793Y-65964647D01*
X198464464Y-66296092D01*
X198410396Y-66601845D01*
X198280955Y-67119334D01*
X197953564Y-67632299D01*
X197519622Y-68034363D01*
X197070529Y-68219151D01*
X197018616Y-68221675D01*
X196603632Y-68326833D01*
X196199550Y-68682109D01*
X196046127Y-68874072D01*
X195716434Y-69276063D01*
X195449316Y-69541063D01*
X195373081Y-69589432D01*
X195188467Y-69731475D01*
X194814257Y-70074297D01*
X194302622Y-70568448D01*
X193705734Y-71164476D01*
X193626150Y-71245285D01*
X192622418Y-72224830D01*
X191631995Y-73114794D01*
X190713474Y-73866247D01*
X189925450Y-74430259D01*
X189537794Y-74659310D01*
X189141457Y-74905753D01*
X188637576Y-75268473D01*
X188406972Y-75448976D01*
X187746276Y-75865506D01*
X187056775Y-76117042D01*
X186976166Y-76132357D01*
X186232288Y-76388973D01*
X185431037Y-76898985D01*
X185385507Y-76934842D01*
X184915172Y-77290862D01*
X184545095Y-77537438D01*
X184373448Y-77616195D01*
X184126994Y-77731351D01*
X183784336Y-78016775D01*
X183430154Y-78382406D01*
X183149126Y-78738178D01*
X183025932Y-78994030D01*
X183034067Y-79040734D01*
X183048250Y-79153910D01*
X182958815Y-79114728D01*
X182774021Y-79161194D01*
X182652116Y-79435792D01*
X182523665Y-79764616D01*
X182403454Y-79877839D01*
X182311704Y-80030676D01*
X182266676Y-80405554D01*
X182265739Y-80475207D01*
X182236892Y-80930463D01*
X182166745Y-81231450D01*
X182159739Y-81244086D01*
X178320530Y-81244086D01*
X178273312Y-80025028D01*
X178228060Y-78747017D01*
X178174034Y-77185565D01*
X178112868Y-75493405D01*
X178048423Y-73772482D01*
X178026293Y-73201472D01*
X182075948Y-73201472D01*
X182122654Y-73441987D01*
X182168111Y-73494001D01*
X182340323Y-73450655D01*
X182633945Y-73199620D01*
X182652017Y-73179894D01*
X184318616Y-73179894D01*
X184405602Y-73266880D01*
X184492588Y-73179894D01*
X184405602Y-73092908D01*
X184318616Y-73179894D01*
X182652017Y-73179894D01*
X182978542Y-72823483D01*
X183303677Y-72404833D01*
X183538913Y-72026257D01*
X183615590Y-71796812D01*
X183664290Y-71573151D01*
X183826134Y-71660978D01*
X183828151Y-71662991D01*
X184036850Y-71747676D01*
X184348970Y-71614752D01*
X184599420Y-71436826D01*
X185021038Y-71161528D01*
X185366029Y-71013419D01*
X185427562Y-71005236D01*
X185695181Y-70918250D01*
X185884369Y-70918250D01*
X185971355Y-71005236D01*
X186058342Y-70918250D01*
X185971355Y-70831264D01*
X185884369Y-70918250D01*
X185695181Y-70918250D01*
X185725608Y-70908360D01*
X185792687Y-70838862D01*
X186019007Y-70744085D01*
X186150899Y-70770489D01*
X186370992Y-70761495D01*
X186406287Y-70679440D01*
X186544208Y-70515322D01*
X186880111Y-70273713D01*
X187297206Y-70025393D01*
X187678703Y-69841143D01*
X187878123Y-69787428D01*
X187960838Y-69929852D01*
X187972040Y-70057264D01*
X187826147Y-70299059D01*
X187468716Y-70537189D01*
X187406629Y-70564933D01*
X187050133Y-70765131D01*
X186656338Y-71057787D01*
X186294761Y-71378083D01*
X186034916Y-71661200D01*
X185946317Y-71842323D01*
X186001516Y-71875099D01*
X186345466Y-71753912D01*
X186891604Y-71408997D01*
X187601884Y-70868327D01*
X187694744Y-70789670D01*
X188743386Y-70789670D01*
X188914392Y-70817529D01*
X189140037Y-70785543D01*
X189142731Y-70726155D01*
X188909888Y-70684625D01*
X188809283Y-70712421D01*
X188743386Y-70789670D01*
X187694744Y-70789670D01*
X188251528Y-70318045D01*
X189389917Y-70318045D01*
X189444639Y-70466463D01*
X189529095Y-70457223D01*
X189715771Y-70310851D01*
X189724814Y-70261504D01*
X189611318Y-70126060D01*
X189437313Y-70224109D01*
X189389917Y-70318045D01*
X188251528Y-70318045D01*
X188438259Y-70159874D01*
X188899233Y-69744689D01*
X189373368Y-69345194D01*
X189768059Y-69076728D01*
X190001337Y-68994641D01*
X190007358Y-68996446D01*
X190142697Y-68951017D01*
X190119225Y-68821719D01*
X190131702Y-68603754D01*
X190215071Y-68569620D01*
X190385812Y-68429012D01*
X190407657Y-68308661D01*
X190524685Y-68075960D01*
X190625123Y-68045038D01*
X190719379Y-67982440D01*
X190581629Y-67855974D01*
X190436831Y-67725832D01*
X190596031Y-67729538D01*
X190676453Y-67746040D01*
X190958119Y-67697143D01*
X191342475Y-67509908D01*
X191732545Y-67251182D01*
X192031353Y-66987810D01*
X192141924Y-66786640D01*
X192123831Y-66748351D01*
X191950839Y-66790003D01*
X191655561Y-67013232D01*
X191644795Y-67023197D01*
X191343321Y-67247218D01*
X191154146Y-67286142D01*
X191151140Y-67283423D01*
X191221881Y-67126282D01*
X191497167Y-66789934D01*
X191927081Y-66332481D01*
X192206478Y-66055048D01*
X192716834Y-65526019D01*
X193112485Y-65052089D01*
X193335956Y-64705226D01*
X193365191Y-64604172D01*
X193423412Y-64267702D01*
X193486208Y-64157279D01*
X193659431Y-63836392D01*
X193520676Y-63602557D01*
X193165020Y-63524415D01*
X192712174Y-63576150D01*
X192138532Y-63707989D01*
X191558294Y-63884881D01*
X191085660Y-64071774D01*
X190834829Y-64233619D01*
X190829678Y-64241194D01*
X190596096Y-64370057D01*
X190401753Y-64394278D01*
X190076103Y-64479578D01*
X189544475Y-64705172D01*
X188895100Y-65025595D01*
X188216213Y-65395385D01*
X187596047Y-65769078D01*
X187189164Y-66049601D01*
X186643276Y-66499689D01*
X186024060Y-67066965D01*
X185383354Y-67696637D01*
X184772996Y-68333914D01*
X184244823Y-68924006D01*
X183850675Y-69412122D01*
X183642389Y-69743470D01*
X183622725Y-69819190D01*
X183533691Y-70041314D01*
X183307386Y-70437170D01*
X183155039Y-70675583D01*
X182879214Y-71137654D01*
X182798094Y-71441640D01*
X182884296Y-71697301D01*
X182895554Y-71715688D01*
X182997035Y-71971372D01*
X182942132Y-72049072D01*
X182796081Y-72199062D01*
X182668126Y-72560881D01*
X182665876Y-72570990D01*
X182514171Y-72936912D01*
X182307955Y-73092845D01*
X182304108Y-73092908D01*
X182075948Y-73201472D01*
X178026293Y-73201472D01*
X177984563Y-72124740D01*
X177980119Y-72014589D01*
X180334273Y-72014589D01*
X180401966Y-71976602D01*
X180529578Y-71744620D01*
X180762237Y-71444587D01*
X180963003Y-71353182D01*
X181113650Y-71266195D01*
X181535054Y-71266195D01*
X181622040Y-71353182D01*
X181709027Y-71266195D01*
X181622040Y-71179209D01*
X181535054Y-71266195D01*
X181113650Y-71266195D01*
X181121684Y-71261556D01*
X181100123Y-71179209D01*
X180885970Y-71014694D01*
X180656516Y-71194706D01*
X180519144Y-71448354D01*
X180372679Y-71819935D01*
X180334273Y-72014589D01*
X177980119Y-72014589D01*
X177925149Y-70652124D01*
X177898525Y-70022374D01*
X182083464Y-70022374D01*
X182184934Y-70134931D01*
X182197834Y-70135373D01*
X182398860Y-69995977D01*
X182473409Y-69859877D01*
X182478127Y-69655930D01*
X182372415Y-69653285D01*
X182163767Y-69812648D01*
X182083464Y-70022374D01*
X177898525Y-70022374D01*
X177888592Y-69787428D01*
X177847627Y-68830579D01*
X183100807Y-68830579D01*
X183187794Y-68917565D01*
X183274780Y-68830579D01*
X183187794Y-68743593D01*
X183100807Y-68830579D01*
X177847627Y-68830579D01*
X177817427Y-68125193D01*
X182106889Y-68125193D01*
X182177683Y-68284395D01*
X182470269Y-68391793D01*
X182770540Y-68304605D01*
X182827624Y-68241454D01*
X182766224Y-68082750D01*
X182577106Y-67996827D01*
X182253678Y-67990739D01*
X182106889Y-68125193D01*
X177817427Y-68125193D01*
X177763245Y-66859637D01*
X177656269Y-64278565D01*
X177567667Y-62044307D01*
X177556109Y-61733671D01*
X181732527Y-61733671D01*
X181746756Y-62009940D01*
X181906753Y-62260771D01*
X181997269Y-62536495D01*
X182060448Y-63149063D01*
X182095567Y-64088389D01*
X182103061Y-64992141D01*
X182101643Y-67525784D01*
X182706825Y-67525784D01*
X183107639Y-67557644D01*
X183232439Y-67678414D01*
X183205842Y-67802443D01*
X183161817Y-68188078D01*
X183333508Y-68364163D01*
X183629599Y-68284845D01*
X183817525Y-68109594D01*
X183951675Y-67914667D01*
X183832844Y-67897220D01*
X183621361Y-67956946D01*
X183187794Y-68090352D01*
X183585202Y-67738991D01*
X183853062Y-67418790D01*
X183933147Y-67152255D01*
X184027111Y-66965408D01*
X184188136Y-66941043D01*
X184445154Y-66875935D01*
X184492588Y-66781568D01*
X184568225Y-66684682D01*
X184607503Y-66712846D01*
X184590559Y-66908469D01*
X184406567Y-67176773D01*
X184239393Y-67427646D01*
X184290310Y-67525784D01*
X184524275Y-67405730D01*
X184858950Y-67107157D01*
X184954935Y-67003867D01*
X185305392Y-66670865D01*
X185598515Y-66491799D01*
X185652167Y-66481949D01*
X185864774Y-66391579D01*
X185884369Y-66331095D01*
X186032092Y-66128923D01*
X186439311Y-65808527D01*
X187052103Y-65402790D01*
X187816546Y-64944596D01*
X188678717Y-64466830D01*
X189584691Y-64002377D01*
X190127448Y-63743508D01*
X190660765Y-63487134D01*
X190911695Y-63328854D01*
X190918684Y-63232100D01*
X190736352Y-63164367D01*
X190440602Y-63004966D01*
X190373347Y-62829066D01*
X190308535Y-62567565D01*
X192147383Y-62567565D01*
X192234369Y-62654552D01*
X192321355Y-62567565D01*
X192234369Y-62480579D01*
X192147383Y-62567565D01*
X190308535Y-62567565D01*
X190303758Y-62548290D01*
X190024511Y-62420723D01*
X189688205Y-62493188D01*
X189374324Y-62557442D01*
X189277126Y-62481049D01*
X189314396Y-62364597D01*
X190639620Y-62364597D01*
X190663501Y-62468024D01*
X190755602Y-62480579D01*
X190898801Y-62416925D01*
X190871584Y-62364597D01*
X190665119Y-62343776D01*
X190639620Y-62364597D01*
X189314396Y-62364597D01*
X189323977Y-62334661D01*
X189484033Y-62298970D01*
X189559278Y-62253284D01*
X189354017Y-62140904D01*
X188924727Y-61981790D01*
X188327885Y-61795905D01*
X187619967Y-61603207D01*
X187276150Y-61518624D01*
X186573872Y-61345780D01*
X185908037Y-61171994D01*
X185511472Y-61060691D01*
X185044866Y-60968968D01*
X184704609Y-60984865D01*
X184665652Y-61002374D01*
X184405250Y-61005590D01*
X184326998Y-60928388D01*
X184141635Y-60903691D01*
X183829304Y-61067536D01*
X183487038Y-61342210D01*
X183211869Y-61650003D01*
X183100807Y-61910416D01*
X182965958Y-62083739D01*
X182672379Y-62125554D01*
X182386522Y-62028135D01*
X182310777Y-61947086D01*
X182341563Y-61715101D01*
X182517702Y-61526379D01*
X182712875Y-61292549D01*
X182694871Y-61146789D01*
X182496284Y-61149799D01*
X182328020Y-61306537D01*
X182065246Y-61553080D01*
X181907313Y-61610716D01*
X181732527Y-61733671D01*
X177556109Y-61733671D01*
X177509457Y-60479894D01*
X188493958Y-60479894D01*
X188580944Y-60566880D01*
X188667931Y-60479894D01*
X188580944Y-60392908D01*
X188493958Y-60479894D01*
X177509457Y-60479894D01*
X177497441Y-60156956D01*
X177448778Y-58711173D01*
X189073867Y-58711173D01*
X189097748Y-58814599D01*
X189189849Y-58827154D01*
X189333048Y-58763500D01*
X189305830Y-58711173D01*
X189099365Y-58690351D01*
X189073867Y-58711173D01*
X177448778Y-58711173D01*
X177445595Y-58616607D01*
X177412132Y-57423354D01*
X177397055Y-56577291D01*
X177400367Y-56078512D01*
X177417772Y-55927542D01*
X177617542Y-55920199D01*
X178069018Y-55979732D01*
X178685087Y-56093835D01*
X178868491Y-56132435D01*
X179614751Y-56289840D01*
X180565943Y-56485293D01*
X181585356Y-56690906D01*
X182317931Y-56836083D01*
X183344357Y-57042135D01*
X184450185Y-57271526D01*
X185478603Y-57491400D01*
X186058342Y-57619766D01*
X186894402Y-57806183D01*
X187713509Y-57984230D01*
X188381940Y-58124998D01*
X188580944Y-58165135D01*
X189137851Y-58283625D01*
X189576821Y-58392287D01*
X189711766Y-58434054D01*
X190119749Y-58559043D01*
X190233684Y-58585763D01*
X190523556Y-58645261D01*
X191048419Y-58752330D01*
X191702269Y-58885352D01*
X191799438Y-58905094D01*
X192594959Y-59068673D01*
X193556053Y-59269168D01*
X194508176Y-59470108D01*
X194756972Y-59523102D01*
X195624579Y-59703351D01*
X196504710Y-59877885D01*
X197248095Y-60017354D01*
X197453547Y-60053336D01*
X198186474Y-60198947D01*
X198922050Y-60377960D01*
X199280259Y-60482044D01*
X199914139Y-60645945D01*
X200677175Y-60789540D01*
X201106972Y-60847862D01*
X201693111Y-60930041D01*
X202142472Y-61025795D01*
X202324780Y-61096009D01*
X202564485Y-61185233D01*
X203059555Y-61311385D01*
X203722315Y-61453161D01*
X204064506Y-61518711D01*
X205013720Y-61700957D01*
X206066078Y-61913832D01*
X207011417Y-62114706D01*
X207109027Y-62136278D01*
X208008210Y-62333057D01*
X208985103Y-62542135D01*
X209838767Y-62720540D01*
X209892588Y-62731561D01*
X210635694Y-62889011D01*
X211572237Y-63095429D01*
X212557312Y-63318599D01*
X213111081Y-63447074D01*
X214022883Y-63655328D01*
X215194239Y-63914371D01*
X216543517Y-64206744D01*
X217989085Y-64514991D01*
X219449311Y-64821653D01*
X220842563Y-65109273D01*
X221635739Y-65270136D01*
X222340178Y-65423383D01*
X223128310Y-65611213D01*
X223462451Y-65696411D01*
X224092686Y-65846397D01*
X224913646Y-66020735D01*
X225772708Y-66187396D01*
X225985054Y-66225798D01*
X226734129Y-66369156D01*
X227393178Y-66513791D01*
X227856802Y-66635874D01*
X227964732Y-66673386D01*
X228128093Y-66714489D01*
X228312268Y-66682217D01*
X228555682Y-66546878D01*
X228896763Y-66278782D01*
X229373936Y-65848237D01*
X230025627Y-65225554D01*
X230737069Y-64531273D01*
X231488575Y-63796032D01*
X232163186Y-63138595D01*
X232718260Y-62600312D01*
X233111153Y-62222535D01*
X233299221Y-62046616D01*
X233300356Y-62045647D01*
X233468832Y-61888448D01*
X233858181Y-61517593D01*
X234439087Y-60961237D01*
X235182235Y-60247533D01*
X236058311Y-59404636D01*
X237037998Y-58460698D01*
X238091981Y-57443875D01*
X238095828Y-57440161D01*
X239244684Y-56331414D01*
X240401581Y-55215449D01*
X241521239Y-54135905D01*
X242558378Y-53136423D01*
X243467716Y-52260642D01*
X244203975Y-51552201D01*
X244594295Y-51177148D01*
X245308155Y-50486622D01*
X245973414Y-49833590D01*
X246529890Y-49277797D01*
X246917402Y-48878995D01*
X247008557Y-48780236D01*
X247353738Y-48433859D01*
X247620460Y-48234140D01*
X247680629Y-48214825D01*
X247757819Y-48375272D01*
G37*
%TD*%
M02*
